<svg width="12" height="16" viewBox="0 0 12 16" fill="none" xmlns="http://www.w3.org/2000/svg">
    <path d="M10.5 3.5H9C9 1.8425 7.6575 0.5 6 0.5C4.3425 0.5 3 1.8425 3 3.5H1.5C0.675 3.5 0 4.175 0 5V14C0 14.825 0.675 15.5 1.5 15.5H10.5C11.325 15.5 12 14.825 12 14V5C12 4.175 11.325 3.5 10.5 3.5ZM6 2C6.825 2 7.5 2.675 7.5 3.5H4.5C4.5 2.675 5.175 2 6 2ZM10.5 14H1.5V5H3V6.5C3 6.9125 3.3375 7.25 3.75 7.25C4.1625 7.25 4.5 6.9125 4.5 6.5V5H7.5V6.5C7.5 6.9125 7.8375 7.25 8.25 7.25C8.6625 7.25 9 6.9125 9 6.5V5H10.5V14Z" fill="#979797"/>
</svg>
