<svg width="28" height="28" viewBox="0 0 28 28" fill="none" xmlns="http://www.w3.org/2000/svg">
<path d="M14 27.2C13.591 27.2029 13.1874 27.1061 12.8243 26.9179C12.4612 26.7297 12.1494 26.4558 11.916 26.12C11.6807 25.7836 11.3345 25.5407 10.9381 25.4339C10.5417 25.3271 10.1204 25.3633 9.74796 25.536C9.37724 25.705 8.97143 25.7828 8.56448 25.7629C8.15753 25.743 7.76127 25.626 7.40882 25.4215C7.05638 25.2171 6.758 24.9313 6.53864 24.5879C6.31928 24.2446 6.18532 23.8537 6.14796 23.448C6.11346 23.0352 5.93381 22.648 5.64089 22.3551C5.34798 22.0621 4.96076 21.8825 4.54796 21.848C4.14224 21.8106 3.75136 21.6767 3.40801 21.4573C3.06466 21.238 2.77883 20.9396 2.57441 20.5871C2.36999 20.2347 2.25293 19.8384 2.23302 19.4315C2.21311 19.0245 2.29092 18.6187 2.45996 18.248C2.63282 17.8766 2.66944 17.4562 2.56339 17.0605C2.45734 16.6649 2.21539 16.3191 1.87996 16.084C1.54569 15.8484 1.27293 15.5359 1.08465 15.1729C0.896373 14.8099 0.798096 14.4069 0.798096 13.998C0.798096 13.589 0.896373 13.1861 1.08465 12.8231C1.27293 12.46 1.54569 12.1476 1.87996 11.912C2.21639 11.6767 2.45928 11.3306 2.56606 10.9342C2.67284 10.5377 2.6367 10.1164 2.46396 9.74399C2.29492 9.37327 2.21711 8.96747 2.23702 8.56052C2.25693 8.15357 2.37399 7.7573 2.57841 7.40485C2.78283 7.05241 3.06866 6.75403 3.41201 6.53467C3.75536 6.31531 4.14624 6.18135 4.55196 6.14399C4.96476 6.10949 5.35198 5.92984 5.64489 5.63693C5.93781 5.34402 6.11746 4.95679 6.15196 4.54399C6.18932 4.13827 6.32328 3.74739 6.54264 3.40404C6.762 3.0607 7.06037 2.77486 7.41282 2.57044C7.76527 2.36603 8.16153 2.24897 8.56848 2.22905C8.97543 2.20914 9.38124 2.28696 9.75196 2.45599C10.1233 2.62886 10.5437 2.66548 10.9394 2.55942C11.3351 2.45337 11.6808 2.21142 11.916 1.87599C12.1515 1.54172 12.464 1.26896 12.827 1.08068C13.1901 0.892406 13.593 0.794128 14.002 0.794128C14.4109 0.794128 14.8139 0.892406 15.1769 1.08068C15.5399 1.26896 15.8524 1.54172 16.088 1.87599C16.3232 2.21242 16.6694 2.45532 17.0658 2.5621C17.4622 2.66888 17.8835 2.63273 18.256 2.45999C18.6267 2.29096 19.0325 2.21314 19.4394 2.23305C19.8464 2.25297 20.2426 2.37003 20.5951 2.57444C20.9475 2.77886 21.2459 3.0647 21.4653 3.40804C21.6846 3.75139 21.8186 4.14227 21.856 4.54799C21.8905 4.96079 22.0701 5.34802 22.363 5.64093C22.6559 5.93384 23.0432 6.11349 23.456 6.14799C23.8617 6.18535 24.2526 6.31931 24.5959 6.53867C24.9392 6.75803 25.2251 7.05641 25.4295 7.40885C25.6339 7.7613 25.751 8.15757 25.7709 8.56452C25.7908 8.97147 25.713 9.37727 25.544 9.74799C25.3711 10.1194 25.3345 10.5398 25.4405 10.9354C25.5466 11.3311 25.7885 11.6768 26.124 11.912C26.4582 12.1476 26.731 12.46 26.9193 12.8231C27.1075 13.1861 27.2058 13.589 27.2058 13.998C27.2058 14.4069 27.1075 14.8099 26.9193 15.1729C26.731 15.5359 26.4582 15.8484 26.124 16.084C25.7901 16.3195 25.5496 16.6648 25.4444 17.0596C25.3391 17.4543 25.3758 17.8735 25.548 18.244C25.717 18.6147 25.7948 19.0205 25.7749 19.4275C25.755 19.8344 25.6379 20.2307 25.4335 20.5831C25.2291 20.9356 24.9432 21.2339 24.5999 21.4533C24.2566 21.6727 23.8657 21.8066 23.46 21.844C23.0472 21.8785 22.6599 22.0581 22.367 22.3511C22.0741 22.644 21.8945 23.0312 21.86 23.444C21.8226 23.8497 21.6886 24.2406 21.4693 24.5839C21.2499 24.9273 20.9515 25.2131 20.5991 25.4175C20.2466 25.622 19.8504 25.739 19.4434 25.7589C19.0365 25.7788 18.6307 25.701 18.26 25.532C17.8886 25.3591 17.4682 25.3225 17.0725 25.4286C16.6768 25.5346 16.3311 25.7766 16.096 26.112C15.862 26.4508 15.5487 26.727 15.1833 26.9167C14.8179 27.1064 14.4116 27.2036 14 27.2ZM10.484 24.572C10.8925 24.5718 11.295 24.6698 11.6577 24.8577C12.0204 25.0457 12.3326 25.3181 12.568 25.652C12.7292 25.8814 12.9434 26.0687 13.1923 26.198C13.4412 26.3272 13.7175 26.3947 13.998 26.3947C14.2784 26.3947 14.5548 26.3272 14.8036 26.198C15.0525 26.0687 15.2667 25.8814 15.428 25.652C15.7718 25.1628 16.2763 24.8096 16.8537 24.6539C17.4311 24.4982 18.0448 24.5499 18.588 24.8C18.8424 24.9177 19.1215 24.9726 19.4016 24.9601C19.6817 24.9476 19.9547 24.8681 20.1977 24.7281C20.4407 24.5882 20.6466 24.392 20.798 24.1561C20.9494 23.9201 21.042 23.6512 21.068 23.372C21.1194 22.7761 21.3795 22.2175 21.8025 21.7945C22.2254 21.3716 22.784 21.1115 23.38 21.06C23.6569 21.0322 23.9232 20.9388 24.1568 20.7876C24.3904 20.6364 24.5847 20.4317 24.7235 20.1905C24.8623 19.9493 24.9416 19.6785 24.9549 19.4005C24.9682 19.1225 24.9151 18.8454 24.8 18.592C24.5479 18.0503 24.4939 17.4372 24.6474 16.8598C24.8009 16.2823 25.1522 15.7771 25.64 15.432C25.8686 15.2706 26.0551 15.0566 26.1839 14.8081C26.3126 14.5596 26.3798 14.2839 26.3798 14.004C26.3798 13.7241 26.3126 13.4483 26.1839 13.1998C26.0551 12.9513 25.8686 12.7374 25.64 12.576C25.1518 12.2302 24.8005 11.7242 24.647 11.1461C24.4935 10.568 24.5476 9.95432 24.8 9.41199C24.9177 9.1575 24.9726 8.87848 24.9601 8.59836C24.9476 8.31824 24.868 8.04522 24.7281 7.80223C24.5882 7.55924 24.392 7.35338 24.156 7.20195C23.92 7.05052 23.6511 6.95794 23.372 6.93199C22.7767 6.88066 22.2185 6.62111 21.7957 6.19899C21.3728 5.77686 21.1123 5.21918 21.06 4.62399C21.0336 4.34634 20.9412 4.07903 20.7904 3.84439C20.6397 3.60975 20.4349 3.41459 20.1934 3.2752C19.9518 3.13582 19.6804 3.05627 19.4018 3.04318C19.1232 3.0301 18.8455 3.08386 18.592 3.19999C18.0495 3.45006 17.4367 3.50258 16.8596 3.34845C16.2825 3.19431 15.7775 2.84323 15.432 2.35599C15.2707 2.12655 15.0565 1.9393 14.8076 1.81003C14.5588 1.68076 14.2824 1.61328 14.002 1.61328C13.7215 1.61328 13.4452 1.68076 13.1963 1.81003C12.9474 1.9393 12.7332 2.12655 12.572 2.35599C12.2269 2.84385 11.7219 3.19542 11.1446 3.34961C10.5673 3.5038 9.95427 3.45086 9.41196 3.19999C9.15747 3.08228 8.87844 3.02736 8.59833 3.03986C8.31821 3.05236 8.04519 3.13191 7.8022 3.27183C7.55921 3.41175 7.35335 3.60794 7.20192 3.84393C7.05048 4.07991 6.9579 4.3488 6.93196 4.62799C6.88062 5.22327 6.62108 5.7814 6.19895 6.20426C5.77683 6.62711 5.21915 6.88763 4.62396 6.93999C4.34618 6.96699 4.07886 7.05996 3.84428 7.21116C3.60969 7.36236 3.41463 7.56742 3.27532 7.80925C3.13601 8.05109 3.05649 8.3227 3.04338 8.60149C3.03027 8.88027 3.08395 9.15815 3.19996 9.41199C3.44976 9.95385 3.50212 10.566 3.34797 11.1424C3.19383 11.7188 2.84288 12.2232 2.35596 12.568C2.12652 12.7293 1.93926 12.9434 1.81 13.1923C1.68073 13.4412 1.61324 13.7175 1.61324 13.998C1.61324 14.2784 1.68073 14.5548 1.81 14.8037C1.93926 15.0526 2.12652 15.2667 2.35596 15.428C2.84382 15.773 3.19539 16.278 3.34957 16.8553C3.50376 17.4326 3.45082 18.0457 3.19996 18.588C3.08224 18.8425 3.02733 19.1215 3.03983 19.4016C3.05233 19.6817 3.13188 19.9548 3.2718 20.1978C3.41171 20.4407 3.60791 20.6466 3.84389 20.798C4.07988 20.9495 4.34877 21.042 4.62796 21.068C5.22324 21.1193 5.78137 21.3789 6.20423 21.801C6.62708 22.2231 6.88759 22.7808 6.93996 23.376C6.96696 23.6538 7.05993 23.9211 7.21113 24.1557C7.36233 24.3903 7.56738 24.5853 7.80922 24.7246C8.05105 24.8639 8.32267 24.9435 8.60145 24.9566C8.88024 24.9697 9.15812 24.916 9.41196 24.8C9.74836 24.6466 10.1143 24.5688 10.484 24.572Z" fill="#50555C"/>
<path d="M14.0001 24.924C13.6519 24.9254 13.3086 24.8421 12.9999 24.6811C12.6911 24.5201 12.4262 24.2863 12.2281 24C12.0446 23.7373 11.7747 23.5473 11.4655 23.4633C11.1563 23.3792 10.8273 23.4064 10.5361 23.54C10.2208 23.6874 9.87457 23.7565 9.52684 23.7415C9.1791 23.7266 8.84011 23.6279 8.53862 23.454C8.23713 23.2801 7.98203 23.0361 7.79497 22.7425C7.60791 22.449 7.49441 22.1147 7.4641 21.768C7.4354 21.4488 7.29554 21.1498 7.06892 20.9232C6.8423 20.6966 6.5433 20.5567 6.2241 20.528C5.8779 20.4974 5.54416 20.384 5.2511 20.1971C4.95804 20.0103 4.71428 19.7556 4.54046 19.4547C4.36664 19.1537 4.26786 18.8153 4.25248 18.4681C4.2371 18.1209 4.30557 17.7751 4.4521 17.46C4.58362 17.1704 4.61045 16.8441 4.52801 16.537C4.44556 16.2298 4.25895 15.9608 4.0001 15.776C3.71616 15.5754 3.48451 15.3096 3.32463 15.0009C3.16475 14.6922 3.0813 14.3496 3.0813 14.002C3.0813 13.6544 3.16475 13.3118 3.32463 13.0031C3.48451 12.6944 3.71616 12.4286 4.0001 12.228C4.26312 12.0438 4.4532 11.7732 4.53726 11.4633C4.62131 11.1534 4.59401 10.8238 4.4601 10.532C4.31357 10.2169 4.2451 9.87105 4.26048 9.52385C4.27586 9.17665 4.37464 8.83825 4.54846 8.5373C4.72228 8.23635 4.96604 7.98169 5.2591 7.79487C5.55216 7.60804 5.8859 7.49455 6.2321 7.464C6.5513 7.4353 6.8503 7.29544 7.07692 7.06882C7.30354 6.8422 7.4434 6.5432 7.4721 6.224C7.50266 5.8778 7.61615 5.54405 7.80297 5.25099C7.98979 4.95793 8.24445 4.71418 8.5454 4.54036C8.84636 4.36654 9.18475 4.26776 9.53195 4.25238C9.87916 4.237 10.225 4.30547 10.5401 4.452C10.8297 4.58352 11.156 4.61035 11.4631 4.5279C11.7703 4.44546 12.0393 4.25885 12.2241 4C12.4226 3.71311 12.6881 3.479 12.9976 3.31798C13.3071 3.15696 13.6512 3.0739 14.0001 3.076V3.076C14.3484 3.07386 14.692 3.15693 15.0008 3.31798C15.3097 3.47904 15.5745 3.71317 15.7721 4C15.9556 4.2627 16.2255 4.45265 16.5347 4.53672C16.8439 4.62079 17.1728 4.59363 17.4641 4.46C17.7794 4.31263 18.1256 4.2435 18.4734 4.25847C18.8211 4.27343 19.1601 4.37205 19.4616 4.54596C19.7631 4.71987 20.0182 4.96393 20.2052 5.25745C20.3923 5.55096 20.5058 5.88527 20.5361 6.232C20.5648 6.5512 20.7047 6.8502 20.9313 7.07682C21.1579 7.30344 21.4569 7.4433 21.7761 7.472C22.1223 7.50255 22.456 7.61604 22.7491 7.80287C23.0422 7.98969 23.2859 8.24435 23.4597 8.5453C23.6336 8.84625 23.7323 9.18465 23.7477 9.53185C23.7631 9.87905 23.6946 10.2249 23.5481 10.54C23.4166 10.8296 23.3897 11.1559 23.4722 11.463C23.5546 11.7702 23.7412 12.0392 24.0001 12.224C24.284 12.4241 24.5157 12.6896 24.6756 12.998C24.8355 13.3063 24.919 13.6486 24.919 13.996C24.919 14.3434 24.8355 14.6857 24.6756 14.994C24.5157 15.3024 24.284 15.5679 24.0001 15.768V15.768C23.7361 15.9523 23.545 16.2234 23.4603 16.534C23.3755 16.8446 23.4023 17.1751 23.5361 17.468C23.6826 17.7831 23.7511 18.1289 23.7357 18.4761C23.7203 18.8233 23.6216 19.1617 23.4477 19.4627C23.2739 19.7636 23.0302 20.0183 22.7371 20.2051C22.444 20.392 22.1103 20.5054 21.7641 20.536C21.4449 20.5647 21.1459 20.7046 20.9193 20.9312C20.6927 21.1578 20.5528 21.4568 20.5241 21.776C20.4935 22.1222 20.3801 22.4559 20.1932 22.749C20.0064 23.0421 19.7517 23.2858 19.4508 23.4596C19.1498 23.6335 18.8114 23.7322 18.4642 23.7476C18.117 23.763 17.7712 23.6945 17.4561 23.548C17.167 23.4175 16.8416 23.3913 16.5353 23.4737C16.229 23.5561 15.9607 23.7421 15.7761 24C15.5776 24.2869 15.3121 24.521 15.0026 24.682C14.6931 24.843 14.349 24.9261 14.0001 24.924V24.924ZM11.1081 22.624C11.4553 22.623 11.7977 22.7057 12.1062 22.8652C12.4146 23.0247 12.6801 23.2561 12.8801 23.54C13.0058 23.7199 13.1731 23.8668 13.3678 23.9682C13.5624 24.0696 13.7786 24.1226 13.9981 24.1226C14.2176 24.1226 14.4338 24.0696 14.6284 23.9682C14.8231 23.8668 14.9904 23.7199 15.1161 23.54C15.4083 23.1246 15.8371 22.825 16.3276 22.6934C16.8181 22.5618 17.3392 22.6066 17.8001 22.82C17.9993 22.9127 18.218 22.9561 18.4375 22.9465C18.6571 22.9368 18.871 22.8744 19.0614 22.7645C19.2517 22.6546 19.4127 22.5005 19.5309 22.3152C19.649 22.1299 19.7208 21.9189 19.7401 21.7C19.785 21.1942 20.0064 20.7204 20.3654 20.3613C20.7245 20.0023 21.1983 19.7809 21.7041 19.736C21.9225 19.7164 22.1329 19.6447 22.3178 19.5268C22.5026 19.4089 22.6564 19.2483 22.7662 19.0585C22.876 18.8687 22.9386 18.6553 22.9486 18.4363C22.9587 18.2173 22.916 17.9991 22.8241 17.8C22.6103 17.3396 22.5649 16.8187 22.6958 16.3283C22.8266 15.8378 23.1254 15.4088 23.5401 15.116L23.7761 15.44L23.5441 15.112C23.7232 14.9861 23.8694 14.819 23.9703 14.6248C24.0712 14.4306 24.1239 14.2149 24.1239 13.996C24.1239 13.7771 24.0712 13.5614 23.9703 13.3672C23.8694 13.173 23.7232 13.0058 23.5441 12.88C23.1287 12.5878 22.8291 12.159 22.6975 11.6685C22.5659 11.178 22.6107 10.6569 22.8241 10.196C22.9168 9.99677 22.9602 9.77813 22.9506 9.55858C22.9409 9.33904 22.8785 9.12505 22.7686 8.93473C22.6587 8.74441 22.5046 8.58337 22.3193 8.46522C22.134 8.34708 21.923 8.27531 21.7041 8.256C21.1983 8.21106 20.7245 7.98971 20.3654 7.63067C20.0064 7.27163 19.785 6.79777 19.7401 6.292C19.7214 6.07322 19.6502 5.86219 19.5325 5.67683C19.4148 5.49147 19.2541 5.33726 19.0641 5.22731C18.874 5.11736 18.6602 5.05492 18.4409 5.04529C18.2215 5.03566 18.0031 5.07913 17.8041 5.172C17.3437 5.38576 16.8228 5.43117 16.3324 5.30033C15.8419 5.16949 15.4129 4.87069 15.1201 4.456C14.9944 4.27582 14.8267 4.12889 14.6316 4.02785C14.4365 3.92682 14.2198 3.87471 14.0001 3.876V3.876C13.7809 3.87467 13.5648 3.9268 13.3703 4.02787C13.1758 4.12893 13.009 4.27589 12.8841 4.456C12.5919 4.87137 12.1631 5.17098 11.6726 5.30257C11.1821 5.43415 10.661 5.38936 10.2001 5.176C10.0009 5.08326 9.78223 5.03989 9.56268 5.04954C9.34314 5.0592 9.12915 5.12161 8.93883 5.23148C8.74852 5.34136 8.58747 5.49547 8.46932 5.68076C8.35118 5.86606 8.27941 6.07709 8.2601 6.296C8.21516 6.80177 7.99381 7.27563 7.63477 7.63467C7.27573 7.99371 6.80187 8.21506 6.2961 8.26C6.07733 8.27867 5.86629 8.34988 5.68093 8.46757C5.49557 8.58527 5.34136 8.74597 5.23141 8.93603C5.12146 9.12609 5.05902 9.33988 5.04939 9.55924C5.03976 9.7786 5.08323 9.99704 5.1761 10.196C5.38986 10.6564 5.43527 11.1773 5.30443 11.6677C5.17359 12.1582 4.87479 12.5872 4.4601 12.88C4.28021 13.0057 4.13331 13.173 4.03188 13.3676C3.93045 13.5623 3.87749 13.7785 3.87749 13.998C3.87749 14.2175 3.93045 14.4337 4.03188 14.6283C4.13331 14.823 4.28021 14.9903 4.4601 15.116C4.87547 15.4082 5.17508 15.837 5.30667 16.3275C5.43825 16.818 5.39346 17.3391 5.1801 17.8C5.08736 17.9992 5.04399 18.2179 5.05365 18.4374C5.0633 18.657 5.12571 18.8709 5.23559 19.0613C5.34546 19.2516 5.49957 19.4126 5.68486 19.5308C5.87016 19.6489 6.08119 19.7207 6.3001 19.74C6.80587 19.7849 7.27973 20.0063 7.63877 20.3653C7.99781 20.7244 8.21916 21.1982 8.2641 21.704C8.28277 21.9228 8.35398 22.1338 8.47167 22.3192C8.58937 22.5045 8.75007 22.6587 8.94013 22.7687C9.13019 22.8786 9.34398 22.9411 9.56334 22.9507C9.7827 22.9603 10.0011 22.9169 10.2001 22.824C10.4848 22.6926 10.7945 22.6243 11.1081 22.624V22.624Z" fill="#50555C"/>
<path d="M10.4002 19.412H7.47617C7.37009 19.412 7.26834 19.3699 7.19333 19.2948C7.11831 19.2198 7.07617 19.1181 7.07617 19.012V12.52C7.07617 12.4139 7.11831 12.3122 7.19333 12.2372C7.26834 12.1621 7.37009 12.12 7.47617 12.12H10.4002C10.6558 12.12 10.901 12.2216 11.0818 12.4023C11.2626 12.5831 11.3642 12.8283 11.3642 13.084V18.448C11.3642 18.7037 11.2626 18.9489 11.0818 19.1296C10.901 19.3104 10.6558 19.412 10.4002 19.412ZM7.87617 18.612H10.4002C10.4433 18.611 10.4845 18.5934 10.515 18.5628C10.5456 18.5323 10.5632 18.4912 10.5642 18.448V13.084C10.5632 13.0408 10.5456 12.9997 10.515 12.9692C10.4845 12.9386 10.4433 12.921 10.4002 12.92H7.87617V18.612Z" fill="#50555C"/>
<path d="M12.204 19.284C11.8399 19.2869 11.4858 19.1655 11.2 18.94C10.8787 18.6823 10.6614 18.3172 10.588 17.912C10.5715 17.8263 10.5635 17.7392 10.564 17.652V12.964C10.5642 12.8824 10.5893 12.8029 10.636 12.736L12.016 10.736C12.8216 9.54206 13.1709 8.09815 13 6.668C12.9897 6.58899 13.0032 6.5087 13.0389 6.43744C13.0745 6.36617 13.1306 6.30717 13.2 6.268C13.4606 6.13211 13.7501 6.06077 14.044 6.06C14.584 6.06 15.332 6.304 15.836 7.472C16.0315 7.98169 16.1174 8.52688 16.088 9.072C16.0634 9.36905 15.9974 9.6612 15.892 9.94C15.892 10.004 15.848 10.072 15.828 10.14C15.7681 10.3174 15.7226 10.4993 15.692 10.684H20C20.3619 10.6881 20.7079 10.8335 20.9642 11.089C21.2205 11.3446 21.3668 11.6901 21.372 12.052C21.3725 12.3342 21.2859 12.6096 21.1241 12.8408C20.9624 13.072 20.7332 13.2477 20.468 13.344C20.6146 13.6065 20.672 13.9095 20.6316 14.2074C20.5912 14.5053 20.4552 14.782 20.244 14.996C20.1546 15.0879 20.0522 15.166 19.94 15.228C20.0807 15.4507 20.1556 15.7086 20.156 15.972C20.1565 16.1524 20.1214 16.331 20.0528 16.4978C19.9841 16.6646 19.8833 16.8162 19.756 16.944C19.5882 17.1133 19.3784 17.2348 19.148 17.296C19.2358 17.4767 19.281 17.6751 19.28 17.876C19.2833 18.0573 19.2495 18.2375 19.1807 18.4053C19.1119 18.5731 19.0096 18.7251 18.88 18.852C18.754 18.9828 18.6021 19.0859 18.4341 19.1547C18.2661 19.2236 18.0855 19.2567 17.904 19.252L12.204 19.284ZM11.344 13.088V17.652C11.3398 17.6919 11.3398 17.7321 11.344 17.772C11.3834 17.9842 11.4968 18.1755 11.664 18.312C11.8127 18.4296 11.9985 18.4906 12.188 18.484L17.884 18.452C17.9576 18.456 18.0312 18.4445 18.1001 18.4183C18.169 18.3922 18.2316 18.3518 18.284 18.3C18.3435 18.2462 18.3905 18.18 18.4216 18.106C18.4527 18.032 18.4671 17.9522 18.464 17.872C18.463 17.7508 18.4239 17.6329 18.3521 17.5352C18.2802 17.4376 18.1794 17.365 18.064 17.328C17.9579 17.3131 17.8621 17.2568 17.7975 17.1712C17.733 17.0857 17.7051 16.9781 17.72 16.872C17.7348 16.7659 17.7912 16.6701 17.8767 16.6056C17.9623 16.541 18.0699 16.5131 18.176 16.528H18.78C18.8554 16.528 18.9302 16.5131 18.9998 16.4841C19.0695 16.4551 19.1327 16.4126 19.1859 16.359C19.239 16.3055 19.2811 16.242 19.3096 16.1721C19.3381 16.1023 19.3525 16.0274 19.352 15.952C19.352 15.8003 19.2917 15.6548 19.1845 15.5475C19.0772 15.4403 18.9317 15.38 18.78 15.38C18.6739 15.38 18.5722 15.3379 18.4971 15.2628C18.4221 15.1878 18.38 15.0861 18.38 14.98C18.38 14.8739 18.4221 14.7722 18.4971 14.6972C18.5722 14.6221 18.6739 14.58 18.78 14.58H19.268C19.3427 14.5812 19.4168 14.5669 19.4856 14.5379C19.5545 14.509 19.6166 14.4661 19.668 14.412C19.7217 14.36 19.7646 14.2979 19.7941 14.2293C19.8237 14.1606 19.8393 14.0867 19.84 14.012C19.84 13.9332 19.8243 13.8553 19.7938 13.7826C19.7633 13.71 19.7186 13.6442 19.6624 13.5891C19.6061 13.534 19.5394 13.4906 19.4662 13.4616C19.393 13.4325 19.3147 13.4184 19.236 13.42C19.1299 13.42 19.0282 13.3779 18.9531 13.3028C18.8781 13.2278 18.836 13.1261 18.836 13.02C18.8346 12.9247 18.8673 12.832 18.9282 12.7587C18.989 12.6854 19.0741 12.6362 19.168 12.62H19.264H20C20.0754 12.62 20.1502 12.6051 20.2198 12.5761C20.2895 12.5471 20.3527 12.5046 20.4059 12.4511C20.459 12.3975 20.5011 12.334 20.5296 12.2641C20.5581 12.1943 20.5725 12.1194 20.572 12.044C20.566 11.895 20.5035 11.7538 20.3973 11.6491C20.2911 11.5444 20.1491 11.4839 20 11.48H15.256C15.1565 11.4805 15.0604 11.4439 14.9864 11.3773C14.9124 11.3108 14.8659 11.219 14.856 11.12C14.8329 10.7021 14.8969 10.2839 15.044 9.892L15.112 9.684C15.1877 9.48153 15.2387 9.27067 15.264 9.056C15.2915 8.62219 15.2274 8.18745 15.076 7.78C14.676 6.86 14.184 6.86 14.02 6.86C13.946 6.85919 13.8721 6.86725 13.8 6.884C13.9153 8.41042 13.5122 9.93111 12.656 11.2L11.344 13.088Z" fill="#50555C"/>
</svg>
