<svg width="22" height="22" viewBox="0 0 22 22" fill="none" xmlns="http://www.w3.org/2000/svg">
<path d="M16.4998 5.50001H14.6665C14.6665 3.47418 13.0257 1.83334 10.9998 1.83334C8.974 1.83334 7.33317 3.47418 7.33317 5.50001H5.49984C4.4915 5.50001 3.6665 6.32501 3.6665 7.33334V18.3333C3.6665 19.3417 4.4915 20.1667 5.49984 20.1667H16.4998C17.5082 20.1667 18.3332 19.3417 18.3332 18.3333V7.33334C18.3332 6.32501 17.5082 5.50001 16.4998 5.50001ZM10.9998 3.66668C12.0082 3.66668 12.8332 4.49168 12.8332 5.50001H9.1665C9.1665 4.49168 9.9915 3.66668 10.9998 3.66668ZM16.4998 18.3333H5.49984V7.33334H7.33317V9.16668C7.33317 9.67084 7.74567 10.0833 8.24984 10.0833C8.754 10.0833 9.1665 9.67084 9.1665 9.16668V7.33334H12.8332V9.16668C12.8332 9.67084 13.2457 10.0833 13.7498 10.0833C14.254 10.0833 14.6665 9.67084 14.6665 9.16668V7.33334H16.4998V18.3333Z" fill="#6A6D77"/>
</svg>
