<svg width="24" height="24" viewBox="0 0 24 24" fill="none" xmlns="http://www.w3.org/2000/svg">
<path fill-rule="evenodd" clip-rule="evenodd" d="M5 3C3.89543 3 3 3.89543 3 5V6V9C3 10.1046 3.89543 11 5 11H9C10.1046 11 11 10.1046 11 9V5C11 3.89543 10.1046 3 9 3H5ZM5 5H9V9H5V6V5ZM15 3C13.8954 3 13 3.89543 13 5V6V9C13 10.1046 13.8954 11 15 11H19C20.1046 11 21 10.1046 21 9V5C21 3.89543 20.1046 3 19 3H15ZM15 5H19V9H15V6V5ZM13 15C13 13.8954 13.8954 13 15 13H19C20.1046 13 21 13.8954 21 15V19C21 20.1046 20.1046 21 19 21H15C13.8954 21 13 20.1046 13 19V16V15ZM19 15H15V16V19H19V15ZM5 13C3.89543 13 3 13.8954 3 15V16V19C3 20.1046 3.89543 21 5 21H9C10.1046 21 11 20.1046 11 19V15C11 13.8954 10.1046 13 9 13H5ZM5 15H9V19H5V16V15Z" fill="#6A6D77"/>
</svg>
