<svg width="18" height="30" viewBox="0 0 18 30" fill="none" xmlns="http://www.w3.org/2000/svg">
<path d="M0.469238 29.0615C0.21002 29.0615 0.000488281 28.852 0.000488281 28.5928V3.75186C0.000488281 3.49264 0.21002 3.28311 0.469238 3.28311C0.728457 3.28311 0.937988 3.49264 0.937988 3.75186V28.5928C0.937988 28.852 0.728457 29.0615 0.469238 29.0615Z" fill="#50555C"/>
<path d="M1.40674 29.9991C0.631425 29.9991 0.000488281 29.3681 0.000488281 28.5928C0.000488281 28.3336 0.210019 28.1241 0.469238 28.1241C0.728457 28.1241 0.937988 28.3336 0.937988 28.5928C0.937988 28.8516 1.14799 29.0616 1.40674 29.0616C1.66596 29.0616 1.87549 29.2711 1.87549 29.5303C1.87549 29.7895 1.66596 29.9991 1.40674 29.9991Z" fill="#50555C"/>
<path d="M16.8723 29.0616C16.6131 29.0616 16.4036 28.852 16.4036 28.5928V3.75235C16.4036 3.49313 16.6131 3.2836 16.8723 3.2836C17.1315 3.2836 17.3411 3.49313 17.3411 3.75235V28.5928C17.3411 28.852 17.1315 29.0616 16.8723 29.0616Z" fill="#50555C"/>
<path d="M15.9348 29.9991C15.6756 29.9991 15.4661 29.7895 15.4661 29.5303C15.4661 29.2711 15.6756 29.0616 15.9348 29.0616C16.1936 29.0616 16.4036 28.8516 16.4036 28.5928C16.4036 28.3336 16.6131 28.1241 16.8723 28.1241C17.1315 28.1241 17.3411 28.3336 17.3411 28.5928C17.3411 29.3681 16.7101 29.9991 15.9348 29.9991Z" fill="#50555C"/>
<path d="M15.9347 29.9991H1.40674C1.14752 29.9991 0.937988 29.7895 0.937988 29.5303C0.937988 29.2711 1.14752 29.0616 1.40674 29.0616H15.9347C16.1939 29.0616 16.4035 29.2711 16.4035 29.5303C16.4035 29.7895 16.1939 29.9991 15.9347 29.9991Z" fill="#50555C"/>
<path d="M16.8722 14.5345H0.469238C0.21002 14.5345 0.000488281 14.325 0.000488281 14.0658C0.000488281 13.8065 0.21002 13.597 0.469238 13.597H16.8722C17.1314 13.597 17.341 13.8065 17.341 14.0658C17.341 14.325 17.1314 14.5345 16.8722 14.5345Z" fill="#50555C"/>
<path d="M2.81299 8.44031H0.469238C0.21002 8.44031 0.000488281 8.23078 0.000488281 7.97156C0.000488281 7.71234 0.21002 7.50281 0.469238 7.50281H2.81299C3.07221 7.50281 3.28174 7.71234 3.28174 7.97156C3.28174 8.23078 3.07221 8.44031 2.81299 8.44031Z" fill="#50555C"/>
<path d="M13.5911 12.1903H3.75293C3.49371 12.1903 3.28418 11.9808 3.28418 11.7216C3.28418 11.4623 3.49371 11.2528 3.75293 11.2528H13.5911C13.8503 11.2528 14.0598 11.4623 14.0598 11.7216C14.0598 11.9808 13.8503 12.1903 13.5911 12.1903Z" fill="#50555C"/>
<path d="M3.75293 12.1903C2.97762 12.1903 2.34668 11.5594 2.34668 10.7841C2.34668 10.5248 2.55621 10.3153 2.81543 10.3153C3.07465 10.3153 3.28418 10.5248 3.28418 10.7841C3.28418 11.0428 3.49418 11.2528 3.75293 11.2528C4.01215 11.2528 4.22168 11.4623 4.22168 11.7216C4.22168 11.9808 4.01215 12.1903 3.75293 12.1903Z" fill="#50555C"/>
<path d="M16.8728 8.44031H14.5286C14.2693 8.44031 14.0598 8.23078 14.0598 7.97156C14.0598 7.71234 14.2693 7.50281 14.5286 7.50281H16.8728C17.132 7.50281 17.3415 7.71234 17.3415 7.97156C17.3415 8.23078 17.132 8.44031 16.8728 8.44031Z" fill="#50555C"/>
<path d="M13.5911 12.1903C13.3318 12.1903 13.1223 11.9808 13.1223 11.7216C13.1223 11.4623 13.3318 11.2528 13.5911 11.2528C13.8498 11.2528 14.0598 11.0428 14.0598 10.7841C14.0598 10.5248 14.2693 10.3153 14.5286 10.3153C14.7878 10.3153 14.9973 10.5248 14.9973 10.7841C14.9973 11.5594 14.3664 12.1903 13.5911 12.1903Z" fill="#50555C"/>
<path d="M14.5286 11.2533C14.2693 11.2533 14.0598 11.0433 14.0598 10.7845L14.0622 5.1586C14.0622 4.89938 14.2722 4.68985 14.5309 4.68985C14.7901 4.68985 14.9997 4.89985 14.9997 5.1586L14.9973 10.7845C14.9973 11.0438 14.7873 11.2533 14.5286 11.2533Z" fill="#50555C"/>
<path d="M7.50283 4.22061H0.469238C0.21002 4.22061 0.000488281 4.01108 0.000488281 3.75186C0.000488281 3.49264 0.21002 3.28311 0.469238 3.28311H7.50283C7.76205 3.28311 7.97158 3.49264 7.97158 3.75186C7.97158 4.01108 7.76205 4.22061 7.50283 4.22061Z" fill="#50555C"/>
<path d="M2.81543 11.2528C2.55621 11.2528 2.34668 11.0433 2.34668 10.7841V5.1586C2.34668 4.89938 2.55621 4.68985 2.81543 4.68985C3.07465 4.68985 3.28418 4.89938 3.28418 5.1586V10.7841C3.28418 11.0433 3.07465 11.2528 2.81543 11.2528Z" fill="#50555C"/>
<path d="M5.15918 12.1913C4.89996 12.1913 4.69043 11.9817 4.69043 11.7225V5.1586C4.69043 4.89938 4.89996 4.68985 5.15918 4.68985C5.4184 4.68985 5.62793 4.89938 5.62793 5.1586V11.7225C5.62793 11.9817 5.4184 12.1913 5.15918 12.1913Z" fill="#50555C"/>
<path d="M7.50293 12.1922C7.24371 12.1922 7.03418 11.9827 7.03418 11.7234V0.46875C7.03418 0.209531 7.24371 0 7.50293 0C7.76215 0 7.97168 0.209531 7.97168 0.46875V11.7234C7.97168 11.9822 7.76215 12.1922 7.50293 12.1922Z" fill="#50555C"/>
<path d="M9.84668 12.1922C9.58746 12.1922 9.37793 11.9827 9.37793 11.7234V0.46875C9.37793 0.209531 9.58746 0 9.84668 0C10.1059 0 10.3154 0.209531 10.3154 0.46875V11.7234C10.3154 11.9822 10.1059 12.1922 9.84668 12.1922Z" fill="#50555C"/>
<path d="M12.1804 12.1913C11.9212 12.1913 11.7117 11.9817 11.7117 11.7225V5.1586C11.7117 4.89938 11.9212 4.68985 12.1804 4.68985C12.4396 4.68985 12.6492 4.89938 12.6492 5.1586V11.7225C12.6492 11.9817 12.4396 12.1913 12.1804 12.1913Z" fill="#50555C"/>
<path d="M7.50283 5.62735H0.469238C0.21002 5.62735 0.000488281 5.41782 0.000488281 5.1586C0.000488281 4.89938 0.21002 4.68985 0.469238 4.68985H7.50283C7.76205 4.68985 7.97158 4.89938 7.97158 5.1586C7.97158 5.41782 7.76205 5.62735 7.50283 5.62735Z" fill="#50555C"/>
<path d="M16.8722 4.2211H9.84424C9.58502 4.2211 9.37549 4.01157 9.37549 3.75235C9.37549 3.49313 9.58502 3.2836 9.84424 3.2836H16.8722C17.1314 3.2836 17.341 3.49313 17.341 3.75235C17.341 4.01157 17.1314 4.2211 16.8722 4.2211Z" fill="#50555C"/>
<path d="M16.8722 5.62735H9.84424C9.58502 5.62735 9.37549 5.41782 9.37549 5.1586C9.37549 4.89938 9.58502 4.68985 9.84424 4.68985H16.8722C17.1314 4.68985 17.341 4.89938 17.341 5.1586C17.341 5.41782 17.1314 5.62735 16.8722 5.62735Z" fill="#50555C"/>
<path d="M9.84668 0.9375H7.50293C7.24371 0.9375 7.03418 0.727969 7.03418 0.46875C7.03418 0.209531 7.24371 0 7.50293 0H9.84668C10.1059 0 10.3154 0.209531 10.3154 0.46875C10.3154 0.727969 10.1059 0.9375 9.84668 0.9375Z" fill="#50555C"/>
<path d="M9.84668 7.4986H7.50293C7.24371 7.4986 7.03418 7.28906 7.03418 7.02985C7.03418 6.77063 7.24371 6.5611 7.50293 6.5611H9.84668C10.1059 6.5611 10.3154 6.77063 10.3154 7.02985C10.3154 7.28906 10.1059 7.4986 9.84668 7.4986Z" fill="#50555C"/>
<path d="M9.84668 8.9086H7.50293C7.24371 8.9086 7.03418 8.69907 7.03418 8.43985C7.03418 8.18063 7.24371 7.9711 7.50293 7.9711H9.84668C10.1059 7.9711 10.3154 8.18063 10.3154 8.43985C10.3154 8.69907 10.1059 8.9086 9.84668 8.9086Z" fill="#50555C"/>
<path d="M0.937988 7.0303H0.469238C0.210019 7.0303 0.000488281 6.82077 0.000488281 6.56155C0.000488281 6.30234 0.210019 6.0928 0.469238 6.0928H0.937988C1.19721 6.0928 1.40674 6.30234 1.40674 6.56155C1.40674 6.82077 1.19721 7.0303 0.937988 7.0303Z" fill="#50555C"/>
<path d="M3.28359 7.0303H2.8125C2.55328 7.0303 2.34375 6.82077 2.34375 6.56155C2.34375 6.30234 2.55328 6.0928 2.8125 6.0928H3.28359C3.54281 6.0928 3.75234 6.30234 3.75234 6.56155C3.75234 6.82077 3.54281 7.0303 3.28359 7.0303Z" fill="#50555C"/>
<path d="M3.28359 9.8428H2.8125C2.55328 9.8428 2.34375 9.63327 2.34375 9.37405C2.34375 9.11484 2.55328 8.9053 2.8125 8.9053H3.28359C3.54281 8.9053 3.75234 9.11484 3.75234 9.37405C3.75234 9.63327 3.54281 9.8428 3.28359 9.8428Z" fill="#50555C"/>
<path d="M5.15869 8.44031H4.68994C4.43072 8.44031 4.22119 8.23078 4.22119 7.97156C4.22119 7.71234 4.43072 7.50281 4.68994 7.50281H5.15869C5.41791 7.50281 5.62744 7.71234 5.62744 7.97156C5.62744 8.23078 5.41791 8.44031 5.15869 8.44031Z" fill="#50555C"/>
<path d="M5.15869 11.2528H4.68994C4.43072 11.2528 4.22119 11.0433 4.22119 10.7841C4.22119 10.5248 4.43072 10.3153 4.68994 10.3153H5.15869C5.41791 10.3153 5.62744 10.5248 5.62744 10.7841C5.62744 11.0433 5.41791 11.2528 5.15869 11.2528Z" fill="#50555C"/>
<path d="M5.62734 7.0303H5.15625C4.89703 7.0303 4.6875 6.82077 4.6875 6.56155C4.6875 6.30234 4.89703 6.0928 5.15625 6.0928H5.62734C5.88656 6.0928 6.09609 6.30234 6.09609 6.56155C6.09609 6.82077 5.88656 7.0303 5.62734 7.0303Z" fill="#50555C"/>
<path d="M5.62734 9.8428H5.15625C4.89703 9.8428 4.6875 9.63327 4.6875 9.37405C4.6875 9.11484 4.89703 8.9053 5.15625 8.9053H5.62734C5.88656 8.9053 6.09609 9.11484 6.09609 9.37405C6.09609 9.63327 5.88656 9.8428 5.62734 9.8428Z" fill="#50555C"/>
<path d="M7.50244 8.44031H7.03369C6.77447 8.44031 6.56494 8.23078 6.56494 7.97156C6.56494 7.71234 6.77447 7.50281 7.03369 7.50281H7.50244C7.76166 7.50281 7.97119 7.71234 7.97119 7.97156C7.97119 8.23078 7.76166 8.44031 7.50244 8.44031Z" fill="#50555C"/>
<path d="M7.50244 11.2528H7.03369C6.77447 11.2528 6.56494 11.0433 6.56494 10.7841C6.56494 10.5248 6.77447 10.3153 7.03369 10.3153H7.50244C7.76166 10.3153 7.97119 10.5248 7.97119 10.7841C7.97119 11.0433 7.76166 11.2528 7.50244 11.2528Z" fill="#50555C"/>
<path d="M7.97109 2.34H7.5C7.24078 2.34 7.03125 2.13046 7.03125 1.87125C7.03125 1.61203 7.24078 1.4025 7.5 1.4025H7.97109C8.23031 1.4025 8.43984 1.61203 8.43984 1.87125C8.43984 2.13046 8.23031 2.34 7.97109 2.34Z" fill="#50555C"/>
<path d="M7.97109 5.1525H7.5C7.24078 5.1525 7.03125 4.94297 7.03125 4.68375C7.03125 4.42453 7.24078 4.215 7.5 4.215H7.97109C8.23031 4.215 8.43984 4.42453 8.43984 4.68375C8.43984 4.94297 8.23031 5.1525 7.97109 5.1525Z" fill="#50555C"/>
<path d="M9.84619 3.75H9.37744C9.11822 3.75 8.90869 3.54047 8.90869 3.28125C8.90869 3.02203 9.11822 2.8125 9.37744 2.8125H9.84619C10.1054 2.8125 10.3149 3.02203 10.3149 3.28125C10.3149 3.54047 10.1054 3.75 9.84619 3.75Z" fill="#50555C"/>
<path d="M9.84619 6.5625H9.37744C9.11822 6.5625 8.90869 6.35297 8.90869 6.09375C8.90869 5.83453 9.11822 5.625 9.37744 5.625H9.84619C10.1054 5.625 10.3149 5.83453 10.3149 6.09375C10.3149 6.35297 10.1054 6.5625 9.84619 6.5625Z" fill="#50555C"/>
<path d="M10.3148 7.0303H9.84375C9.58453 7.0303 9.375 6.82077 9.375 6.56155C9.375 6.30234 9.58453 6.0928 9.84375 6.0928H10.3148C10.5741 6.0928 10.7836 6.30234 10.7836 6.56155C10.7836 6.82077 10.5741 7.0303 10.3148 7.0303Z" fill="#50555C"/>
<path d="M10.3148 9.8428H9.84375C9.58453 9.8428 9.375 9.63327 9.375 9.37405C9.375 9.11484 9.58453 8.9053 9.84375 8.9053H10.3148C10.5741 8.9053 10.7836 9.11484 10.7836 9.37405C10.7836 9.63327 10.5741 9.8428 10.3148 9.8428Z" fill="#50555C"/>
<path d="M12.1899 8.44031H11.7212C11.462 8.44031 11.2524 8.23078 11.2524 7.97156C11.2524 7.71234 11.462 7.50281 11.7212 7.50281H12.1899C12.4492 7.50281 12.6587 7.71234 12.6587 7.97156C12.6587 8.23078 12.4492 8.44031 12.1899 8.44031Z" fill="#50555C"/>
<path d="M12.1899 11.2528H11.7212C11.462 11.2528 11.2524 11.0433 11.2524 10.7841C11.2524 10.5248 11.462 10.3153 11.7212 10.3153H12.1899C12.4492 10.3153 12.6587 10.5248 12.6587 10.7841C12.6587 11.0433 12.4492 11.2528 12.1899 11.2528Z" fill="#50555C"/>
<path d="M12.6586 7.0303H12.1875C11.9283 7.0303 11.7188 6.82077 11.7188 6.56155C11.7188 6.30234 11.9283 6.0928 12.1875 6.0928H12.6586C12.9178 6.0928 13.1273 6.30234 13.1273 6.56155C13.1273 6.82077 12.9178 7.0303 12.6586 7.0303Z" fill="#50555C"/>
<path d="M12.6586 9.8428H12.1875C11.9283 9.8428 11.7188 9.63327 11.7188 9.37405C11.7188 9.11484 11.9283 8.9053 12.1875 8.9053H12.6586C12.9178 8.9053 13.1273 9.11484 13.1273 9.37405C13.1273 9.63327 12.9178 9.8428 12.6586 9.8428Z" fill="#50555C"/>
<path d="M14.5337 8.44031H14.0649C13.8057 8.44031 13.5962 8.23078 13.5962 7.97156C13.5962 7.71234 13.8057 7.50281 14.0649 7.50281H14.5337C14.7929 7.50281 15.0024 7.71234 15.0024 7.97156C15.0024 8.23078 14.7929 8.44031 14.5337 8.44031Z" fill="#50555C"/>
<path d="M14.5337 11.2528H14.0649C13.8057 11.2528 13.5962 11.0433 13.5962 10.7841C13.5962 10.5248 13.8057 10.3153 14.0649 10.3153H14.5337C14.7929 10.3153 15.0024 10.5248 15.0024 10.7841C15.0024 11.0433 14.7929 11.2528 14.5337 11.2528Z" fill="#50555C"/>
<path d="M15.0001 7.0303H14.5291C14.2698 7.0303 14.0603 6.82077 14.0603 6.56155C14.0603 6.30234 14.2698 6.0928 14.5291 6.0928H15.0001C15.2594 6.0928 15.4689 6.30234 15.4689 6.56155C15.4689 6.82077 15.2594 7.0303 15.0001 7.0303Z" fill="#50555C"/>
<path d="M8.67199 26.7084C8.55199 26.7084 8.43199 26.6625 8.34059 26.5711L0.137461 18.368C-0.0458203 18.1847 -0.0458203 17.8884 0.137461 17.7051C0.320742 17.5219 0.616992 17.5219 0.800273 17.7051L9.0034 25.9083C9.18668 26.0916 9.18668 26.3878 9.0034 26.5711C8.91199 26.663 8.79199 26.7084 8.67199 26.7084Z" fill="#50555C"/>
<path d="M8.67199 26.7084C8.55199 26.7084 8.43199 26.6625 8.34059 26.5711C8.1573 26.3878 8.1573 26.0916 8.34059 25.9083L16.5437 17.7051C16.727 17.5219 17.0232 17.5219 17.2065 17.7051C17.3898 17.8884 17.3898 18.1847 17.2065 18.368L9.0034 26.5711C8.91199 26.663 8.79199 26.7084 8.67199 26.7084Z" fill="#50555C"/>
<path d="M8.67199 29.9906C8.55199 29.9906 8.43199 29.9447 8.34059 29.8533L0.137461 21.6502C-0.0458203 21.4669 -0.0458203 21.1706 0.137461 20.9873C0.320742 20.8041 0.616992 20.8041 0.800273 20.9873L9.0034 29.1905C9.18668 29.3738 9.18668 29.67 9.0034 29.8533C8.91199 29.9452 8.79199 29.9906 8.67199 29.9906Z" fill="#50555C"/>
<path d="M8.67199 29.9906C8.55199 29.9906 8.43199 29.9447 8.34059 29.8533C8.1573 29.67 8.1573 29.3738 8.34059 29.1905L16.5437 20.9873C16.727 20.8041 17.0232 20.8041 17.2065 20.9873C17.3898 21.1706 17.3898 21.4669 17.2065 21.6502L9.0034 29.8533C8.91199 29.9452 8.79199 29.9906 8.67199 29.9906Z" fill="#50555C"/>
<path d="M8.67188 22.0298C6.99187 22.0298 5.625 20.663 5.625 18.983C5.625 17.303 6.99187 15.9361 8.67188 15.9361C10.3519 15.9361 11.7188 17.303 11.7188 18.983C11.7188 20.663 10.3519 22.0298 8.67188 22.0298ZM8.67188 16.8736C7.50891 16.8736 6.5625 17.82 6.5625 18.983C6.5625 20.1459 7.50891 21.0923 8.67188 21.0923C9.83484 21.0923 10.7812 20.1459 10.7812 18.983C10.7812 17.82 9.83484 16.8736 8.67188 16.8736Z" fill="#50555C"/>
</svg>
