<svg width="36" height="24" viewBox="0 0 36 24" fill="none" xmlns="http://www.w3.org/2000/svg">
<path d="M18.5001 14.1842C18.0056 14.1842 17.5223 14.3308 17.1112 14.6055C16.7 14.8802 16.3796 15.2706 16.1904 15.7274C16.0012 16.1843 15.9517 16.6869 16.0481 17.1719C16.1446 17.6568 16.3827 18.1023 16.7323 18.4519C17.0819 18.8016 17.5274 19.0397 18.0124 19.1361C18.4973 19.2326 19 19.1831 19.4568 18.9939C19.9136 18.8046 20.304 18.4842 20.5788 18.0731C20.8535 17.662 21.0001 17.1786 21.0001 16.6842C21.0001 16.0211 20.7367 15.3852 20.2678 14.9164C19.799 14.4475 19.1631 14.1842 18.5001 14.1842ZM18.5001 18.3458C18.1704 18.3458 17.8482 18.2481 17.5741 18.0649C17.3 17.8818 17.0864 17.6215 16.9603 17.317C16.8341 17.0124 16.8011 16.6773 16.8654 16.354C16.9297 16.0307 17.0885 15.7337 17.3216 15.5006C17.5547 15.2676 17.8516 15.1088 18.1749 15.0445C18.4982 14.9802 18.8333 15.0132 19.1379 15.1394C19.4424 15.2655 19.7027 15.4791 19.8859 15.7532C20.069 16.0273 20.1667 16.3495 20.1667 16.6792C20.1667 17.1212 19.9912 17.5451 19.6786 17.8577C19.366 18.1702 18.9421 18.3458 18.5001 18.3458ZM12.0659 21.6667C12.0659 21.7491 12.0415 21.8296 11.9957 21.8981C11.9499 21.9667 11.8848 22.0201 11.8087 22.0516C11.7326 22.0831 11.6488 22.0914 11.568 22.0753C11.4871 22.0592 11.4129 22.0196 11.3546 21.9613C11.2963 21.903 11.2567 21.8288 11.2406 21.7479C11.2245 21.6671 11.2328 21.5833 11.2643 21.5072C11.2958 21.4311 11.3492 21.366 11.4178 21.3202C11.4863 21.2744 11.5668 21.25 11.6492 21.25C11.7598 21.25 11.8657 21.2939 11.9439 21.372C12.022 21.4502 12.0659 21.5562 12.0659 21.6667ZM8.69675 12.7983C8.69675 12.8807 8.67231 12.9613 8.62653 13.0298C8.58074 13.0983 8.51567 13.1517 8.43953 13.1833C8.3634 13.2148 8.27962 13.2231 8.19879 13.207C8.11797 13.1909 8.04373 13.1512 7.98545 13.093C7.92718 13.0347 7.8875 12.9604 7.87142 12.8796C7.85534 12.7988 7.86359 12.715 7.89513 12.6389C7.92667 12.5627 7.98007 12.4977 8.04859 12.4519C8.11711 12.4061 8.19767 12.3817 8.28008 12.3817C8.39059 12.3817 8.49657 12.4256 8.57471 12.5037C8.65285 12.5818 8.69675 12.6878 8.69675 12.7983ZM6.95425 20.2258C6.742 20.226 6.53456 20.2891 6.35816 20.4071C6.18176 20.5252 6.04432 20.6928 5.96321 20.889C5.8821 21.0851 5.86096 21.3009 5.90247 21.5091C5.94398 21.7172 6.04627 21.9084 6.19641 22.0584C6.34656 22.2084 6.53781 22.3106 6.74599 22.3519C6.95417 22.3933 7.16994 22.372 7.36602 22.2907C7.5621 22.2094 7.72968 22.0719 7.84758 21.8954C7.96549 21.7189 8.02841 21.5114 8.02841 21.2992C8.02797 21.0145 7.91463 20.7416 7.71326 20.5404C7.51189 20.3392 7.23892 20.226 6.95425 20.2258ZM6.95425 21.5392C6.90682 21.539 6.8605 21.5248 6.82114 21.4983C6.78178 21.4718 6.75115 21.4343 6.73311 21.3904C6.71507 21.3466 6.71044 21.2983 6.71979 21.2518C6.72915 21.2053 6.75207 21.1626 6.78567 21.1292C6.81927 21.0957 6.86203 21.0729 6.90856 21.0637C6.9551 21.0545 7.00331 21.0593 7.04712 21.0775C7.09092 21.0957 7.12836 21.1265 7.15469 21.1659C7.18103 21.2054 7.19508 21.2517 7.19508 21.2992C7.19508 21.3307 7.18885 21.362 7.17673 21.3912C7.16462 21.4204 7.14687 21.4469 7.12449 21.4692C7.10212 21.4915 7.07556 21.5091 7.04635 21.5211C7.01713 21.5331 6.98583 21.5393 6.95425 21.5392ZM8.81258 7.99999C8.73581 8.21934 8.69665 8.45009 8.69675 8.68249V11.2017C8.69675 11.3122 8.65285 11.4181 8.57471 11.4963C8.49657 11.5744 8.39059 11.6183 8.28008 11.6183C8.16957 11.6183 8.06359 11.5744 7.98545 11.4963C7.90731 11.4181 7.86341 11.3122 7.86341 11.2017V8.68666C7.86429 8.36035 7.92065 8.03657 8.03008 7.72916C8.06655 7.62484 8.14296 7.53928 8.24251 7.4913C8.34206 7.44332 8.4566 7.43686 8.56091 7.47332C8.66523 7.50979 8.75079 7.5862 8.79877 7.68575C8.84675 7.78531 8.85321 7.89984 8.81675 8.00416L8.81258 7.99999ZM4.07675 4.16666V3.36999C4.07675 3.25948 4.12065 3.1535 4.19879 3.07536C4.27693 2.99722 4.38291 2.95332 4.49341 2.95332C4.60392 2.95332 4.7099 2.99722 4.78804 3.07536C4.86618 3.1535 4.91008 3.25948 4.91008 3.36999V4.16666C4.91008 4.27716 4.86618 4.38314 4.78804 4.46128C4.7099 4.53942 4.60392 4.58332 4.49341 4.58332C4.38291 4.58332 4.27693 4.53942 4.19879 4.46128C4.12065 4.38314 4.07675 4.27716 4.07675 4.16666ZM4.07675 1.37999V0.583323C4.07675 0.472816 4.12065 0.366835 4.19879 0.288695C4.27693 0.210555 4.38291 0.166656 4.49341 0.166656C4.60392 0.166656 4.7099 0.210555 4.78804 0.288695C4.86618 0.366835 4.91008 0.472816 4.91008 0.583323V1.37999C4.91008 1.4905 4.86618 1.59648 4.78804 1.67462C4.7099 1.75276 4.60392 1.79666 4.49341 1.79666C4.38291 1.79666 4.27693 1.75276 4.19879 1.67462C4.12065 1.59648 4.07675 1.4905 4.07675 1.37999ZM2.83341 2.36582C2.83341 2.25532 2.87731 2.14934 2.95545 2.0712C3.03359 1.99305 3.13957 1.94916 3.25008 1.94916H3.50841C3.61892 1.94916 3.7249 1.99305 3.80304 2.0712C3.88118 2.14934 3.92508 2.25532 3.92508 2.36582C3.92508 2.47633 3.88118 2.58231 3.80304 2.66045C3.7249 2.73859 3.61892 2.78249 3.50841 2.78249H3.25008C3.13957 2.78249 3.03359 2.73859 2.95545 2.66045C2.87731 2.58231 2.83341 2.47633 2.83341 2.36582ZM5.07425 2.36582C5.07425 2.25532 5.11815 2.14934 5.19629 2.0712C5.27443 1.99305 5.38041 1.94916 5.49091 1.94916H5.75008C5.86059 1.94916 5.96657 1.99305 6.04471 2.0712C6.12285 2.14934 6.16675 2.25532 6.16675 2.36582C6.16675 2.47633 6.12285 2.58231 6.04471 2.66045C5.96657 2.73859 5.86059 2.78249 5.75008 2.78249H5.48925C5.37874 2.78249 5.27276 2.73859 5.19462 2.66045C5.11648 2.58231 5.07258 2.47633 5.07258 2.36582H5.07425ZM28.6234 6.35332V5.97832C28.6234 5.86782 28.6673 5.76184 28.7455 5.6837C28.8236 5.60556 28.9296 5.56166 29.0401 5.56166C29.1506 5.56166 29.2566 5.60556 29.3347 5.6837C29.4128 5.76184 29.4567 5.86782 29.4567 5.97832V6.35332C29.4567 6.46383 29.4128 6.56981 29.3347 6.64795C29.2566 6.72609 29.1506 6.76999 29.0401 6.76999C28.9296 6.76999 28.8236 6.72609 28.7455 6.64795C28.6673 6.56981 28.6234 6.46383 28.6234 6.35332ZM30.4951 6.63166L30.6834 6.30582C30.7411 6.21513 30.8315 6.15022 30.9359 6.12465C31.0403 6.09908 31.1505 6.11484 31.2436 6.16862C31.3366 6.2224 31.4053 6.31005 31.4352 6.41326C31.4652 6.51647 31.4541 6.62726 31.4042 6.72249L31.2159 7.04832C31.1793 7.11139 31.1268 7.16374 31.0636 7.20015C31.0005 7.23656 30.9288 7.25576 30.8559 7.25582C30.7827 7.25618 30.7108 7.2369 30.6476 7.19999C30.5518 7.14502 30.4818 7.05428 30.4529 6.94772C30.424 6.84116 30.4386 6.72748 30.4934 6.63166H30.4951ZM31.8284 8.37749C31.7732 8.28179 31.7582 8.16806 31.7868 8.06132C31.8154 7.95459 31.8852 7.86358 31.9809 7.80832L32.3059 7.61999C32.3533 7.5922 32.4058 7.57406 32.4602 7.56662C32.5146 7.55917 32.57 7.56257 32.6231 7.57661C32.6763 7.59066 32.7261 7.61508 32.7697 7.64845C32.8134 7.68183 32.85 7.72352 32.8775 7.7711C32.905 7.81869 32.9227 7.87124 32.9298 7.92574C32.9369 7.98023 32.9331 8.03558 32.9188 8.08861C32.9044 8.14164 32.8796 8.1913 32.8459 8.23473C32.8123 8.27816 32.7703 8.3145 32.7226 8.34166L32.3976 8.52999C32.3341 8.56621 32.2623 8.58544 32.1892 8.58582C32.1151 8.58685 32.0421 8.56809 31.9776 8.53147C31.9132 8.49485 31.8596 8.44169 31.8226 8.37749H31.8284ZM32.6667 9.56749H33.0417C33.1523 9.56749 33.2582 9.61139 33.3364 9.68953C33.4145 9.76767 33.4584 9.87365 33.4584 9.98416C33.4584 10.0947 33.4145 10.2006 33.3364 10.2788C33.2582 10.3569 33.1523 10.4008 33.0417 10.4008H32.6667C32.5562 10.4008 32.4503 10.3569 32.3721 10.2788C32.294 10.2006 32.2501 10.0947 32.2501 9.98416C32.2501 9.87365 32.294 9.76767 32.3721 9.68953C32.4503 9.61139 32.5562 9.56749 32.6667 9.56749ZM32.7134 11.6267C32.7612 11.6538 32.8031 11.6902 32.8368 11.7336C32.8704 11.777 32.8952 11.8267 32.9096 11.8797C32.924 11.9327 32.9277 11.9881 32.9207 12.0426C32.9136 12.0971 32.8958 12.1496 32.8683 12.1972C32.8408 12.2448 32.8042 12.2865 32.7606 12.3199C32.7169 12.3532 32.6671 12.3777 32.614 12.3917C32.5608 12.4057 32.5055 12.4091 32.451 12.4017C32.3966 12.3943 32.3441 12.3761 32.2967 12.3483L31.9726 12.1608C31.8777 12.1052 31.8086 12.0142 31.7805 11.9079C31.7524 11.8015 31.7675 11.6883 31.8225 11.593C31.8775 11.4977 31.9679 11.4281 32.0741 11.3993C32.1803 11.3704 32.2936 11.3848 32.3892 11.4392L32.7134 11.6267ZM31.4034 13.25C31.4308 13.2974 31.4485 13.3498 31.4556 13.4041C31.4628 13.4584 31.4591 13.5136 31.4449 13.5665C31.4307 13.6193 31.4062 13.6689 31.3729 13.7123C31.3395 13.7558 31.2979 13.7922 31.2505 13.8196C31.2031 13.8469 31.1507 13.8647 31.0964 13.8718C31.0421 13.8789 30.9869 13.8753 30.934 13.8611C30.8811 13.8469 30.8316 13.8224 30.7881 13.789C30.7447 13.7557 30.7083 13.7141 30.6809 13.6667L30.4934 13.3417C30.4382 13.2458 30.4232 13.132 30.4519 13.0252C30.4806 12.9184 30.5505 12.8273 30.6463 12.7721C30.7421 12.7168 30.856 12.7019 30.9628 12.7306C31.0696 12.7592 31.1607 12.8292 31.2159 12.925L31.4034 13.25ZM29.4559 13.62V13.995C29.4559 14.1055 29.412 14.2115 29.3339 14.2896C29.2557 14.3678 29.1498 14.4117 29.0392 14.4117C28.9287 14.4117 28.8228 14.3678 28.7446 14.2896C28.6665 14.2115 28.6226 14.1055 28.6226 13.995V13.62C28.6226 13.5095 28.6665 13.4035 28.7446 13.3254C28.8228 13.2472 28.9287 13.2033 29.0392 13.2033C29.1498 13.2033 29.2557 13.2472 29.3339 13.3254C29.412 13.4035 29.4559 13.5095 29.4559 13.62ZM26.6734 6.72832C26.6236 6.6331 26.6125 6.52231 26.6424 6.4191C26.6724 6.31588 26.7411 6.22823 26.8341 6.17445C26.9271 6.12067 27.0374 6.10492 27.1417 6.13049C27.2461 6.15605 27.3366 6.22096 27.3942 6.31166L27.5826 6.63666C27.6378 6.73236 27.6528 6.84608 27.6242 6.95282C27.5956 7.05956 27.5258 7.15057 27.4301 7.20582C27.3669 7.24295 27.295 7.26251 27.2217 7.26249C27.1488 7.26234 27.0771 7.24302 27.0139 7.20646C26.9507 7.16989 26.8982 7.11737 26.8617 7.05416L26.6734 6.72832ZM34.6667 23.0042H33.2201L33.4201 21.0592H33.5551C33.6656 21.0592 33.7716 21.0153 33.8497 20.9371C33.9278 20.859 33.9717 20.753 33.9717 20.6425V19.2258C33.9717 19.1153 33.9278 19.0093 33.8497 18.9312C33.7716 18.8531 33.6656 18.8092 33.5551 18.8092H31.5967L32.5251 16.8633C32.5645 16.7651 32.565 16.6556 32.5266 16.557C32.4882 16.4584 32.4138 16.3781 32.3183 16.3324C32.2229 16.2867 32.1137 16.279 32.0128 16.3109C31.9119 16.3428 31.8269 16.4119 31.7751 16.5042L30.6759 18.8092H27.8084V10.77C27.808 10.6972 27.7887 10.6257 27.7526 10.5625L25.7284 7.04332V4.04332C25.7284 3.93282 25.6845 3.82684 25.6064 3.7487C25.5282 3.67056 25.4223 3.62666 25.3117 3.62666H15.8409C15.7304 3.62666 15.6244 3.67056 15.5463 3.7487C15.4681 3.82684 15.4242 3.93282 15.4242 4.04332V7.04749L14.9609 7.85416C14.92 7.62806 14.8626 7.40525 14.7892 7.18749L13.3659 3.08749C13.5712 3.07005 13.7626 2.97655 13.9026 2.82532C14.0426 2.6741 14.121 2.47605 14.1226 2.26999V1.25582C14.1226 1.03481 14.0348 0.822847 13.8785 0.666567C13.7222 0.510287 13.5103 0.42249 13.2892 0.42249H7.94925C7.72823 0.42249 7.51627 0.510287 7.35999 0.666567C7.20371 0.822847 7.11591 1.03481 7.11591 1.25582V2.26999C7.11725 2.47597 7.19552 2.67401 7.33536 2.82526C7.47519 2.97651 7.6665 3.07003 7.87175 3.08749L6.45508 7.18332C6.28811 7.66574 6.2036 8.17283 6.20508 8.68332V16.6167L4.28258 16.95C4.28258 16.95 4.27591 16.955 4.27175 16.9558C4.20608 16.9684 4.14454 16.9971 4.09258 17.0392C4.08034 17.0509 4.06892 17.0634 4.05841 17.0767C4.02479 17.1123 3.99796 17.1538 3.97925 17.1992C3.97341 17.2125 3.96008 17.2208 3.95591 17.2342L3.37258 19.1008C3.37181 19.1139 3.37181 19.1269 3.37258 19.14C3.36706 19.1674 3.36399 19.1953 3.36341 19.2233C3.36311 19.2493 3.36535 19.2753 3.37008 19.3008C3.37493 19.3265 3.38247 19.3517 3.39258 19.3758C3.40205 19.4007 3.41376 19.4247 3.42758 19.4475C3.44178 19.469 3.45796 19.489 3.47591 19.5075C3.49504 19.528 3.51627 19.5464 3.53925 19.5625C3.55008 19.57 3.55758 19.5817 3.56925 19.5883C3.63221 19.6255 3.6843 19.6785 3.72028 19.7421C3.75627 19.8058 3.77488 19.8777 3.77425 19.9508C3.77414 20.0643 3.73114 20.1736 3.65387 20.2567C3.57661 20.3399 3.47077 20.3907 3.35758 20.3992C3.34758 20.3992 3.33758 20.4042 3.32675 20.4033C3.25617 20.394 3.18437 20.4032 3.11841 20.43C3.11175 20.43 3.10508 20.43 3.09841 20.4358C3.02878 20.4726 2.97099 20.5284 2.93175 20.5967C2.92675 20.605 2.91675 20.6067 2.91258 20.615C2.90841 20.6233 2.90758 20.6383 2.90258 20.6492C2.89758 20.66 2.88758 20.6708 2.88341 20.6842L2.15591 23.0058H1.33341C1.22291 23.0058 1.11693 23.0497 1.03879 23.1279C0.960647 23.206 0.916748 23.312 0.916748 23.4225C0.916748 23.533 0.960647 23.639 1.03879 23.7171C1.11693 23.7953 1.22291 23.8392 1.33341 23.8392H34.6667C34.7773 23.8392 34.8832 23.7953 34.9614 23.7171C35.0395 23.639 35.0834 23.533 35.0834 23.4225C35.0834 23.312 35.0395 23.206 34.9614 23.1279C34.8832 23.0497 34.7773 23.0058 34.6667 23.0058V23.0042ZM32.3826 23.0042H27.1792L26.9784 21.0592H32.5834L32.3826 23.0042ZM33.1384 20.2258H26.4234V19.6425H33.1384V20.2258ZM26.9717 18.8092H26.0067C25.8962 18.8092 25.7903 18.8531 25.7121 18.9312C25.634 19.0093 25.5901 19.1153 25.5901 19.2258V20.6425C25.5901 20.753 25.634 20.859 25.7121 20.9371C25.7903 21.0153 25.8962 21.0592 26.0067 21.0592H26.1409L26.3417 23.0042H23.6492V10.8825L25.3159 7.99499L26.9759 10.8817L26.9717 18.8092ZM9.69925 19.4383C9.69925 19.5372 9.66992 19.6339 9.61498 19.7161C9.56004 19.7983 9.48195 19.8624 9.39059 19.9003C9.29923 19.9381 9.19869 19.948 9.1017 19.9287C9.00471 19.9094 8.91562 19.8618 8.84569 19.7919C8.77577 19.722 8.72815 19.6329 8.70885 19.5359C8.68956 19.4389 8.69946 19.3383 8.73731 19.247C8.77515 19.1556 8.83924 19.0775 8.92146 19.0226C9.00369 18.9676 9.10036 18.9383 9.19925 18.9383C9.26498 18.9379 9.33015 18.9504 9.39104 18.9752C9.45192 19 9.50732 19.0365 9.55407 19.0827C9.60082 19.1289 9.638 19.1839 9.66349 19.2445C9.68897 19.3051 9.70225 19.3701 9.70258 19.4358L9.69925 19.4383ZM7.15841 17.2992L13.3459 16.2367V18.0958L7.15841 17.2992ZM16.0834 7.57832H24.5926L22.9917 10.3542H14.4859L16.0834 7.57832ZM14.1842 11.1875H22.8176V23.0042H14.1826L14.1842 11.1875ZM24.8967 6.74499H16.2576V4.46332H24.8951L24.8967 6.74499ZM12.4909 3.10332L13.3442 5.56166H7.89591L8.74925 3.10332H12.4909ZM7.95091 1.25582H13.2909V2.26999H7.94925L7.95091 1.25582ZM7.03425 8.68666C7.0341 8.26786 7.10453 7.85204 7.24258 7.45666L7.61091 6.39499H13.6359L14.0059 7.45999C14.1431 7.85594 14.214 8.27179 14.2159 8.69082V9.15916L13.4084 10.5625V10.5725C13.3732 10.6328 13.3537 10.701 13.3517 10.7708C13.3517 10.7783 13.3517 10.7842 13.3517 10.7908V15.3892L7.03258 16.4725L7.03425 8.68666ZM3.57425 21.205C3.86259 21.1444 4.12136 20.9866 4.30721 20.758C4.49305 20.5293 4.59469 20.2438 4.59508 19.9492C4.59468 19.6246 4.46865 19.3128 4.24341 19.0792L4.63925 17.8117L8.49091 18.3117C8.2582 18.4577 8.07628 18.6721 7.97005 18.9255C7.86382 19.1789 7.83846 19.4589 7.89744 19.7272C7.95642 19.9956 8.09686 20.2391 8.29955 20.4246C8.50223 20.6101 8.75728 20.7285 9.02979 20.7635C9.3023 20.7985 9.57897 20.7484 9.82197 20.6202C10.065 20.492 10.2624 20.2918 10.3873 20.0471C10.5122 19.8024 10.5584 19.525 10.5197 19.253C10.481 18.981 10.3592 18.7276 10.1709 18.5275L13.3492 18.9375V23.0075H3.01091L3.57425 21.205Z" fill="#50555C"/>
</svg>
