<svg width="40" height="32" viewBox="0 0 40 32" fill="none" xmlns="http://www.w3.org/2000/svg">
<path d="M29.8768 10.7789C29.8784 10.7647 29.885 10.7525 29.885 10.738C29.885 10.7146 29.8758 10.6938 29.8715 10.6718C29.8573 10.4041 29.8385 10.1647 29.8148 9.96527C29.6668 8.72077 28.8911 7.40505 28.2624 6.33758C27.9868 5.87044 27.6746 5.34131 27.6136 5.11088C27.5055 4.70044 27.4537 4.25241 27.429 3.93989C27.5605 3.80604 27.6383 3.62373 27.6383 3.42758V1.94637C27.638 1.58782 27.4954 1.24406 27.2418 0.99053C26.9883 0.736999 26.6446 0.594412 26.286 0.594062H24.336C24.1581 0.593559 23.9818 0.628418 23.8175 0.696614C23.6531 0.76481 23.5039 0.864983 23.3786 0.991315C23.253 1.11642 23.1534 1.26523 23.0856 1.42911C23.0179 1.593 22.9833 1.76871 22.984 1.94604V3.42758C22.984 3.62373 23.0615 3.80571 23.1934 3.93989C23.169 4.25142 23.1169 4.69978 23.0078 5.11088C22.9458 5.34461 22.6323 5.87637 22.3504 6.35439C21.7283 7.40967 20.9546 8.72307 20.8066 9.96461C20.7802 10.199 20.7614 10.4342 20.7502 10.6698C20.7456 10.6925 20.7363 10.7136 20.7363 10.7377C20.7363 10.7529 20.7433 10.7654 20.7449 10.7802C20.6889 11.942 20.7053 13.5903 20.7182 14.8685L20.7205 15.0936C20.7258 15.6343 20.7301 16.0991 20.7268 16.4212C20.7233 16.8146 20.7939 17.2051 20.9348 17.5724C21.1524 18.1437 21.6587 19.6025 21.6587 20.8048C21.6587 21.718 21.4494 22.7825 21.2651 23.7218C21.1 24.5618 20.9575 25.2874 20.9575 25.8705C20.9575 27.1586 21.2622 28.0714 21.8882 28.6615C22.2301 28.9833 22.683 29.1534 23.199 29.1534C23.526 29.1534 23.8639 29.0802 24.1501 28.948L24.1639 28.9418C24.3983 29.1326 24.7131 29.3202 25.0909 29.3825C25.1592 29.3993 25.2324 29.4069 25.3059 29.4039C25.3814 29.4085 25.4571 29.4012 25.5304 29.3825C25.9112 29.3205 26.2339 29.1303 26.4752 28.9371C26.4828 28.9411 26.4911 28.9444 26.499 28.948C26.7983 29.0816 27.1223 29.151 27.4501 29.1518C27.9485 29.1518 28.3919 28.982 28.7328 28.6612C29.3599 28.0718 29.6648 27.1586 29.6648 25.8702C29.6648 25.292 29.5227 24.5697 29.3539 23.7079C29.1706 22.77 28.9626 21.7075 28.9626 20.8045C28.9626 19.6025 29.469 18.1437 29.6866 17.5724C29.8275 17.2047 29.8981 16.8137 29.8946 16.4199C29.891 16.0985 29.8956 15.6336 29.9008 15.0933L29.9025 14.9268C29.9163 13.6309 29.9341 11.9568 29.8768 10.7789ZM21.4629 15.087L21.4606 14.8615C21.4491 13.6962 21.4342 12.2189 21.4738 11.1089H29.1485C29.1891 12.2347 29.1733 13.7364 29.1607 14.9202L29.1591 15.087C29.1543 15.4918 29.1519 15.8967 29.1522 16.3015H21.4695C21.4712 15.9851 21.4672 15.569 21.4629 15.087ZM21.7787 9.1167C21.8022 9.12132 21.8242 9.13088 21.8493 9.13088H28.7724C28.7974 9.13088 28.8195 9.12132 28.8433 9.1167C28.9567 9.43483 29.0424 9.75 29.0783 10.0533C29.0895 10.1476 29.0991 10.2544 29.1083 10.3671H21.5137C21.5226 10.2541 21.5325 10.1469 21.5437 10.053C21.5796 9.75 21.6657 9.43483 21.7787 9.1167ZM22.9946 6.72296C23.3394 6.13879 23.6371 5.63373 23.7255 5.3011C23.826 4.92066 23.8824 4.52538 23.9153 4.18615H25.5274C25.6258 4.18615 25.7201 4.14708 25.7897 4.07752C25.8592 4.00797 25.8983 3.91363 25.8983 3.81527C25.8983 3.71691 25.8592 3.62257 25.7897 3.55302C25.7201 3.48347 25.6258 3.44439 25.5274 3.44439H23.7528C23.7436 3.43945 23.736 3.43252 23.7261 3.42824V1.94571C23.7258 1.78351 23.7887 1.63055 23.9041 1.51549C23.9607 1.45836 24.0281 1.41305 24.1023 1.3822C24.1766 1.35136 24.2563 1.33559 24.3367 1.33582H26.2867C26.6233 1.33582 26.8972 1.60978 26.8972 1.94637L26.9041 3.41769C26.8331 3.44711 26.773 3.49788 26.7322 3.56297C26.6913 3.62806 26.6717 3.70425 26.676 3.78099C26.6974 4.17329 26.7535 4.75582 26.8972 5.30044C26.9846 5.63011 27.281 6.13252 27.6301 6.72461C27.9301 7.23329 28.2663 7.8056 28.5423 8.38912H22.0811C22.3567 7.80692 22.6933 7.23428 22.9946 6.72296ZM28.2212 20.8052C28.2212 21.78 28.4361 22.8801 28.631 23.876C28.7879 24.6745 28.9234 25.3645 28.9234 25.8705C28.9234 26.9433 28.6949 27.6791 28.2248 28.1212C28.0214 28.3131 27.7606 28.4103 27.4504 28.4103C27.2293 28.4097 27.0108 28.3634 26.8085 28.2742C26.7313 28.2388 26.6546 28.2023 26.5784 28.1647C26.5101 28.1312 26.4331 28.1195 26.3579 28.1312C26.2827 28.1429 26.2129 28.1775 26.1581 28.2303C26.0163 28.3668 25.7292 28.6032 25.4005 28.6523C25.3828 28.6549 25.3653 28.6587 25.3481 28.6635C25.323 28.6615 25.2977 28.6613 25.2726 28.6629C25.2567 28.6584 25.2405 28.6549 25.2241 28.6523C24.9152 28.6055 24.6548 28.4011 24.4906 28.2376C24.4357 28.183 24.365 28.1469 24.2886 28.1345C24.2122 28.1221 24.1337 28.1339 24.0644 28.1683C24.0027 28.1987 23.9275 28.2339 23.8395 28.2745C23.6385 28.365 23.4204 28.4116 23.2 28.4113C22.9745 28.4113 22.6527 28.3609 22.3979 28.1209C21.9284 27.6788 21.7003 26.9426 21.7003 25.8702C21.7003 25.3592 21.8361 24.6666 21.9937 23.8645C22.1849 22.8923 22.4015 21.7902 22.4015 20.8048C22.4015 19.4792 21.8608 17.9179 21.6284 17.3083C21.5958 17.2214 21.5683 17.1327 21.546 17.0426H29.077C29.0547 17.1328 29.0272 17.2217 28.9946 17.3087C28.7615 17.9186 28.2212 19.4799 28.2212 20.8052Z" fill="#50555C"/>
<path d="M19.8768 12.7789C19.8784 12.7647 19.885 12.7525 19.885 12.738C19.885 12.7146 19.8758 12.6938 19.8715 12.6718C19.8573 12.4041 19.8385 12.1647 19.8148 11.9653C19.6668 10.7208 18.8911 9.40505 18.2624 8.33758C17.9868 7.87044 17.6746 7.34131 17.6136 7.11088C17.5055 6.70044 17.4537 6.25241 17.429 5.93989C17.5605 5.80604 17.6383 5.62373 17.6383 5.42758V3.94637C17.638 3.58782 17.4954 3.24406 17.2418 2.99053C16.9883 2.737 16.6446 2.59441 16.286 2.59406H14.336C14.1581 2.59356 13.9818 2.62842 13.8175 2.69661C13.6531 2.76481 13.5039 2.86498 13.3786 2.99132C13.253 3.11642 13.1534 3.26523 13.0856 3.42911C13.0179 3.593 12.9833 3.76871 12.984 3.94604V5.42758C12.984 5.62373 13.0615 5.80571 13.1934 5.93989C13.169 6.25142 13.1169 6.69978 13.0078 7.11088C12.9458 7.34461 12.6323 7.87637 12.3504 8.35439C11.7283 9.40967 10.9546 10.7231 10.8066 11.9646C10.7802 12.199 10.7614 12.4342 10.7502 12.6698C10.7456 12.6925 10.7363 12.7136 10.7363 12.7377C10.7363 12.7529 10.7433 12.7654 10.7449 12.7802C10.6889 13.942 10.7053 15.5903 10.7182 16.8685L10.7205 17.0936C10.7258 17.6343 10.7301 18.0991 10.7268 18.4212C10.7233 18.8146 10.7939 19.2051 10.9348 19.5724C11.1524 20.1437 11.6587 21.6025 11.6587 22.8048C11.6587 23.718 11.4494 24.7825 11.2651 25.7218C11.1 26.5618 10.9575 27.2874 10.9575 27.8705C10.9575 29.1586 11.2622 30.0714 11.8882 30.6615C12.2301 30.9833 12.683 31.1534 13.199 31.1534C13.526 31.1534 13.8639 31.0802 14.1501 30.948L14.1639 30.9418C14.3983 31.1326 14.7131 31.3202 15.0909 31.3825C15.1592 31.3993 15.2324 31.4069 15.3059 31.4039C15.3814 31.4085 15.4571 31.4012 15.5304 31.3825C15.9112 31.3205 16.2339 31.1303 16.4752 30.9371C16.4828 30.9411 16.4911 30.9444 16.499 30.948C16.7983 31.0816 17.1223 31.151 17.4501 31.1518C17.9485 31.1518 18.3919 30.982 18.7328 30.6612C19.3599 30.0718 19.6648 29.1586 19.6648 27.8702C19.6648 27.292 19.5227 26.5697 19.3539 25.7079C19.1706 24.77 18.9626 23.7075 18.9626 22.8045C18.9626 21.6025 19.469 20.1437 19.6866 19.5724C19.8275 19.2047 19.8981 18.8137 19.8946 18.4199C19.891 18.0985 19.8956 17.6336 19.9008 17.0933L19.9025 16.9268C19.9163 15.6309 19.9341 13.9568 19.8768 12.7789ZM11.4629 17.087L11.4606 16.8615C11.4491 15.6962 11.4342 14.2189 11.4738 13.1089H19.1485C19.1891 14.2347 19.1733 15.7364 19.1607 16.9202L19.1591 17.087C19.1543 17.4918 19.1519 17.8967 19.1522 18.3015H11.4695C11.4712 17.9851 11.4672 17.569 11.4629 17.087ZM11.7787 11.1167C11.8022 11.1213 11.8242 11.1309 11.8493 11.1309H18.7724C18.7974 11.1309 18.8195 11.1213 18.8433 11.1167C18.9567 11.4348 19.0424 11.75 19.0783 12.0533C19.0895 12.1476 19.0991 12.2544 19.1083 12.3671H11.5137C11.5226 12.2541 11.5325 12.1469 11.5437 12.053C11.5796 11.75 11.6657 11.4348 11.7787 11.1167ZM12.9946 8.72296C13.3394 8.13879 13.6371 7.63373 13.7255 7.3011C13.826 6.92066 13.8824 6.52538 13.9153 6.18615H15.5274C15.6258 6.18615 15.7201 6.14708 15.7897 6.07752C15.8592 6.00797 15.8983 5.91363 15.8983 5.81527C15.8983 5.71691 15.8592 5.62257 15.7897 5.55302C15.7201 5.48347 15.6258 5.44439 15.5274 5.44439H13.7528C13.7436 5.43945 13.736 5.43252 13.7261 5.42824V3.94571C13.7258 3.78351 13.7887 3.63055 13.9041 3.51549C13.9607 3.45836 14.0281 3.41305 14.1023 3.3822C14.1766 3.35136 14.2563 3.33559 14.3367 3.33582H16.2867C16.6233 3.33582 16.8972 3.60978 16.8972 3.94637L16.9041 5.41769C16.8331 5.44711 16.773 5.49788 16.7322 5.56297C16.6913 5.62806 16.6717 5.70425 16.676 5.78099C16.6974 6.17329 16.7535 6.75582 16.8972 7.30044C16.9846 7.63011 17.281 8.13252 17.6301 8.72461C17.9301 9.23329 18.2663 9.8056 18.5423 10.3891H12.0811C12.3567 9.80692 12.6933 9.23428 12.9946 8.72296ZM18.2212 22.8052C18.2212 23.78 18.4361 24.8801 18.631 25.876C18.7879 26.6745 18.9234 27.3645 18.9234 27.8705C18.9234 28.9433 18.6949 29.6791 18.2248 30.1212C18.0214 30.3131 17.7606 30.4103 17.4504 30.4103C17.2293 30.4097 17.0108 30.3634 16.8085 30.2742C16.7313 30.2388 16.6546 30.2023 16.5784 30.1647C16.5101 30.1312 16.4331 30.1195 16.3579 30.1312C16.2827 30.1429 16.2129 30.1775 16.1581 30.2303C16.0163 30.3668 15.7292 30.6032 15.4005 30.6523C15.3828 30.6549 15.3653 30.6587 15.3481 30.6635C15.323 30.6615 15.2977 30.6613 15.2726 30.6629C15.2567 30.6584 15.2405 30.6549 15.2241 30.6523C14.9152 30.6055 14.6548 30.4011 14.4906 30.2376C14.4357 30.183 14.365 30.1469 14.2886 30.1345C14.2122 30.1221 14.1337 30.1339 14.0644 30.1683C14.0027 30.1987 13.9275 30.2339 13.8395 30.2745C13.6385 30.365 13.4204 30.4116 13.2 30.4113C12.9745 30.4113 12.6527 30.3609 12.3979 30.1209C11.9284 29.6788 11.7003 28.9426 11.7003 27.8702C11.7003 27.3592 11.8361 26.6666 11.9937 25.8645C12.1849 24.8923 12.4015 23.7902 12.4015 22.8048C12.4015 21.4792 11.8608 19.9179 11.6284 19.3083C11.5958 19.2214 11.5683 19.1327 11.546 19.0426H19.077C19.0547 19.1328 19.0272 19.2217 18.9946 19.3087C18.7615 19.9186 18.2212 21.4799 18.2212 22.8052Z" fill="#50555C"/>
</svg>
