<svg width="16" height="17" viewBox="0 0 16 17" fill="none" xmlns="http://www.w3.org/2000/svg">
    <path d="M11.25 7C11.25 7.4142 11.5858 7.75 12 7.75C12.4142 7.75 12.75 7.4142 12.75 7H11.25ZM3.25 7C3.25 7.4142 3.58579 7.75 4 7.75C4.41421 7.75 4.75 7.4142 4.75 7H3.25ZM7.0077 9.433L7.3798 8.7818L7.0077 9.433ZM8.9923 9.433L9.3644 10.0842L8.9923 9.433ZM14.25 6V14H15.75V6H14.25ZM13 15.25H3V16.75H13V15.25ZM1.75 14V6H0.25V14H1.75ZM13 3.25H12.5V4.75H13V3.25ZM3.5 3.25H3V4.75H3.5V3.25ZM3 15.25C2.30964 15.25 1.75 14.6904 1.75 14H0.25C0.25 15.5188 1.48122 16.75 3 16.75V15.25ZM14.25 14C14.25 14.6904 13.6904 15.25 13 15.25V16.75C14.5188 16.75 15.75 15.5188 15.75 14H14.25ZM15.75 6C15.75 4.48122 14.5188 3.25 13 3.25V4.75C13.6904 4.75 14.25 5.30964 14.25 6H15.75ZM1.75 6C1.75 5.30964 2.30964 4.75 3 4.75V3.25C1.48122 3.25 0.25 4.48122 0.25 6H1.75ZM11.25 3V7H12.75V3H11.25ZM4.75 7V3H3.25V7H4.75ZM10 0.25H6V1.75H10V0.25ZM12.75 3C12.75 1.48122 11.5188 0.25 10 0.25V1.75C10.6904 1.75 11.25 2.30964 11.25 3H12.75ZM4.75 3C4.75 2.30964 5.30964 1.75 6 1.75V0.25C4.48122 0.25 3.25 1.48122 3.25 3H4.75ZM0.6279 6.65118L6.6356 10.0842L7.3798 8.7818L1.3721 5.34882L0.6279 6.65118ZM9.3644 10.0842L15.3721 6.65118L14.6279 5.34882L8.6202 8.7818L9.3644 10.0842ZM6.6356 10.0842C7.4811 10.5673 8.5189 10.5673 9.3644 10.0842L8.6202 8.7818C8.2359 9.0014 7.7641 9.0014 7.3798 8.7818L6.6356 10.0842Z" fill="#252837"/>
</svg>
