<svg width="20" height="20" viewBox="0 0 20 20" fill="none" xmlns="http://www.w3.org/2000/svg">
    <path d="M15.8333 11.6667V15H14.1667V11.6667H15.8333ZM5.83333 11.6667V15H5C4.54167 15 4.16667 14.625 4.16667 14.1667V11.6667H5.83333ZM10 0.833374C5.85833 0.833374 2.5 4.19171 2.5 8.33337V14.1667C2.5 15.55 3.61667 16.6667 5 16.6667H7.5V10H4.16667V8.33337C4.16667 5.10837 6.775 2.50004 10 2.50004C13.225 2.50004 15.8333 5.10837 15.8333 8.33337V10H12.5V16.6667H15.8333V17.5H10V19.1667H15C16.3833 19.1667 17.5 18.05 17.5 16.6667V8.33337C17.5 4.19171 14.1417 0.833374 10 0.833374Z" fill="#252837"/>
</svg>
