<svg width="21" height="25" viewBox="0 0 21 25" fill="none" xmlns="http://www.w3.org/2000/svg">
<path d="M7.97701 1.74316H2.62374C2.34762 1.74316 2.12374 1.9668 2.12374 2.24316V4.52393H1.26412C1.12496 4.52393 0.992148 4.58203 0.897665 4.68359C0.802939 4.78564 0.755087 4.92236 0.765585 5.06104L2.13521 23.3481C2.18331 23.9941 2.72848 24.5 3.37618 24.5H7.22457C7.87203 24.5 8.4172 23.9941 8.46529 23.3481L9.83492 5.06104C9.84542 4.92236 9.79757 4.78564 9.70284 4.68359C9.60836 4.58203 9.47555 4.52393 9.33639 4.52393H8.47701V2.24316C8.47701 1.9668 8.25314 1.74316 7.97701 1.74316ZM3.12374 2.74316H7.47701V4.52246H3.12374V2.74316ZM7.99322 16.2642C7.23296 16.6412 6.29375 16.856 5.30025 16.856C4.30697 16.856 3.36776 16.6412 2.60729 16.2642L2.35424 12.885C3.14065 12.4285 4.19433 12.1685 5.30025 12.1685C6.40618 12.1685 7.45986 12.4285 8.24627 12.885L7.99322 16.2642ZM7.22457 23.5H3.37618C3.24898 23.5 3.14181 23.4004 3.13228 23.2739L2.69225 17.3984C3.47753 17.6943 4.37475 17.856 5.30025 17.856C6.22588 17.856 7.12307 17.6943 7.90826 17.3985L7.46822 23.2739C7.4587 23.4004 7.35177 23.5 7.22457 23.5ZM8.32763 11.799C7.45681 11.3904 6.41137 11.1685 5.30025 11.1685C4.18914 11.1685 3.1437 11.3904 2.27288 11.799L1.80294 5.52393H8.79757L8.32763 11.799ZM19.7358 14.8843H18.7363V14.1997C18.7363 13.3721 18.063 12.6987 17.2356 12.6987H16.643V8.76172H16.8337C17.1098 8.76172 17.3337 8.53809 17.3337 8.26172C17.3337 7.98535 17.1098 7.76172 16.8337 7.76172H16.643V6.66064H17.125C17.4011 6.66064 17.625 6.43701 17.625 6.16064C17.625 5.88428 17.4011 5.66064 17.125 5.66064H16.643V4.55957H17.125C17.4011 4.55957 17.625 4.33594 17.625 4.05957C17.625 3.7832 17.4011 3.55957 17.125 3.55957H16.643V2.4585H16.8337C17.1098 2.4585 17.3337 2.23486 17.3337 1.9585C17.3337 1.68213 17.1098 1.4585 16.8337 1.4585H16.643V1C16.643 0.723633 16.4192 0.5 16.143 0.5C15.8669 0.5 15.643 0.723633 15.643 1V1.4585H15.4521C15.176 1.4585 14.9521 1.68213 14.9521 1.9585C14.9521 2.23486 15.176 2.4585 15.4521 2.4585H15.643V3.55957H15.1609C14.8847 3.55957 14.6609 3.7832 14.6609 4.05957C14.6609 4.33594 14.8847 4.55957 15.1609 4.55957H15.643V5.66064H15.1609C14.8847 5.66064 14.6609 5.88428 14.6609 6.16064C14.6609 6.43701 14.8847 6.66064 15.1609 6.66064H15.643V7.76172H15.4521C15.176 7.76172 14.9521 7.98535 14.9521 8.26172C14.9521 8.53809 15.176 8.76172 15.4521 8.76172H15.643V12.6987H15.0503C14.2229 12.6987 13.5495 13.3721 13.5495 14.1997V14.8843H12.5503C12.4065 14.8843 12.2695 14.9463 12.1745 15.0542C12.0796 15.1626 12.0358 15.3062 12.0544 15.4487L13.0488 23.0698C13.1555 23.8853 13.8559 24.5 14.6779 24.5H17.6079C18.4304 24.5 19.1306 23.8853 19.237 23.0693V23.0698L20.2317 15.4492C20.2502 15.3062 20.2065 15.1626 20.1115 15.0542C20.0166 14.9463 19.8796 14.8843 19.7358 14.8843ZM14.5495 14.1997C14.5495 13.9233 14.7741 13.6987 15.0503 13.6987H17.2356C17.5117 13.6987 17.7363 13.9233 17.7363 14.1997V14.8843H14.5495V14.1997V14.1997ZM18.2453 22.9399C18.2453 22.9404 18.2453 22.9404 18.2453 22.9404C18.2038 23.2593 17.9296 23.5 17.6079 23.5H14.6779C14.3562 23.5 14.0822 23.2593 14.0405 22.9404L13.1198 15.8843H14.0495H18.2363H19.1662L18.2453 22.9399Z" fill="#50555C"/>
</svg>
