<svg width="28" height="28" viewBox="0 0 28 28" fill="none" xmlns="http://www.w3.org/2000/svg">
<path d="M23.9238 1.66437H21.0763V1.25C21.0763 1.1091 21.0203 0.973978 20.9207 0.87435C20.8211 0.774721 20.686 0.71875 20.5451 0.71875C20.4042 0.71875 20.269 0.774721 20.1694 0.87435C20.0698 0.973978 20.0138 1.1091 20.0138 1.25V1.66437H13.6707V1.25C13.6707 1.1091 13.6147 0.973978 13.5151 0.87435C13.4155 0.774721 13.2803 0.71875 13.1394 0.71875C12.9985 0.71875 12.8634 0.774721 12.7638 0.87435C12.6642 0.973978 12.6082 1.1091 12.6082 1.25V1.66437H6.07381V1.25C6.07381 1.1091 6.01784 0.973978 5.91821 0.87435C5.81858 0.774721 5.68346 0.71875 5.54256 0.71875C5.40166 0.71875 5.26654 0.774721 5.16691 0.87435C5.06728 0.973978 5.01131 1.1091 5.01131 1.25V1.66437H4.07631C3.2215 1.65778 2.39647 1.97799 1.76993 2.55954C1.1434 3.14108 0.762705 3.94002 0.705707 4.79295C0.64871 5.64588 0.919715 6.48836 1.4633 7.1481C2.00688 7.80784 2.78197 8.23499 3.63006 8.34219V24.0141C3.63006 24.8806 3.97428 25.7116 4.587 26.3243C5.19971 26.937 6.03073 27.2812 6.89725 27.2812H7.7685C8.21475 27.2812 8.54412 26.9997 8.75131 26.4472C10.1165 22.7312 10.1165 18.651 8.75131 14.935C8.54412 14.4037 8.22006 14.1063 7.7685 14.1063H7.15756V14.0531C7.24224 13.9919 7.31743 13.9185 7.38069 13.8353C7.46399 13.713 7.51705 13.5726 7.53553 13.4258C7.554 13.2789 7.53734 13.1298 7.48693 12.9906L6.90256 11.4288C6.8193 11.2086 6.78984 10.9718 6.81664 10.738C6.84344 10.5042 6.92572 10.2802 7.05662 10.0847C7.39371 9.57042 7.60651 8.98477 7.67818 8.37406H11.0144V25.7991C11.0118 26.0225 11.058 26.2437 11.1498 26.4474C11.2416 26.6511 11.3767 26.8323 11.5457 26.9784C11.6947 27.1036 11.87 27.1934 12.0586 27.2413C12.2472 27.2891 12.4441 27.2937 12.6347 27.2547C13.985 26.972 15.1954 26.2297 16.0595 25.1543C16.9236 24.079 17.388 22.7372 17.3735 21.3578V13.3253C17.3765 12.9883 17.2475 12.6636 17.0143 12.4204C16.781 12.1772 16.4619 12.0348 16.1251 12.0238H14.7332C14.7578 11.6661 14.7218 11.3069 14.6269 10.9613L14.4091 10.1803C14.32 9.94366 14.2884 9.68919 14.317 9.43793C14.3457 9.18667 14.4337 8.94583 14.5738 8.73531C14.6482 8.62375 14.7066 8.50156 14.7704 8.38469H18.6113V24.4072C18.6113 26.0009 19.6738 27.2812 21.0338 27.2812H24.6251C24.9447 27.2602 25.2485 27.135 25.4903 26.9249C25.732 26.7148 25.8984 26.4313 25.9638 26.1178C26.3883 24.0056 26.5896 21.8546 26.5641 19.7003C26.5896 17.546 26.3883 15.395 25.9638 13.2828C25.8986 12.9687 25.7325 12.6845 25.4908 12.4735C25.2491 12.2625 24.9451 12.1363 24.6251 12.1141H22.2982L21.6501 10.5947C21.579 10.4058 21.554 10.2027 21.5771 10.0022C21.6002 9.80174 21.6707 9.60965 21.7829 9.44188C21.9971 9.11638 22.1551 8.75722 22.2504 8.37937H23.9238C24.3756 8.39736 24.8264 8.3239 25.2491 8.1634C25.6718 8.00291 26.0577 7.75869 26.3838 7.44539C26.7098 7.13209 26.9692 6.75617 27.1463 6.34018C27.3235 5.92418 27.4148 5.47669 27.4148 5.02453C27.4148 4.57238 27.3235 4.12488 27.1463 3.70889C26.9692 3.29289 26.7098 2.91697 26.3838 2.60367C26.0577 2.29037 25.6718 2.04615 25.2491 1.88566C24.8264 1.72516 24.3756 1.65171 23.9238 1.66969V1.66437ZM1.78131 5.02188C1.78271 4.41363 2.02496 3.83071 2.45505 3.40061C2.88514 2.97052 3.46807 2.72828 4.07631 2.72687H5.01131V3.45469C4.67987 3.56338 4.383 3.75763 4.15069 4.01781C3.97022 4.2143 3.83039 4.44452 3.73921 4.69525C3.64804 4.94597 3.60734 5.21224 3.61944 5.47875V7.26906C3.10099 7.16374 2.63484 6.88255 2.29989 6.47305C1.96494 6.06355 1.78174 5.55091 1.78131 5.02188ZM6.16944 9.50031C5.94757 9.83591 5.8079 10.2191 5.76175 10.6187C5.7156 11.0184 5.76427 11.4233 5.90381 11.8006L6.43506 13.1659H4.69256V7.85344V5.43625C4.68817 5.30509 4.71039 5.1744 4.75787 5.05206C4.80534 4.92971 4.8771 4.81824 4.96881 4.72437L5.03787 4.66062V5.30344C5.03787 5.44433 5.09384 5.57946 5.19347 5.67909C5.2931 5.77872 5.42823 5.83469 5.56912 5.83469C5.71002 5.83469 5.84514 5.77872 5.94477 5.67909C6.0444 5.57946 6.10037 5.44433 6.10037 5.30344V4.5225C6.2738 4.61111 6.41954 4.74568 6.52166 4.91152C6.62378 5.07735 6.67836 5.26806 6.67943 5.46281C6.56256 7.44969 6.91318 8.36875 6.16944 9.50031ZM4.69256 24.0141V14.2284H6.09506V14.6375C6.10006 14.6986 6.11073 14.759 6.12694 14.8181C7.32756 18.0747 7.32225 22.5319 6.12694 26.0806C5.82053 25.9679 5.54422 25.7861 5.31943 25.5494C4.91522 25.1409 4.68974 24.5887 4.69256 24.0141ZM7.75256 15.3016C9.02752 18.7815 9.02752 22.6007 7.75256 26.0806C7.73636 26.128 7.71683 26.1741 7.69412 26.2188H7.22662C8.32251 22.6235 8.37043 18.7903 7.36475 15.1688H7.69412C7.71609 15.2119 7.7356 15.2562 7.75256 15.3016ZM7.71537 7.33281V5.46281C7.71237 4.98556 7.5488 4.52322 7.25102 4.15026C6.95323 3.7773 6.53856 3.51544 6.07381 3.40688V2.72687H12.6082V3.41219C12.1532 3.52967 11.75 3.79465 11.4616 4.16569C11.1732 4.53673 11.016 4.99289 11.0144 5.46281V7.31156L7.71537 7.33281ZM12.0769 25.7725V15.3016H12.1354C12.2846 15.3017 12.4323 15.2722 12.5701 15.2147C12.7078 15.1573 12.8327 15.073 12.9376 14.9669L13.8513 14C14.1091 13.7271 14.3192 13.4128 14.4729 13.0703C14.5311 13.0744 14.5855 13.1012 14.6242 13.1449C14.6629 13.1886 14.683 13.2457 14.6801 13.3041V21.3578C14.6817 22.2566 14.4407 23.1392 13.9826 23.9124C13.5244 24.6857 12.866 25.321 12.0769 25.7512V25.7725ZM14.2019 6.45625C14.1958 7.06447 14.0111 7.65749 13.6707 8.16156C13.443 8.50547 13.2986 8.89766 13.2488 9.30707C13.199 9.71648 13.2452 10.1319 13.3838 10.5203L13.591 11.2587C13.6885 11.6164 13.6908 11.9933 13.5976 12.3521C13.5044 12.7109 13.319 13.0391 13.0597 13.3041L12.1513 14.2497C12.1431 14.2584 12.1325 14.2643 12.1209 14.2668C12.1092 14.2693 12.0971 14.2681 12.0861 14.2635C12.0751 14.2589 12.0658 14.251 12.0594 14.2409C12.053 14.2309 12.0499 14.2191 12.0504 14.2072V5.46281C12.0564 5.32047 12.0911 5.1808 12.1522 5.05212C12.2134 4.92344 12.2998 4.80836 12.4063 4.71375C12.472 4.64801 12.5472 4.59249 12.6294 4.54906V5.30344C12.6294 5.44433 12.6854 5.57946 12.785 5.67909C12.8847 5.77872 13.0198 5.83469 13.1607 5.83469C13.3016 5.83469 13.4367 5.77872 13.5363 5.67909C13.636 5.57946 13.6919 5.44433 13.6919 5.30344V4.54906C13.8525 4.64177 13.986 4.77489 14.0792 4.93519C14.1724 5.09549 14.2221 5.27739 14.2232 5.46281L14.2019 6.45625ZM16.3269 13.3625V21.3578C16.3307 22.1824 16.1299 22.995 15.7423 23.7229C15.3547 24.4507 14.7926 25.071 14.1063 25.5281C15.164 24.397 15.7526 22.9064 15.7532 21.3578V13.3253C15.7611 13.2458 15.7611 13.1657 15.7532 13.0863H16.1251C16.1809 13.0954 16.2313 13.1248 16.2667 13.169C16.302 13.2132 16.3197 13.2689 16.3163 13.3253L16.3269 13.3625ZM15.1582 7.31156C15.2255 7.02414 15.2612 6.73019 15.2644 6.435V5.46281C15.2629 4.99289 15.1057 4.53673 14.8173 4.16569C14.5289 3.79465 14.1257 3.52967 13.6707 3.41219V2.72687H20.0138V3.40156C19.6033 3.5093 19.2414 3.7527 18.9867 4.0922C18.7321 4.4317 18.5998 4.84734 18.6113 5.27156V7.31156H15.1582ZM19.6738 24.4072V13.1766H22.8188C22.8935 13.2004 22.9608 13.2434 23.0139 13.3011C23.067 13.3589 23.1041 13.4295 23.1216 13.5059C23.5284 15.5451 23.7207 17.6212 23.6954 19.7003C23.7205 21.7777 23.5282 23.852 23.1216 25.8894C23.1051 25.9663 23.0683 26.0374 23.0151 26.0953C22.9618 26.1532 22.8941 26.1959 22.8188 26.2188H21.0338C20.2847 26.2188 19.6738 25.4059 19.6738 24.4072ZM24.9066 13.5059C25.3182 15.5444 25.5123 17.6208 25.4857 19.7003C25.5133 21.7781 25.3192 23.8528 24.9066 25.8894C24.893 25.9643 24.8598 26.0342 24.8103 26.0921C24.7609 26.15 24.6969 26.1937 24.6251 26.2188H24.1416C24.5772 24.7472 24.7738 21.5331 24.7738 19.7003C24.7738 17.8675 24.5719 14.6163 24.1416 13.1766H24.6251C24.6966 13.2021 24.7603 13.246 24.8097 13.3038C24.8591 13.3615 24.8925 13.4312 24.9066 13.5059ZM19.6738 12.1141V5.25562C19.6687 5.14695 19.6854 5.03835 19.7228 4.93618C19.7602 4.83402 19.8176 4.74034 19.8916 4.66062L20.0138 4.55438V5.30344C20.0138 5.44433 20.0698 5.57946 20.1694 5.67909C20.269 5.77872 20.4042 5.83469 20.5451 5.83469C20.686 5.83469 20.8211 5.77872 20.9207 5.67909C21.0203 5.57946 21.0763 5.44433 21.0763 5.30344V4.67656C21.2301 4.83639 21.3159 5.04973 21.3154 5.27156V7.455C21.3192 7.9508 21.177 8.43676 20.9063 8.85219C20.7024 9.16279 20.5749 9.51727 20.5342 9.88661C20.4936 10.256 20.541 10.6297 20.6726 10.9772L21.156 12.1034L19.6738 12.1141ZM23.9238 7.33281H22.3779V5.27156C22.3765 4.87106 22.2504 4.48093 22.0171 4.15535C21.7839 3.82976 21.4551 3.58488 21.0763 3.45469V2.72687H23.9238C24.2341 2.71193 24.5443 2.76015 24.8354 2.86861C25.1265 2.97707 25.3926 3.14351 25.6175 3.35784C25.8424 3.57217 26.0214 3.82994 26.1438 4.11552C26.2661 4.4011 26.3292 4.70854 26.3292 5.01922C26.3292 5.3299 26.2661 5.63734 26.1438 5.92292C26.0214 6.2085 25.8424 6.46626 25.6175 6.6806C25.3926 6.89493 25.1265 7.06137 24.8354 7.16983C24.5443 7.27829 24.2341 7.32651 23.9238 7.31156V7.33281Z" fill="#50555C"/>
</svg>
