<svg width="26" height="26" viewBox="0 0 26 26" fill="none" xmlns="http://www.w3.org/2000/svg">
<path d="M6.06667 7.29777V0.433333C6.06667 0.318406 6.02101 0.208186 5.93975 0.12692C5.85848 0.0456546 5.74826 0 5.63333 0H3.03333C2.91841 0 2.80819 0.0456546 2.72692 0.12692C2.64565 0.208186 2.6 0.318406 2.6 0.433333V7.29777C1.82801 7.63535 1.17103 8.19045 0.709313 8.89526C0.247596 9.60007 0.00112391 10.4241 0 11.2667V24.7C0 25.0448 0.136964 25.3754 0.380761 25.6192C0.624559 25.863 0.955219 26 1.3 26H7.36667C7.71145 26 8.04211 25.863 8.28591 25.6192C8.5297 25.3754 8.66667 25.0448 8.66667 24.7V11.2667C8.66554 10.4241 8.41907 9.60007 7.95735 8.89526C7.49564 8.19045 6.83866 7.63535 6.06667 7.29777ZM3.46667 0.866667H5.2V3.03333H3.46667V0.866667ZM3.46667 3.9H5.2V7.02C4.62809 6.90352 4.03857 6.90352 3.46667 7.02V3.9ZM7.8 17.7667H0.866667V12.5667H7.8V17.7667ZM7.36667 25.1333H1.3C1.18507 25.1333 1.07485 25.0877 0.993587 25.0064C0.912321 24.9251 0.866667 24.8149 0.866667 24.7V18.6333H7.8V24.7C7.8 24.8149 7.75435 24.9251 7.67308 25.0064C7.59181 25.0877 7.48159 25.1333 7.36667 25.1333ZM7.8 11.7H0.866667V11.2667C0.866667 10.3472 1.2319 9.46549 1.88203 8.81536C2.53216 8.16524 3.41392 7.8 4.33333 7.8C5.25275 7.8 6.13451 8.16524 6.78464 8.81536C7.43476 9.46549 7.8 10.3472 7.8 11.2667V11.7Z" fill="#50555C"/>
<path d="M14.3001 7.18857V0.433333C14.3001 0.318406 14.2545 0.208186 14.1732 0.12692C14.0919 0.0456546 13.9817 0 13.8668 0H12.1334C12.0185 0 11.9083 0.0456546 11.827 0.12692C11.7458 0.208186 11.7001 0.318406 11.7001 0.433333V7.18857C11.0606 7.44782 10.5129 7.89181 10.127 8.46384C9.74107 9.03587 9.53442 9.70996 9.53345 10.4V24.7C9.53345 25.0448 9.67041 25.3754 9.91421 25.6192C10.158 25.863 10.4887 26 10.8334 26H15.1668C15.5116 26 15.8422 25.863 16.086 25.6192C16.3298 25.3754 16.4668 25.0448 16.4668 24.7V10.4C16.4658 9.70996 16.2592 9.03587 15.8732 8.46384C15.4873 7.89181 14.9396 7.44782 14.3001 7.18857ZM12.5668 0.866667H13.4334V2.16667H12.5668V0.866667ZM12.5668 3.03333H13.4334V6.96323C13.146 6.9231 12.8543 6.9231 12.5668 6.96323V3.03333ZM15.6001 24.7C15.6001 24.8149 15.5545 24.9251 15.4732 25.0064C15.3919 25.0877 15.2817 25.1333 15.1668 25.1333H10.8334C10.7185 25.1333 10.6083 25.0877 10.527 25.0064C10.4458 24.9251 10.4001 24.8149 10.4001 24.7V10.4C10.4001 9.71044 10.674 9.04912 11.1616 8.56152C11.6492 8.07393 12.3106 7.8 13.0001 7.8C13.6897 7.8 14.351 8.07393 14.8386 8.56152C15.3262 9.04912 15.6001 9.71044 15.6001 10.4V24.7Z" fill="#50555C"/>
<path d="M12.9999 11.2667C12.6571 11.2667 12.322 11.3683 12.0369 11.5588C11.7519 11.7492 11.5297 12.02 11.3985 12.3367C11.2674 12.6534 11.233 13.0019 11.2999 13.3382C11.3668 13.6744 11.5319 13.9832 11.7743 14.2256C12.0167 14.4681 12.3255 14.6331 12.6618 14.7C12.998 14.7669 13.3465 14.7326 13.6633 14.6014C13.98 14.4702 14.2507 14.248 14.4411 13.963C14.6316 13.6779 14.7333 13.3428 14.7333 13C14.7333 12.5403 14.5507 12.0994 14.2256 11.7743C13.9005 11.4493 13.4596 11.2667 12.9999 11.2667ZM12.9999 13.8667C12.8285 13.8667 12.661 13.8158 12.5184 13.7206C12.3759 13.6254 12.2648 13.49 12.1992 13.3317C12.1336 13.1733 12.1165 12.999 12.1499 12.8309C12.1834 12.6628 12.2659 12.5084 12.3871 12.3872C12.5083 12.266 12.6627 12.1834 12.8309 12.15C12.999 12.1165 13.1732 12.1337 13.3316 12.1993C13.49 12.2649 13.6253 12.376 13.7205 12.5185C13.8158 12.661 13.8666 12.8286 13.8666 13C13.8666 13.2299 13.7753 13.4503 13.6128 13.6128C13.4502 13.7754 13.2298 13.8667 12.9999 13.8667Z" fill="#50555C"/>
<path d="M14.2999 21.2333H11.6999C11.585 21.2333 11.4748 21.279 11.3935 21.3603C11.3123 21.4415 11.2666 21.5517 11.2666 21.6667V23.4C11.2666 23.5149 11.3123 23.6252 11.3935 23.7064C11.4748 23.7877 11.585 23.8333 11.6999 23.8333H14.2999C14.4149 23.8333 14.5251 23.7877 14.6063 23.7064C14.6876 23.6252 14.7333 23.5149 14.7333 23.4V21.6667C14.7333 21.5517 14.6876 21.4415 14.6063 21.3603C14.5251 21.279 14.4149 21.2333 14.2999 21.2333ZM13.8666 22.9667H12.1333V22.1H13.8666V22.9667Z" fill="#50555C"/>
<path d="M23.3999 7.29777V0.433333C23.3999 0.318406 23.3543 0.208186 23.273 0.12692C23.1917 0.0456546 23.0815 0 22.9666 0H20.3666C20.2517 0 20.1414 0.0456546 20.0602 0.12692C19.9789 0.208186 19.9333 0.318406 19.9333 0.433333V7.29777C19.1613 7.63535 18.5043 8.19045 18.0426 8.89526C17.5808 9.60007 17.3344 10.4241 17.3333 11.2667V24.7C17.3333 25.0448 17.4702 25.3754 17.714 25.6192C17.9578 25.863 18.2885 26 18.6333 26H24.6999C25.0447 26 25.3754 25.863 25.6192 25.6192C25.863 25.3754 25.9999 25.0448 25.9999 24.7V11.2667C25.9988 10.4241 25.7523 9.60007 25.2906 8.89526C24.8289 8.19045 24.1719 7.63535 23.3999 7.29777ZM20.7999 0.866667H22.5333V2.6H20.7999V0.866667ZM20.7999 3.46667H22.5333V7.02C21.9613 6.90352 21.3718 6.90352 20.7999 7.02V3.46667ZM25.1333 24.7C25.1333 24.8149 25.0876 24.9251 25.0063 25.0064C24.9251 25.0877 24.8148 25.1333 24.6999 25.1333H18.6333C18.5183 25.1333 18.4081 25.0877 18.3268 25.0064C18.2456 24.9251 18.1999 24.8149 18.1999 24.7V11.2667C18.1999 10.3472 18.5652 9.46549 19.2153 8.81536C19.8654 8.16524 20.7472 7.8 21.6666 7.8C22.586 7.8 23.4678 8.16524 24.1179 8.81536C24.768 9.46549 25.1333 10.3472 25.1333 11.2667V24.7Z" fill="#50555C"/>
<path d="M21.6667 9.96666C20.9773 9.96746 20.3165 10.2416 19.8291 10.7291C19.3416 11.2165 19.0675 11.8773 19.0667 12.5667V18.2C19.0667 18.8896 19.3406 19.5509 19.8282 20.0385C20.3158 20.5261 20.9771 20.8 21.6667 20.8C22.3562 20.8 23.0175 20.5261 23.5051 20.0385C23.9927 19.5509 24.2667 18.8896 24.2667 18.2V12.5667C24.2658 11.8773 23.9917 11.2165 23.5042 10.7291C23.0168 10.2416 22.356 9.96746 21.6667 9.96666ZM23.4 18.2C23.4 18.6597 23.2174 19.1006 22.8923 19.4256C22.5672 19.7507 22.1264 19.9333 21.6667 19.9333C21.2069 19.9333 20.7661 19.7507 20.441 19.4256C20.1159 19.1006 19.9333 18.6597 19.9333 18.2V12.5667C19.9333 12.107 20.1159 11.6661 20.441 11.341C20.7661 11.0159 21.2069 10.8333 21.6667 10.8333C22.1264 10.8333 22.5672 11.0159 22.8923 11.341C23.2174 11.6661 23.4 12.107 23.4 12.5667V18.2Z" fill="#50555C"/>
<path d="M23.8333 21.6667H19.5C19.3851 21.6667 19.2748 21.7123 19.1936 21.7936C19.1123 21.8748 19.0667 21.9851 19.0667 22.1C19.0667 22.2149 19.1123 22.3251 19.1936 22.4064C19.2748 22.4877 19.3851 22.5333 19.5 22.5333H23.8333C23.9482 22.5333 24.0585 22.4877 24.1397 22.4064C24.221 22.3251 24.2667 22.2149 24.2667 22.1C24.2667 21.9851 24.221 21.8748 24.1397 21.7936C24.0585 21.7123 23.9482 21.6667 23.8333 21.6667Z" fill="#50555C"/>
<path d="M23.8333 23.4H19.5C19.3851 23.4 19.2748 23.4457 19.1936 23.5269C19.1123 23.6082 19.0667 23.7184 19.0667 23.8333C19.0667 23.9483 19.1123 24.0585 19.1936 24.1397C19.2748 24.221 19.3851 24.2667 19.5 24.2667H23.8333C23.9482 24.2667 24.0585 24.221 24.1397 24.1397C24.221 24.0585 24.2667 23.9483 24.2667 23.8333C24.2667 23.7184 24.221 23.6082 24.1397 23.5269C24.0585 23.4457 23.9482 23.4 23.8333 23.4Z" fill="#50555C"/>
</svg>
