<svg width="20" height="20" viewBox="0 0 20 20" fill="none" xmlns="http://www.w3.org/2000/svg">
    <g clip-path="url(#clip0_94_397)">
        <path d="M17.5 8.33331C17.5 14.1666 10 19.1666 10 19.1666C10 19.1666 2.5 14.1666 2.5 8.33331C2.5 6.34419 3.29018 4.43653 4.6967 3.03001C6.10322 1.62349 8.01088 0.833313 10 0.833313C11.9891 0.833313 13.8968 1.62349 15.3033 3.03001C16.7098 4.43653 17.5 6.34419 17.5 8.33331Z" stroke="#252837" stroke-width="2" stroke-linecap="round" stroke-linejoin="round"/>
        <path d="M10 10.8333C11.3807 10.8333 12.5 9.71403 12.5 8.33331C12.5 6.9526 11.3807 5.83331 10 5.83331C8.61929 5.83331 7.5 6.9526 7.5 8.33331C7.5 9.71403 8.61929 10.8333 10 10.8333Z" stroke="#252837" stroke-width="2" stroke-linecap="round" stroke-linejoin="round"/>
    </g>
    <defs>
        <clipPath id="clip0_94_397">
            <rect width="20" height="20" fill="white"/>
        </clipPath>
    </defs>
</svg>
