<svg width="23" height="22" viewBox="0 0 23 22" fill="none" xmlns="http://www.w3.org/2000/svg">
<path d="M13.1095 1.83334H5.7762C5.28997 1.83334 4.82366 2.0265 4.47984 2.37031C4.13603 2.71413 3.94287 3.18045 3.94287 3.66668V18.3333C3.94287 18.8196 4.13603 19.2859 4.47984 19.6297C4.82366 19.9735 5.28997 20.1667 5.7762 20.1667H16.7762C17.2624 20.1667 17.7287 19.9735 18.0726 19.6297C18.4164 19.2859 18.6095 18.8196 18.6095 18.3333V7.33334L13.1095 1.83334Z" stroke="#FF2323" stroke-width="2" stroke-linecap="round" stroke-linejoin="round"/>
<path d="M13.1099 1.83334V7.33334H18.6099" stroke="#FF2323" stroke-width="2" stroke-linecap="round" stroke-linejoin="round"/>
<path d="M14.9432 11.9167H7.60986" stroke="#FF2323" stroke-width="2" stroke-linecap="round" stroke-linejoin="round"/>
<path d="M14.9432 15.5833H7.60986" stroke="#FF2323" stroke-width="2" stroke-linecap="round" stroke-linejoin="round"/>
<path d="M9.4432 8.25H8.52653H7.60986" stroke="#FF2323" stroke-width="2" stroke-linecap="round" stroke-linejoin="round"/>
</svg>
