<svg width="17" height="17" viewBox="0 0 17 17" fill="none" xmlns="http://www.w3.org/2000/svg">
<path fill-rule="evenodd" clip-rule="evenodd" d="M11.0138 10.264L9.7918 11.792C7.89824 10.6794 6.32034 9.10153 5.2078 7.20797L6.7358 5.98597C7.10416 5.6912 7.2274 5.18509 7.0358 4.75397L5.6428 1.61697C5.43648 1.15271 4.92446 0.90601 4.4328 1.03397L1.7808 1.72097C1.26887 1.8552 0.93785 2.35065 1.0098 2.87497C1.96575 9.6831 7.31667 15.034 14.1248 15.99C14.649 16.0623 15.1444 15.731 15.2778 15.219L15.9658 12.568C16.0938 12.0763 15.8471 11.5643 15.3828 11.358L12.2458 9.96497C11.8148 9.77389 11.3092 9.89659 11.0138 10.264Z" stroke="white" stroke-width="1.5" stroke-linecap="round" stroke-linejoin="round"/>
</svg>
