<svg width="30" height="30" viewBox="0 0 30 30" fill="none" xmlns="http://www.w3.org/2000/svg">
<g clip-path="url(#clip0_67_4283)">
<path d="M25.2539 13.6963H23.3677C23.2236 13.6963 23.1621 13.8545 23.1621 13.9992C23.1621 14.1662 23.2365 14.3115 23.3677 14.3115H23.9707V16.6992C23.9707 16.8399 24.1412 16.9102 24.3117 16.9102C24.4822 16.9102 24.6527 16.8399 24.6527 16.6992V14.3115H25.2539C25.3851 14.3115 25.4589 14.1662 25.4589 13.9992C25.4613 13.8545 25.4003 13.6963 25.2539 13.6963ZM3.13471 14.9121C3.0478 14.9121 2.96284 14.9379 2.89057 14.9862C2.8183 15.0345 2.76197 15.1031 2.72871 15.1834C2.69545 15.2637 2.68675 15.3521 2.70371 15.4373C2.72066 15.5226 2.76252 15.6009 2.82397 15.6623C2.88543 15.7238 2.96374 15.7656 3.04898 15.7826C3.13423 15.7995 3.22259 15.7908 3.30289 15.7576C3.38319 15.7243 3.45182 15.668 3.50011 15.5957C3.54839 15.5235 3.57417 15.4385 3.57417 15.3516C3.57417 15.235 3.52787 15.1232 3.44545 15.0408C3.36304 14.9584 3.25126 14.9121 3.13471 14.9121ZM26.8652 14.9121C26.7783 14.9121 26.6933 14.9379 26.621 14.9862C26.5488 15.0345 26.4924 15.1031 26.4592 15.1834C26.4259 15.2637 26.4172 15.3521 26.4342 15.4373C26.4511 15.5226 26.493 15.6009 26.5544 15.6623C26.6159 15.7238 26.6942 15.7656 26.7794 15.7826C26.8647 15.7995 26.9531 15.7908 27.0334 15.7576C27.1137 15.7243 27.1823 15.668 27.2306 15.5957C27.2789 15.5235 27.3046 15.4385 27.3046 15.3516C27.3046 15.235 27.2583 15.1232 27.1759 15.0408C27.0935 14.9584 26.9817 14.9121 26.8652 14.9121ZM29.9999 10.957C29.9996 10.6075 29.8606 10.2723 29.6135 10.0252C29.3663 9.77799 29.0311 9.63899 28.6816 9.63868H26.3132C26.3039 9.61525 26.2951 9.59181 26.2839 9.56954C26.0033 8.98829 25.3095 8.76271 24.6972 8.56349C24.2783 8.42755 23.8458 8.28692 23.6824 8.08243C23.5189 7.87794 23.4749 7.42032 23.4345 6.98028C23.3759 6.31056 23.3097 5.61798 22.8082 5.21778C22.3066 4.81759 21.621 4.91075 20.956 4.99864C20.5154 5.05724 20.0601 5.11583 19.8187 4.99864C19.5773 4.88146 19.354 4.49943 19.1296 4.12443C18.7974 3.56954 18.4212 2.94083 17.7861 2.79669C17.1732 2.65782 16.599 3.03458 16.0441 3.39903C15.6679 3.6463 15.2783 3.90235 14.9999 3.90235C14.7216 3.90235 14.332 3.6463 13.9558 3.39903C13.4009 3.03458 12.8267 2.65782 12.2138 2.79669C11.5787 2.94317 11.2025 3.57423 10.8703 4.12677C10.6458 4.50177 10.4138 4.88849 10.1818 5.00099C9.93979 5.11818 9.48452 5.05958 9.04389 5.00099C8.37886 4.9131 7.69096 4.82169 7.19175 5.22013C6.69253 5.61857 6.62632 6.3129 6.56538 6.98263C6.52495 7.42267 6.48335 7.87735 6.31753 8.08478C6.15171 8.2922 5.72163 8.42989 5.30268 8.56583C4.69038 8.76505 3.99663 8.99064 3.71538 9.57306C3.70483 9.59532 3.69604 9.61817 3.68667 9.64103H1.31831C0.969158 9.64134 0.634362 9.78001 0.387256 10.0267C0.14015 10.2733 0.000878978 10.6079 -5.11255e-05 10.957C-5.11255e-05 10.9774 -5.11255e-05 10.9979 -5.11255e-05 11.0186C-0.000634 11.0289 -0.000634 11.0393 -5.11255e-05 11.0496V17.9883C0.000259177 18.3378 0.139257 18.673 0.38643 18.9202C0.633603 19.1673 0.968753 19.3063 1.31831 19.3067H3.67378C3.57124 19.7004 3.54604 20.0795 3.71596 20.4305C3.99663 21.0117 4.69038 21.2373 5.30268 21.4365C5.72163 21.5725 6.15405 21.7131 6.31753 21.9176C6.481 22.1221 6.52495 22.5797 6.56538 23.0197C6.62397 23.6895 6.69018 24.382 7.19175 24.7822C7.69331 25.1824 8.37886 25.0893 9.04389 25.0014C9.48452 24.9428 9.93979 24.8842 10.1812 25.0014C10.4156 25.1133 10.6458 25.5006 10.8703 25.8756C11.2025 26.4305 11.5787 27.0592 12.2138 27.2033C12.3009 27.2233 12.3899 27.2333 12.4792 27.2332C12.9931 27.2332 13.4812 26.9121 13.9558 26.601C14.332 26.3537 14.7216 26.0977 14.9999 26.0977C15.2783 26.0977 15.6679 26.3537 16.0441 26.601C16.599 26.9654 17.1732 27.3422 17.7861 27.2033C18.4212 27.0592 18.7974 26.4305 19.1296 25.8756C19.354 25.5006 19.5861 25.1139 19.8181 25.0014C20.0601 24.8842 20.5154 24.9428 20.956 25.0014C21.621 25.0893 22.3089 25.1807 22.8082 24.7822C23.3074 24.3838 23.3736 23.6895 23.4345 23.0197C23.4749 22.5797 23.5166 22.125 23.6824 21.9176C23.8482 21.7102 24.2783 21.5725 24.6972 21.4365C25.3095 21.2373 26.0033 21.0117 26.2839 20.4305C26.4539 20.0789 26.4287 19.7004 26.3261 19.3067H28.6816C29.0311 19.3063 29.3663 19.1673 29.6135 18.9202C29.8606 18.673 29.9996 18.3378 29.9999 17.9883V11.0496C30.0005 11.0393 30.0005 11.0289 29.9999 11.0186C29.9999 10.9979 29.9999 10.9774 29.9999 10.957ZM4.47358 10.101C4.47468 10.0495 4.48603 9.99866 4.50698 9.95157C4.62417 9.70782 5.12925 9.54142 5.57456 9.39962C6.11596 9.22384 6.67612 9.04103 7.00425 8.63087C7.33237 8.22071 7.38803 7.6295 7.44018 7.06056C7.48296 6.5965 7.531 6.0715 7.74018 5.9045C7.94936 5.73751 8.46792 5.809 8.92846 5.86993C9.49682 5.94552 10.0845 6.02345 10.5632 5.79318C11.032 5.56642 11.3332 5.06427 11.6244 4.57794C11.8658 4.17423 12.14 3.71661 12.4083 3.65567C12.6562 3.59708 13.0904 3.88478 13.473 4.13614C13.9576 4.45431 14.4585 4.78067 14.9999 4.78067C15.5414 4.78067 16.0423 4.45138 16.5269 4.13614C16.9095 3.88478 17.3431 3.59942 17.5916 3.65567C17.8599 3.71427 18.1341 4.17423 18.3755 4.57794C18.6685 5.06427 18.9673 5.56642 19.4373 5.79318C19.9072 6.01993 20.5031 5.94552 21.0714 5.86993C21.532 5.81134 22.0535 5.73985 22.2597 5.9045C22.466 6.06915 22.5169 6.5965 22.5597 7.06056C22.6119 7.6295 22.6658 8.21778 22.9957 8.63087C23.3255 9.04396 23.8839 9.22325 24.4253 9.39962C24.8706 9.54435 25.3751 9.70782 25.4923 9.9504C25.5136 9.99782 25.5252 10.049 25.5263 10.101C25.5398 10.3617 25.398 10.742 25.2609 11.1088C25.2257 11.2037 25.19 11.2998 25.1554 11.3965H22.998C22.3038 9.85662 21.1798 8.54988 19.761 7.63322C18.3423 6.71656 16.6891 6.22895 14.9999 6.22895C13.3108 6.22895 11.6576 6.71656 10.2388 7.63322C8.82009 8.54988 7.69611 9.85662 7.0019 11.3965H4.84448C4.80991 11.2998 4.77417 11.2037 4.73901 11.1088C4.6019 10.742 4.4601 10.3617 4.47358 10.101ZM22.0224 11.3965H7.97749C8.64048 10.105 9.64677 9.02139 10.8857 8.26475C12.1246 7.50812 13.5482 7.10779 14.9999 7.10779C16.4517 7.10779 17.8753 7.50812 19.1142 8.26475C20.3531 9.02139 21.3594 10.105 22.0224 11.3965ZM1.31831 10.5176H3.63276C3.70027 10.8175 3.79198 11.1114 3.90698 11.3965H1.31831C1.20176 11.3965 1.08998 11.3502 1.00757 11.2678C0.925155 11.1854 0.878855 11.0736 0.878855 10.957C0.878855 10.8405 0.925155 10.7287 1.00757 10.6463C1.08998 10.5639 1.20176 10.5176 1.31831 10.5176ZM25.4929 20.0484C25.3757 20.2922 24.8706 20.4557 24.4253 20.6004C23.8839 20.7762 23.3238 20.959 22.9957 21.3692C22.6675 21.7793 22.6119 22.3705 22.5597 22.9395C22.5169 23.4035 22.4689 23.9285 22.2597 24.0955C22.0505 24.2625 21.532 24.191 21.0714 24.1301C20.5031 24.0545 19.9154 23.9766 19.4367 24.2068C18.9679 24.4336 18.6667 24.9358 18.3755 25.4221C18.1341 25.8258 17.8599 26.2834 17.5916 26.3443C17.3431 26.4029 16.9095 26.1152 16.5269 25.8639C16.0423 25.5457 15.5414 25.2164 14.9999 25.2164C14.4585 25.2164 13.9576 25.5457 13.473 25.8639C13.0904 26.1152 12.6568 26.4006 12.4083 26.3443C12.14 26.2858 11.8658 25.8258 11.6244 25.4221C11.3314 24.9358 11.0326 24.4336 10.5626 24.2068C10.0927 23.9801 9.49682 24.0545 8.92846 24.1301C8.46792 24.1887 7.94643 24.2602 7.74018 24.0955C7.53393 23.9309 7.48296 23.4035 7.44018 22.9395C7.38803 22.3705 7.33413 21.7822 7.00425 21.3692C6.67436 20.9561 6.11596 20.7768 5.57456 20.6004C5.12925 20.4557 4.62475 20.2922 4.50698 20.0484C4.42671 19.882 4.50054 19.5762 4.5896 19.3067H7.35757C8.12149 20.6613 9.23174 21.7885 10.5746 22.5729C11.9175 23.3573 13.4448 23.7707 14.9999 23.7707C16.5551 23.7707 18.0824 23.3573 19.4253 22.5729C20.7682 21.7885 21.8784 20.6613 22.6423 19.3067H25.4103C25.4994 19.5762 25.5732 19.882 25.4929 20.0484ZM8.38354 19.3067H21.614C20.897 20.4075 19.9166 21.312 18.7616 21.9381C17.6067 22.5642 16.3137 22.8921 14.9999 22.8921C13.6862 22.8921 12.3932 22.5642 11.2383 21.9381C10.0833 21.312 9.10287 20.4075 8.38589 19.3067H8.38354ZM29.121 17.9883C29.121 18.1048 29.0747 18.2166 28.9923 18.299C28.9099 18.3814 28.7981 18.4277 28.6816 18.4277H1.31831C1.20176 18.4277 1.08998 18.3814 1.00757 18.299C0.925155 18.2166 0.878855 18.1048 0.878855 17.9883V12.1998C1.01997 12.2498 1.16859 12.2754 1.31831 12.2754H28.6816C28.8313 12.2754 28.9799 12.2498 29.121 12.1998V17.9883ZM28.6816 11.3965H26.0917C26.2067 11.1114 26.2985 10.8175 26.366 10.5176H28.6816C28.7981 10.5176 28.9099 10.5639 28.9923 10.6463C29.0747 10.7287 29.121 10.8405 29.121 10.957C29.121 11.0736 29.0747 11.1854 28.9923 11.2678C28.9099 11.3502 28.7981 11.3965 28.6816 11.3965ZM19.2017 13.6963C19.0259 13.6963 18.8613 13.7578 18.8613 13.9025V15.8947C18.8613 16.1936 18.7037 16.3342 18.4412 16.3342C18.1787 16.3342 18.0216 16.1936 18.0216 15.8947V13.9025C18.0216 13.7578 17.8458 13.6963 17.6806 13.6963C17.5154 13.6963 17.3402 13.7578 17.3402 13.9025V15.8947C17.3402 16.6506 17.8207 16.9318 18.4412 16.9318C19.0617 16.9318 19.5427 16.6506 19.5427 15.8947V13.9025C19.5427 13.7578 19.3681 13.6963 19.2017 13.6963ZM22.2222 13.6963C22.0517 13.6963 21.8818 13.7578 21.8818 13.9025V15.3967L21.1734 14.0391C21.0076 13.718 20.9156 13.6963 20.6707 13.6963C20.5001 13.6963 20.3296 13.7619 20.3296 13.9072V16.6992C20.3296 16.8399 20.5001 16.9102 20.6707 16.9102C20.8412 16.9102 21.0117 16.8399 21.0117 16.6992V15.2051L21.8419 16.7256C21.9251 16.8791 22.0652 16.9102 22.2222 16.9102C22.3927 16.9102 22.5632 16.8399 22.5632 16.6992V13.9043C22.5632 13.7578 22.3927 13.6963 22.2222 13.6963ZM15.5126 13.6963C14.9097 13.6963 14.4416 13.9775 14.4416 14.7334V15.8977C14.4416 16.6535 14.9103 16.9348 15.5126 16.9348C16.115 16.9348 16.5878 16.6535 16.5878 15.8977V14.7334C16.5878 13.9775 16.1162 13.6963 15.5126 13.6963ZM15.9064 15.8977C15.9064 16.2006 15.7576 16.3371 15.5126 16.3371C15.2677 16.3371 15.1236 16.2006 15.1236 15.8977V14.7334C15.1236 14.4299 15.2677 14.294 15.5126 14.294C15.7576 14.294 15.9064 14.4299 15.9064 14.7334V15.8977ZM12.7324 14.2969C13.1044 14.2969 13.1173 14.5781 13.1214 14.6924C13.1302 14.8506 13.279 14.8986 13.4624 14.8986C13.6968 14.8986 13.8035 14.8371 13.8035 14.5734C13.8035 14.0156 13.3318 13.6992 12.7066 13.6992C12.1335 13.6992 11.6572 13.9805 11.6572 14.7363V15.9006C11.6572 16.6565 12.1335 16.9377 12.7066 16.9377C13.3318 16.9377 13.8035 16.6037 13.8035 16.019C13.8035 15.7553 13.6945 15.6938 13.4583 15.6938C13.2826 15.6938 13.1349 15.7377 13.1214 15.9006C13.108 16.0635 13.0869 16.34 12.7371 16.34C12.4833 16.34 12.3392 16.1994 12.3392 15.9006V14.7334C12.3392 14.4346 12.4833 14.2969 12.7324 14.2969ZM5.71694 13.6963H4.9435C4.76421 13.6963 4.64585 13.793 4.64585 13.9025V16.6992C4.64585 16.8094 4.76303 16.9061 4.9435 16.9061H5.71694C6.31987 16.9061 6.79214 16.6248 6.79214 15.869V14.7334C6.79214 13.9775 6.31987 13.6963 5.71694 13.6963ZM6.11011 15.8713C6.11011 16.1701 5.96186 16.3108 5.71694 16.3108H5.32788V14.2969H5.71694C5.96186 14.2969 6.11011 14.4375 6.11011 14.7363V15.8713ZM7.8937 13.6963C7.72319 13.6963 7.55268 13.7578 7.55268 13.9025V16.6992C7.55268 16.8399 7.72319 16.9102 7.8937 16.9102C8.06421 16.9102 8.23471 16.8399 8.23471 16.6992V13.9043C8.23471 13.7578 8.06421 13.6963 7.8937 13.6963ZM9.64214 14.5137C9.64214 14.3772 9.76929 14.25 10.0792 14.25C10.4378 14.25 10.521 14.4164 10.6781 14.4164C10.8703 14.4164 10.9494 14.175 10.9494 14.0567C10.9494 13.7139 10.3113 13.6699 10.0792 13.6699C9.53315 13.6699 8.9601 13.9201 8.9601 14.5793C8.9601 15.6076 10.3458 15.5168 10.3458 16.0471C10.3458 16.258 10.1232 16.3371 9.92221 16.3371C9.51557 16.3371 9.38432 16.0119 9.17866 16.0119C9.01284 16.0119 8.88159 16.2317 8.88159 16.3811C8.88159 16.6711 9.36264 16.9524 9.93628 16.9524C10.5703 16.9524 11.029 16.6096 11.029 15.9768C11.0279 14.8693 9.64214 14.9531 9.64214 14.5137Z" fill="#50555C"/>
</g>
<defs>
<clipPath id="clip0_67_4283">
<rect width="30" height="30" fill="white"/>
</clipPath>
</defs>
</svg>
