<svg width="16" height="16" viewBox="0 0 16 16" fill="none" xmlns="http://www.w3.org/2000/svg">
<path d="M14.4697 15.5303C14.7626 15.8232 15.2374 15.8232 15.5303 15.5303C15.8232 15.2374 15.8232 14.7626 15.5303 14.4697L14.4697 15.5303ZM13.05 7.4C13.05 10.5204 10.5204 13.05 7.4 13.05V14.55C11.3489 14.55 14.55 11.3489 14.55 7.4H13.05ZM7.4 13.05C4.2796 13.05 1.75 10.5204 1.75 7.4H0.25C0.25 11.3489 3.45117 14.55 7.4 14.55V13.05ZM1.75 7.4C1.75 4.2796 4.2796 1.75 7.4 1.75V0.25C3.45117 0.25 0.25 3.45117 0.25 7.4H1.75ZM7.4 1.75C10.5204 1.75 13.05 4.2796 13.05 7.4H14.55C14.55 3.45117 11.3489 0.25 7.4 0.25V1.75ZM11.4697 12.5303L14.4697 15.5303L15.5303 14.4697L12.5303 11.4697L11.4697 12.5303Z" fill="#6A6D77"/>
</svg>
