<svg width="20" height="28" viewBox="0 0 20 28" fill="none" xmlns="http://www.w3.org/2000/svg">
<mask id="path-1-inside-1_67_4300" fill="white">
<path d="M18.7189 8.18505H1.28114C0.94136 8.18505 0.615497 8.32003 0.375237 8.56029C0.134977 8.80055 0 9.12641 0 9.46619C0 9.80597 0.134977 10.1318 0.375237 10.3721C0.615497 10.6124 0.94136 10.7473 1.28114 10.7473H1.43149L3.41258 25.8696C3.45595 26.1947 3.61571 26.4931 3.86225 26.7095C4.10879 26.9258 4.42541 27.0455 4.75342 27.0463H15.2466C15.5746 27.0455 15.8912 26.9258 16.1378 26.7095C16.3843 26.4931 16.5441 26.1947 16.5875 25.8696L18.5685 10.7473H18.7189C19.0586 10.7473 19.3845 10.6124 19.6248 10.3721C19.865 10.1318 20 9.80597 20 9.46619C20 9.12641 19.865 8.80055 19.6248 8.56029C19.3845 8.32003 19.0586 8.18505 18.7189 8.18505ZM15.8817 25.7771C15.8611 25.9311 15.7855 26.0725 15.6687 26.175C15.5519 26.2775 15.402 26.3341 15.2466 26.3345H14.0182L14.457 21.3092C14.4652 21.2152 14.4358 21.1218 14.3751 21.0495C14.3144 20.9772 14.2275 20.9319 14.1334 20.9237C14.0394 20.9155 13.946 20.945 13.8737 21.0057C13.8014 21.0664 13.7561 21.1533 13.7479 21.2473L13.3037 26.3345H11.5105L11.6964 22.0796C11.6996 21.9859 11.6657 21.8947 11.602 21.8258C11.5383 21.757 11.45 21.716 11.3563 21.7119C11.2626 21.7079 11.1711 21.7409 11.1016 21.8039C11.0322 21.867 10.9904 21.9549 10.9854 22.0485L10.7981 26.3345H9.20186L9.01461 22.0485C9.00961 21.9549 8.96785 21.867 8.89839 21.8039C8.82894 21.7409 8.73741 21.7079 8.64371 21.7119C8.55001 21.716 8.46171 21.757 8.39802 21.8258C8.33433 21.8947 8.30039 21.9859 8.30358 22.0796L8.48946 26.3345H6.69625L6.25201 21.2473C6.24822 21.2006 6.23521 21.155 6.21374 21.1133C6.19227 21.0716 6.16277 21.0345 6.12692 21.0043C6.09108 20.974 6.04961 20.9511 6.00489 20.9369C5.96017 20.9227 5.91309 20.9175 5.86635 20.9216C5.81961 20.9257 5.77414 20.939 5.73256 20.9607C5.69098 20.9824 5.6541 21.0121 5.62404 21.0482C5.59399 21.0842 5.57136 21.1258 5.55745 21.1706C5.54353 21.2154 5.53862 21.2625 5.54298 21.3092L5.98181 26.3345H4.75342C4.59805 26.3341 4.44807 26.2775 4.33129 26.175C4.2145 26.0725 4.13883 25.9312 4.11828 25.7771L2.14931 10.7473H7.80878L7.95123 14.0148C7.95522 14.1063 7.99439 14.1928 8.06056 14.2562C8.12674 14.3196 8.21483 14.3551 8.30648 14.3552C8.31173 14.3552 8.31698 14.3551 8.32226 14.3548C8.41655 14.3507 8.50534 14.3093 8.56911 14.2397C8.63288 14.1701 8.66639 14.0781 8.66228 13.9838L8.52119 10.7473H11.4788L11.3377 13.9838C11.3336 14.0781 11.3671 14.1701 11.4309 14.2397C11.4947 14.3093 11.5835 14.3507 11.6777 14.3548C11.683 14.3551 11.6882 14.3552 11.6935 14.3552C11.7852 14.3551 11.8733 14.3196 11.9394 14.2562C12.0056 14.1928 12.0448 14.1063 12.0488 14.0148L12.1912 10.7473H17.8507L15.8817 25.7771ZM18.7189 10.0356H1.28114C1.13013 10.0356 0.985298 9.9756 0.878516 9.86881C0.771734 9.76203 0.711744 9.6172 0.711744 9.46619C0.711744 9.31518 0.771734 9.17035 0.878516 9.06357C0.985298 8.95678 1.13013 8.89679 1.28114 8.89679H18.7189C18.8699 8.89679 19.0147 8.95678 19.1215 9.06357C19.2283 9.17035 19.2883 9.31518 19.2883 9.46619C19.2883 9.6172 19.2283 9.76203 19.1215 9.86881C19.0147 9.9756 18.8699 10.0356 18.7189 10.0356Z"/>
</mask>
<path d="M18.7189 8.18505H1.28114C0.94136 8.18505 0.615497 8.32003 0.375237 8.56029C0.134977 8.80055 0 9.12641 0 9.46619C0 9.80597 0.134977 10.1318 0.375237 10.3721C0.615497 10.6124 0.94136 10.7473 1.28114 10.7473H1.43149L3.41258 25.8696C3.45595 26.1947 3.61571 26.4931 3.86225 26.7095C4.10879 26.9258 4.42541 27.0455 4.75342 27.0463H15.2466C15.5746 27.0455 15.8912 26.9258 16.1378 26.7095C16.3843 26.4931 16.5441 26.1947 16.5875 25.8696L18.5685 10.7473H18.7189C19.0586 10.7473 19.3845 10.6124 19.6248 10.3721C19.865 10.1318 20 9.80597 20 9.46619C20 9.12641 19.865 8.80055 19.6248 8.56029C19.3845 8.32003 19.0586 8.18505 18.7189 8.18505ZM15.8817 25.7771C15.8611 25.9311 15.7855 26.0725 15.6687 26.175C15.5519 26.2775 15.402 26.3341 15.2466 26.3345H14.0182L14.457 21.3092C14.4652 21.2152 14.4358 21.1218 14.3751 21.0495C14.3144 20.9772 14.2275 20.9319 14.1334 20.9237C14.0394 20.9155 13.946 20.945 13.8737 21.0057C13.8014 21.0664 13.7561 21.1533 13.7479 21.2473L13.3037 26.3345H11.5105L11.6964 22.0796C11.6996 21.9859 11.6657 21.8947 11.602 21.8258C11.5383 21.757 11.45 21.716 11.3563 21.7119C11.2626 21.7079 11.1711 21.7409 11.1016 21.8039C11.0322 21.867 10.9904 21.9549 10.9854 22.0485L10.7981 26.3345H9.20186L9.01461 22.0485C9.00961 21.9549 8.96785 21.867 8.89839 21.8039C8.82894 21.7409 8.73741 21.7079 8.64371 21.7119C8.55001 21.716 8.46171 21.757 8.39802 21.8258C8.33433 21.8947 8.30039 21.9859 8.30358 22.0796L8.48946 26.3345H6.69625L6.25201 21.2473C6.24822 21.2006 6.23521 21.155 6.21374 21.1133C6.19227 21.0716 6.16277 21.0345 6.12692 21.0043C6.09108 20.974 6.04961 20.9511 6.00489 20.9369C5.96017 20.9227 5.91309 20.9175 5.86635 20.9216C5.81961 20.9257 5.77414 20.939 5.73256 20.9607C5.69098 20.9824 5.6541 21.0121 5.62404 21.0482C5.59399 21.0842 5.57136 21.1258 5.55745 21.1706C5.54353 21.2154 5.53862 21.2625 5.54298 21.3092L5.98181 26.3345H4.75342C4.59805 26.3341 4.44807 26.2775 4.33129 26.175C4.2145 26.0725 4.13883 25.9312 4.11828 25.7771L2.14931 10.7473H7.80878L7.95123 14.0148C7.95522 14.1063 7.99439 14.1928 8.06056 14.2562C8.12674 14.3196 8.21483 14.3551 8.30648 14.3552C8.31173 14.3552 8.31698 14.3551 8.32226 14.3548C8.41655 14.3507 8.50534 14.3093 8.56911 14.2397C8.63288 14.1701 8.66639 14.0781 8.66228 13.9838L8.52119 10.7473H11.4788L11.3377 13.9838C11.3336 14.0781 11.3671 14.1701 11.4309 14.2397C11.4947 14.3093 11.5835 14.3507 11.6777 14.3548C11.683 14.3551 11.6882 14.3552 11.6935 14.3552C11.7852 14.3551 11.8733 14.3196 11.9394 14.2562C12.0056 14.1928 12.0448 14.1063 12.0488 14.0148L12.1912 10.7473H17.8507L15.8817 25.7771ZM18.7189 10.0356H1.28114C1.13013 10.0356 0.985298 9.9756 0.878516 9.86881C0.771734 9.76203 0.711744 9.6172 0.711744 9.46619C0.711744 9.31518 0.771734 9.17035 0.878516 9.06357C0.985298 8.95678 1.13013 8.89679 1.28114 8.89679H18.7189C18.8699 8.89679 19.0147 8.95678 19.1215 9.06357C19.2283 9.17035 19.2883 9.31518 19.2883 9.46619C19.2883 9.6172 19.2283 9.76203 19.1215 9.86881C19.0147 9.9756 18.8699 10.0356 18.7189 10.0356Z" fill="white"/>
<path d="M1.43149 10.7473L2.42301 10.6174L2.30903 9.74733H1.43149V10.7473ZM3.41258 25.8696L2.42105 25.9995L2.42136 26.0018L3.41258 25.8696ZM4.75342 27.0463L4.75106 28.0463H4.75342V27.0463ZM15.2466 27.0463V28.0463L15.249 28.0463L15.2466 27.0463ZM16.5875 25.8696L17.5787 26.0018L17.579 25.9995L16.5875 25.8696ZM18.5685 10.7473V9.74733H17.691L17.577 10.6174L18.5685 10.7473ZM20 9.46619H21H20ZM15.8817 25.7771L16.8729 25.9093L16.8732 25.907L15.8817 25.7771ZM15.2466 26.3345V27.3345L15.249 27.3345L15.2466 26.3345ZM14.0182 26.3345L13.022 26.2475L12.9271 27.3345H14.0182V26.3345ZM14.457 21.3092L13.4608 21.2223V21.2223L14.457 21.3092ZM13.7479 21.2473L12.7517 21.1603V21.1603L13.7479 21.2473ZM13.3037 26.3345V27.3345H14.2202L14.2999 26.4215L13.3037 26.3345ZM11.5105 26.3345L10.5115 26.2909L10.4659 27.3345H11.5105V26.3345ZM11.6964 22.0796L12.6955 22.1232L12.6959 22.1136L11.6964 22.0796ZM10.9854 22.0485L9.98678 21.9952L9.98636 22.0049L10.9854 22.0485ZM10.7981 26.3345V27.3345H11.7554L11.7972 26.3782L10.7981 26.3345ZM9.20186 26.3345L8.20281 26.3782L8.24459 27.3345H9.20186V26.3345ZM9.01461 22.0485L10.0137 22.0049L10.0132 21.9952L9.01461 22.0485ZM8.30358 22.0796L7.30411 22.1136L7.30453 22.1232L8.30358 22.0796ZM8.48946 26.3345V27.3345H9.5341L9.48851 26.2909L8.48946 26.3345ZM6.69625 26.3345L5.70004 26.4215L5.77977 27.3345H6.69625V26.3345ZM6.25201 21.2473L5.25528 21.3283L5.25581 21.3343L6.25201 21.2473ZM5.54298 21.3092L6.53921 21.2222L6.53865 21.2162L5.54298 21.3092ZM5.98181 26.3345V27.3345H7.07294L6.97802 26.2475L5.98181 26.3345ZM4.75342 26.3345L4.75104 27.3345H4.75342V26.3345ZM4.11828 25.7771L3.12675 25.907L3.12706 25.9094L4.11828 25.7771ZM2.14931 10.7473V9.74733H1.00976L1.15778 10.8772L2.14931 10.7473ZM7.80878 10.7473L8.80783 10.7038L8.76614 9.74733H7.80878V10.7473ZM7.95123 14.0148L6.95218 14.0583L6.95218 14.0583L7.95123 14.0148ZM8.30648 14.3552L8.30569 15.3552H8.30648V14.3552ZM8.32226 14.3548L8.27868 13.3558L8.27648 13.3559L8.32226 14.3548ZM8.66228 13.9838L9.66134 13.9403L9.66133 13.9402L8.66228 13.9838ZM8.52119 10.7473V9.74733H7.47664L7.52214 10.7909L8.52119 10.7473ZM11.4788 10.7473L12.4779 10.7909L12.5234 9.74733H11.4788V10.7473ZM11.3377 13.9838L10.3387 13.9402L10.3387 13.9403L11.3377 13.9838ZM11.6777 14.3548L11.7235 13.3559L11.7213 13.3558L11.6777 14.3548ZM11.6935 14.3552V15.3552L11.6943 15.3552L11.6935 14.3552ZM12.0488 14.0148L13.0478 14.0583V14.0583L12.0488 14.0148ZM12.1912 10.7473V9.74733H11.2339L11.1922 10.7038L12.1912 10.7473ZM17.8507 10.7473L18.8423 10.8772L18.9903 9.74733H17.8507V10.7473ZM18.7189 7.18505H1.28114V9.18505H18.7189V7.18505ZM1.28114 7.18505C0.676143 7.18505 0.0959265 7.42538 -0.33187 7.85318L1.08234 9.26739C1.13507 9.21467 1.20658 9.18505 1.28114 9.18505V7.18505ZM-0.33187 7.85318C-0.759666 8.28098 -1 8.86119 -1 9.46619H1C1 9.39163 1.02962 9.32012 1.08234 9.26739L-0.33187 7.85318ZM-1 9.46619C-1 10.0712 -0.759666 10.6514 -0.33187 11.0792L1.08234 9.66498C1.02962 9.61226 1 9.54075 1 9.46619H-1ZM-0.33187 11.0792C0.0959265 11.507 0.676143 11.7473 1.28114 11.7473V9.74733C1.20658 9.74733 1.13507 9.71771 1.08234 9.66498L-0.33187 11.0792ZM1.28114 11.7473H1.43149V9.74733H1.28114V11.7473ZM0.43996 10.8772L2.42106 25.9995L4.40411 25.7397L2.42301 10.6174L0.43996 10.8772ZM2.42136 26.0018C2.49671 26.5667 2.77429 27.0852 3.20266 27.4611L4.52185 25.9579C4.45712 25.9011 4.41519 25.8227 4.4038 25.7374L2.42136 26.0018ZM3.20266 27.4611C3.63102 27.837 4.18114 28.0449 4.75106 28.0463L4.75578 26.0463C4.66968 26.0461 4.58657 26.0147 4.52185 25.9579L3.20266 27.4611ZM4.75342 28.0463H15.2466V26.0463H4.75342V28.0463ZM15.249 28.0463C15.8189 28.0449 16.369 27.837 16.7974 27.4611L15.4782 25.9578C15.4134 26.0146 15.3303 26.0461 15.2442 26.0463L15.249 28.0463ZM16.7974 27.4611C17.2257 27.0852 17.5033 26.5667 17.5787 26.0018L15.5962 25.7373C15.5848 25.8227 15.5429 25.901 15.4782 25.9578L16.7974 27.4611ZM17.579 25.9995L19.5601 10.8772L17.577 10.6174L15.5959 25.7397L17.579 25.9995ZM18.5685 11.7473H18.7189V9.74733H18.5685V11.7473ZM18.7189 11.7473C19.3239 11.7473 19.9041 11.507 20.3319 11.0792L18.9177 9.66498C18.8649 9.71771 18.7934 9.74733 18.7189 9.74733V11.7473ZM20.3319 11.0792C20.7597 10.6514 21 10.0712 21 9.46619H19C19 9.54075 18.9704 9.61226 18.9177 9.66498L20.3319 11.0792ZM21 9.46619C21 8.8612 20.7597 8.28098 20.3319 7.85318L18.9177 9.26739C18.9704 9.32012 19 9.39163 19 9.46619H21ZM20.3319 7.85318C19.9041 7.42538 19.3239 7.18505 18.7189 7.18505V9.18505C18.7934 9.18505 18.8649 9.21467 18.9177 9.26739L20.3319 7.85318ZM14.8905 25.645C14.9019 25.5592 14.944 25.4805 15.0091 25.4234L16.3283 26.9266C16.6269 26.6645 16.8204 26.3031 16.8729 25.9093L14.8905 25.645ZM15.0091 25.4234C15.0741 25.3663 15.1576 25.3347 15.2442 25.3345L15.249 27.3345C15.6463 27.3335 16.0298 27.1886 16.3283 26.9266L15.0091 25.4234ZM15.2466 25.3345H14.0182V27.3345H15.2466V25.3345ZM15.0144 26.4215L15.4532 21.3962L13.4608 21.2223L13.022 26.2475L15.0144 26.4215ZM15.4532 21.3962C15.4845 21.038 15.3722 20.682 15.141 20.4066L13.6091 21.6924C13.4993 21.5615 13.4459 21.3924 13.4608 21.2223L15.4532 21.3962ZM15.141 20.4066C14.9098 20.1311 14.5787 19.9588 14.2204 19.9275L14.0464 21.9199C13.8763 21.9051 13.719 21.8232 13.6091 21.6924L15.141 20.4066ZM14.2204 19.9275C13.8622 19.8962 13.5062 20.0086 13.2307 20.2398L14.5166 21.7716C14.3857 21.8814 14.2166 21.9348 14.0464 21.9199L14.2204 19.9275ZM13.2307 20.2398C12.9553 20.4709 12.783 20.8021 12.7517 21.1603L14.7441 21.3343C14.7293 21.5045 14.6474 21.6618 14.5166 21.7716L13.2307 20.2398ZM12.7517 21.1603L12.3075 26.2475L14.2999 26.4215L14.7441 21.3343L12.7517 21.1603ZM13.3037 25.3345H11.5105V27.3345H13.3037V25.3345ZM12.5096 26.3782L12.6955 22.1232L10.6974 22.0359L10.5115 26.2909L12.5096 26.3782ZM12.6959 22.1136C12.708 21.7565 12.5787 21.409 12.336 21.1467L10.868 22.5049C10.7527 22.3803 10.6912 22.2152 10.697 22.0456L12.6959 22.1136ZM12.336 21.1467C12.0934 20.8844 11.757 20.7285 11.4 20.7129L11.3127 22.711C11.143 22.7036 10.9832 22.6295 10.868 22.5049L12.336 21.1467ZM11.4 20.7129C11.043 20.6973 10.6943 20.8233 10.4296 21.0634L11.7736 22.5445C11.6479 22.6586 11.4823 22.7184 11.3127 22.711L11.4 20.7129ZM10.4296 21.0634C10.165 21.3035 10.0059 21.6384 9.98683 21.9952L11.984 22.1018C11.9749 22.2713 11.8993 22.4304 11.7736 22.5445L10.4296 21.0634ZM9.98636 22.0049L9.7991 26.2909L11.7972 26.3782L11.9845 22.0922L9.98636 22.0049ZM10.7981 25.3345H9.20186V27.3345H10.7981V25.3345ZM10.2009 26.2909L10.0137 22.0049L8.01556 22.0922L8.20281 26.3782L10.2009 26.2909ZM10.0132 21.9952C9.99415 21.6384 9.83502 21.3035 9.57039 21.0634L8.22639 22.5445C8.10068 22.4304 8.02508 22.2713 8.01603 22.1018L10.0132 21.9952ZM9.57039 21.0634C9.30577 20.8233 8.95705 20.6973 8.60005 20.7129L8.68737 22.711C8.51777 22.7184 8.3521 22.6586 8.22639 22.5445L9.57039 21.0634ZM8.60005 20.7129C8.24304 20.7285 7.90664 20.8844 7.66398 21.1467L9.13206 22.5049C9.01678 22.6295 8.85697 22.7036 8.68737 22.711L8.60005 20.7129ZM7.66398 21.1467C7.42131 21.409 7.292 21.7565 7.30416 22.1136L9.303 22.0456C9.30878 22.2152 9.24734 22.3803 9.13206 22.5049L7.66398 21.1467ZM7.30453 22.1232L7.49041 26.3782L9.48851 26.2909L9.30263 22.0359L7.30453 22.1232ZM8.48946 25.3345H6.69625V27.3345H8.48946V25.3345ZM7.69246 26.2475L7.24822 21.1603L5.25581 21.3343L5.70004 26.4215L7.69246 26.2475ZM7.24873 21.1663C7.23425 20.9882 7.18469 20.8146 7.1029 20.6557L5.32457 21.5709C5.28572 21.4954 5.26218 21.413 5.2553 21.3283L7.24873 21.1663ZM7.1029 20.6557C7.02112 20.4968 6.90871 20.3556 6.77214 20.2403L5.48171 21.7683C5.41683 21.7135 5.36343 21.6464 5.32457 21.5709L7.1029 20.6557ZM6.77214 20.2403C6.63558 20.1249 6.47756 20.0377 6.30718 19.9837L5.7026 21.8901C5.62165 21.8645 5.54658 21.823 5.48171 21.7683L6.77214 20.2403ZM6.30718 19.9837C6.1368 19.9297 5.95742 19.9099 5.77935 19.9254L5.95335 21.9178C5.86876 21.9252 5.78354 21.9158 5.7026 21.8901L6.30718 19.9837ZM5.77935 19.9254C5.60127 19.941 5.42803 19.9916 5.26961 20.0743L6.19551 21.8471C6.12025 21.8864 6.03796 21.9104 5.95335 21.9178L5.77935 19.9254ZM5.26961 20.0743C5.11117 20.1571 4.97066 20.2703 4.85616 20.4076L6.39193 21.6888C6.33753 21.754 6.27078 21.8078 6.19551 21.8471L5.26961 20.0743ZM4.85616 20.4076C4.74165 20.5448 4.65542 20.7034 4.60242 20.8741L6.51247 21.4671C6.48729 21.5482 6.44633 21.6236 6.39193 21.6888L4.85616 20.4076ZM4.60242 20.8741C4.54942 21.0448 4.53069 21.2243 4.54732 21.4023L6.53865 21.2162C6.54655 21.3008 6.53765 21.386 6.51247 21.4671L4.60242 20.8741ZM4.54677 21.3962L4.9856 26.4215L6.97802 26.2475L6.53919 21.2222L4.54677 21.3962ZM5.98181 25.3345H4.75342V27.3345H5.98181V25.3345ZM4.75581 25.3345C4.84233 25.3347 4.92585 25.3663 4.99088 25.4234L3.6717 26.9266C3.9703 27.1886 4.35376 27.3336 4.75104 27.3345L4.75581 25.3345ZM4.99088 25.4234C5.05591 25.4804 5.09805 25.5591 5.10949 25.6449L3.12706 25.9094C3.1796 26.3032 3.3731 26.6646 3.6717 26.9266L4.99088 25.4234ZM5.10981 25.6472L3.14084 10.6174L1.15778 10.8772L3.12675 25.907L5.10981 25.6472ZM2.14931 11.7473H7.80878V9.74733H2.14931V11.7473ZM6.80973 10.7909L6.95218 14.0583L8.95028 13.9712L8.80783 10.7038L6.80973 10.7909ZM6.95218 14.0583C6.96739 14.4072 7.1166 14.7367 7.36875 14.9783L8.75239 13.5342C8.87217 13.6489 8.94306 13.8055 8.95028 13.9712L6.95218 14.0583ZM7.36875 14.9783C7.62089 15.2199 7.95651 15.3549 8.30569 15.3552L8.30727 13.3552C8.47316 13.3553 8.6326 13.4194 8.75239 13.5342L7.36875 14.9783ZM8.30648 15.3552C8.32456 15.3552 8.34525 15.3548 8.36803 15.3538L8.27648 13.3559C8.2887 13.3553 8.2989 13.3552 8.30648 13.3552V15.3552ZM8.36583 15.3539C8.72507 15.3382 9.06338 15.1805 9.30634 14.9154L7.83188 13.5641C7.9473 13.4381 8.10802 13.3632 8.27868 13.3558L8.36583 15.3539ZM9.30634 14.9154C9.5493 14.6503 9.67699 14.2995 9.66134 13.9403L7.66323 14.0273C7.6558 13.8567 7.71646 13.69 7.83188 13.5641L9.30634 14.9154ZM9.66133 13.9402L9.52024 10.7038L7.52214 10.7909L7.66323 14.0273L9.66133 13.9402ZM8.52119 11.7473H11.4788V9.74733H8.52119V11.7473ZM10.4798 10.7038L10.3387 13.9402L12.3368 14.0273L12.4779 10.7909L10.4798 10.7038ZM10.3387 13.9403C10.323 14.2995 10.4507 14.6503 10.6937 14.9154L12.1681 13.5641C12.2835 13.69 12.3442 13.8566 12.3368 14.0273L10.3387 13.9403ZM10.6937 14.9154C10.9366 15.1805 11.2749 15.3382 11.6342 15.3539L11.7213 13.3558C11.892 13.3632 12.0527 13.4381 12.1681 13.5641L10.6937 14.9154ZM11.632 15.3538C11.6547 15.3548 11.6754 15.3552 11.6935 15.3552V13.3552C11.7011 13.3552 11.7113 13.3553 11.7235 13.3559L11.632 15.3538ZM11.6943 15.3552C12.0435 15.3549 12.3791 15.2199 12.6313 14.9783L11.2476 13.5342C11.3674 13.4194 11.5268 13.3553 11.6927 13.3552L11.6943 15.3552ZM12.6313 14.9783C12.8834 14.7367 13.0326 14.4072 13.0478 14.0583L11.0497 13.9712C11.0569 13.8055 11.1278 13.6489 11.2476 13.5342L12.6313 14.9783ZM13.0478 14.0583L13.1903 10.7909L11.1922 10.7038L11.0497 13.9712L13.0478 14.0583ZM12.1912 11.7473H17.8507V9.74733H12.1912V11.7473ZM16.8592 10.6174L14.8902 25.6472L16.8732 25.907L18.8423 10.8772L16.8592 10.6174ZM18.7189 9.03558H1.28114V11.0356H18.7189V9.03558ZM1.28114 9.03558C1.39534 9.03558 1.50487 9.08095 1.58562 9.16171L0.171409 10.5759C0.465729 10.8702 0.864911 11.0356 1.28114 11.0356V9.03558ZM1.58562 9.16171C1.66638 9.24246 1.71174 9.35199 1.71174 9.46619H-0.288256C-0.288256 9.88242 -0.12291 10.2816 0.171409 10.5759L1.58562 9.16171ZM1.71174 9.46619C1.71174 9.58039 1.66638 9.68992 1.58562 9.77067L0.171409 8.35646C-0.12291 8.65078 -0.288256 9.04996 -0.288256 9.46619H1.71174ZM1.58562 9.77067C1.50487 9.85143 1.39534 9.89679 1.28114 9.89679V7.89679C0.864911 7.89679 0.465729 8.06214 0.171409 8.35646L1.58562 9.77067ZM1.28114 9.89679H18.7189V7.89679H1.28114V9.89679ZM18.7189 9.89679C18.6047 9.89679 18.4951 9.85143 18.4144 9.77067L19.8286 8.35646C19.5343 8.06214 19.1351 7.89679 18.7189 7.89679V9.89679ZM18.4144 9.77067C18.3336 9.68992 18.2883 9.58039 18.2883 9.46619H20.2883C20.2883 9.04996 20.1229 8.65078 19.8286 8.35646L18.4144 9.77067ZM18.2883 9.46619C18.2883 9.35199 18.3336 9.24246 18.4144 9.16171L19.8286 10.5759C20.1229 10.2816 20.2883 9.88242 20.2883 9.46619H18.2883ZM18.4144 9.16171C18.4951 9.08095 18.6047 9.03558 18.7189 9.03558V11.0356C19.1351 11.0356 19.5343 10.8702 19.8286 10.5759L18.4144 9.16171Z" fill="white" mask="url(#path-1-inside-1_67_4300)"/>
<mask id="path-3-inside-2_67_4300" fill="white">
<path d="M14.6165 15.393C14.6271 15.3939 14.6375 15.3944 14.6478 15.3944C14.7368 15.3942 14.8225 15.3608 14.888 15.3007C14.9536 15.2405 14.9942 15.158 15.002 15.0694L15.2831 11.8459C15.2913 11.7519 15.2618 11.6584 15.2011 11.5861C15.1404 11.5138 15.0535 11.4686 14.9595 11.4604C14.8654 11.4522 14.772 11.4817 14.6997 11.5424C14.6274 11.6031 14.5822 11.69 14.574 11.784L14.2928 15.0075C14.2888 15.0541 14.2939 15.101 14.308 15.1455C14.3221 15.1901 14.3448 15.2315 14.3748 15.2673C14.4049 15.3031 14.4417 15.3326 14.4832 15.3542C14.5246 15.3757 14.5699 15.3889 14.6165 15.393Z"/>
</mask>
<path d="M14.6165 15.393C14.6271 15.3939 14.6375 15.3944 14.6478 15.3944C14.7368 15.3942 14.8225 15.3608 14.888 15.3007C14.9536 15.2405 14.9942 15.158 15.002 15.0694L15.2831 11.8459C15.2913 11.7519 15.2618 11.6584 15.2011 11.5861C15.1404 11.5138 15.0535 11.4686 14.9595 11.4604C14.8654 11.4522 14.772 11.4817 14.6997 11.5424C14.6274 11.6031 14.5822 11.69 14.574 11.784L14.2928 15.0075C14.2888 15.0541 14.2939 15.101 14.308 15.1455C14.3221 15.1901 14.3448 15.2315 14.3748 15.2673C14.4049 15.3031 14.4417 15.3326 14.4832 15.3542C14.5246 15.3757 14.5699 15.3889 14.6165 15.393Z" fill="white"/>
<path d="M14.6165 15.393L14.705 14.3969L14.7033 14.3967L14.6165 15.393ZM14.6478 15.3944V16.3944L14.6492 16.3944L14.6478 15.3944ZM15.002 15.0694L15.9981 15.1565L15.9982 15.1563L15.002 15.0694ZM15.2831 11.8459L14.2869 11.759L14.2869 11.759L15.2831 11.8459ZM14.574 11.784L13.5778 11.6971L13.5778 11.6971L14.574 11.784ZM14.2928 15.0075L15.2891 15.0944L15.2891 15.0944L14.2928 15.0075ZM14.528 16.389C14.5685 16.3926 14.6084 16.3944 14.6478 16.3944V14.3944C14.6666 14.3944 14.6857 14.3952 14.705 14.3969L14.528 16.389ZM14.6492 16.3944C14.9881 16.3939 15.3145 16.2665 15.5641 16.0374L14.2119 14.5639C14.3305 14.4551 14.4855 14.3946 14.6464 14.3944L14.6492 16.3944ZM15.5641 16.0374C15.8138 15.8083 15.9686 15.4941 15.9981 15.1565L14.0058 14.9822C14.0198 14.8219 14.0933 14.6727 14.2119 14.5639L15.5641 16.0374ZM15.9982 15.1563L16.2793 11.9328L14.2869 11.759L14.0057 14.9825L15.9982 15.1563ZM16.2793 11.9328C16.3106 11.5746 16.1982 11.2186 15.967 10.9431L14.4352 12.2291C14.3254 12.0983 14.272 11.9292 14.2869 11.759L16.2793 11.9328ZM15.967 10.9431C15.7358 10.6677 15.4046 10.4954 15.0464 10.4642L14.8726 12.4566C14.7024 12.4418 14.5451 12.3599 14.4352 12.2291L15.967 10.9431ZM15.0464 10.4642C14.6881 10.4329 14.3322 10.5453 14.0567 10.7765L15.3427 12.3083C15.2118 12.4181 15.0427 12.4715 14.8726 12.4566L15.0464 10.4642ZM14.0567 10.7765C13.7813 11.0077 13.609 11.3389 13.5778 11.6971L15.5702 11.8709C15.5554 12.0411 15.4735 12.1984 15.3427 12.3083L14.0567 10.7765ZM13.5778 11.6971L13.2966 14.9206L15.2891 15.0944L15.5702 11.8709L13.5778 11.6971ZM13.2966 14.9206C13.2812 15.098 13.3008 15.2767 13.3544 15.4465L15.2616 14.8446C15.2871 14.9252 15.2964 15.0101 15.2891 15.0944L13.2966 14.9206ZM13.3544 15.4465C13.408 15.6164 13.4945 15.7739 13.609 15.9103L15.1407 14.6242C15.1951 14.689 15.2362 14.7639 15.2616 14.8446L13.3544 15.4465ZM13.609 15.9103C13.7235 16.0467 13.8637 16.1592 14.0217 16.2413L14.9446 14.467C15.0197 14.506 15.0863 14.5595 15.1407 14.6242L13.609 15.9103ZM14.0217 16.2413C14.1797 16.3235 14.3523 16.3737 14.5297 16.3892L14.7033 14.3967C14.7875 14.4041 14.8695 14.4279 14.9446 14.467L14.0217 16.2413Z" fill="white" mask="url(#path-3-inside-2_67_4300)"/>
<mask id="path-5-inside-3_67_4300" fill="white">
<path d="M5.3521 15.3943C5.36246 15.3943 5.37291 15.3939 5.38345 15.393C5.47748 15.3848 5.56439 15.3395 5.62507 15.2673C5.68576 15.195 5.71524 15.1015 5.70704 15.0075L5.4259 11.784C5.42208 11.7373 5.40906 11.6918 5.38759 11.6501C5.36611 11.6084 5.33661 11.5713 5.30077 11.5411C5.26494 11.5108 5.22348 11.488 5.17877 11.4738C5.13406 11.4596 5.087 11.4544 5.04027 11.4585C4.99355 11.4626 4.9481 11.4758 4.90652 11.4975C4.86495 11.5192 4.82807 11.549 4.79801 11.585C4.76796 11.621 4.74532 11.6625 4.73139 11.7073C4.71746 11.7521 4.71252 11.7992 4.71686 11.8459L4.998 15.0694C5.00573 15.158 5.04637 15.2405 5.11191 15.3007C5.17745 15.3608 5.26314 15.3942 5.3521 15.3943Z"/>
</mask>
<path d="M5.3521 15.3943C5.36246 15.3943 5.37291 15.3939 5.38345 15.393C5.47748 15.3848 5.56439 15.3395 5.62507 15.2673C5.68576 15.195 5.71524 15.1015 5.70704 15.0075L5.4259 11.784C5.42208 11.7373 5.40906 11.6918 5.38759 11.6501C5.36611 11.6084 5.33661 11.5713 5.30077 11.5411C5.26494 11.5108 5.22348 11.488 5.17877 11.4738C5.13406 11.4596 5.087 11.4544 5.04027 11.4585C4.99355 11.4626 4.9481 11.4758 4.90652 11.4975C4.86495 11.5192 4.82807 11.549 4.79801 11.585C4.76796 11.621 4.74532 11.6625 4.73139 11.7073C4.71746 11.7521 4.71252 11.7992 4.71686 11.8459L4.998 15.0694C5.00573 15.158 5.04637 15.2405 5.11191 15.3007C5.17745 15.3608 5.26314 15.3942 5.3521 15.3943Z" fill="white"/>
<path d="M5.38345 15.393L5.29651 14.3967L5.29603 14.3968L5.38345 15.393ZM5.70704 15.0075L4.71082 15.0944L4.71082 15.0944L5.70704 15.0075ZM5.4259 11.784L4.42921 11.8655L4.42968 11.8709L5.4259 11.784ZM4.71686 11.8459L5.71309 11.759L5.71258 11.7535L4.71686 11.8459ZM4.998 15.0694L4.00178 15.1563L4.00178 15.1563L4.998 15.0694ZM5.3521 16.3943C5.39227 16.3943 5.4319 16.3926 5.47087 16.3891L5.29603 14.3968C5.31392 14.3952 5.33264 14.3943 5.3521 14.3943V16.3943ZM5.47039 16.3892C5.82862 16.3579 6.15975 16.1856 6.39096 15.9102L4.85919 14.6243C4.96902 14.4934 5.12633 14.4116 5.29651 14.3967L5.47039 16.3892ZM6.39096 15.9102C6.62216 15.6348 6.7345 15.2789 6.70326 14.9206L4.71082 15.0944C4.69598 14.9242 4.74935 14.7551 4.85919 14.6243L6.39096 15.9102ZM6.70326 14.9206L6.42212 11.6972L4.42968 11.8709L4.71082 15.0944L6.70326 14.9206ZM6.42258 11.7026C6.40803 11.5245 6.35842 11.3511 6.27661 11.1922L4.49857 12.1079C4.4597 12.0325 4.43613 11.9501 4.42922 11.8655L6.42258 11.7026ZM6.27661 11.1922C6.19479 11.0333 6.08238 10.8922 5.94585 10.777L4.6557 12.3052C4.59084 12.2505 4.53744 12.1834 4.49857 12.1079L6.27661 11.1922ZM5.94585 10.777C5.80932 10.6617 5.65134 10.5746 5.48101 10.5206L4.87653 12.427C4.79561 12.4014 4.72056 12.36 4.6557 12.3052L5.94585 10.777ZM5.48101 10.5206C5.31068 10.4666 5.13135 10.4467 4.95335 10.4623L5.12719 12.4547C5.04264 12.4621 4.95745 12.4527 4.87653 12.427L5.48101 10.5206ZM4.95335 10.4623C4.77535 10.4778 4.60217 10.5284 4.44376 10.6111L5.36928 12.384C5.29402 12.4233 5.21175 12.4473 5.12719 12.4547L4.95335 10.4623ZM4.44376 10.6111C4.28536 10.6937 4.14487 10.8069 4.03035 10.9441L5.56567 12.2258C5.51127 12.291 5.44453 12.3447 5.36928 12.384L4.44376 10.6111ZM4.03035 10.9441C3.91583 11.0813 3.82957 11.2397 3.77651 11.4103L5.68627 12.0043C5.66106 12.0854 5.62008 12.1606 5.56567 12.2258L4.03035 10.9441ZM3.77651 11.4103C3.72344 11.581 3.70462 11.7604 3.72113 11.9383L5.71258 11.7535C5.72042 11.838 5.71148 11.9233 5.68627 12.0043L3.77651 11.4103ZM3.72064 11.9328L4.00178 15.1563L5.99421 14.9825L5.71307 11.759L3.72064 11.9328ZM4.00178 15.1563C4.03124 15.4939 4.18608 15.8083 4.43577 16.0374L5.78806 14.5639C5.90666 14.6727 5.98021 14.8221 5.99421 14.9824L4.00178 15.1563ZM4.43577 16.0374C4.68545 16.2666 5.0119 16.3939 5.35081 16.3943L5.35339 14.3943C5.51438 14.3946 5.66945 14.455 5.78806 14.5639L4.43577 16.0374Z" fill="white" mask="url(#path-5-inside-3_67_4300)"/>
<mask id="path-7-inside-4_67_4300" fill="white">
<path d="M1.4635 7.47331C1.4725 7.47331 1.48153 7.473 1.49064 7.4723C1.53724 7.46878 1.58269 7.45613 1.6244 7.43505C1.66611 7.41397 1.70326 7.38488 1.73373 7.34944C1.7642 7.314 1.78739 7.27291 1.80198 7.22851C1.81656 7.18411 1.82226 7.13728 1.81875 7.09067C1.81607 7.05533 1.81479 7.01752 1.81479 6.97509C1.81398 6.63851 1.91732 6.30993 2.11063 6.03441C2.30394 5.75889 2.57777 5.54992 2.89454 5.43618C2.94903 5.98204 3.19461 6.49111 3.58792 6.87354C3.62132 6.90623 3.66083 6.93202 3.7042 6.94944C3.74756 6.96686 3.79394 6.97557 3.84067 6.97507C3.8874 6.97457 3.93357 6.96487 3.97656 6.94653C4.01954 6.92818 4.05849 6.90155 4.09118 6.86815C4.12387 6.83475 4.14966 6.79524 4.16708 6.75188C4.18451 6.70851 4.19321 6.66214 4.19271 6.61541C4.19221 6.56868 4.18252 6.5225 4.16417 6.47952C4.14582 6.43654 4.11919 6.39759 4.0858 6.3649C3.92958 6.21298 3.80554 6.03118 3.72107 5.83031C3.6366 5.62944 3.59344 5.41363 3.59414 5.19573C3.59414 5.14028 3.59688 5.08499 3.60223 5.02879L3.60236 5.02763C3.64178 4.65405 3.80813 4.3053 4.07364 4.03956C4.33915 3.77382 4.68777 3.60718 5.06131 3.56744C5.45183 3.527 5.8439 3.62797 6.16632 3.852C6.20463 3.87907 6.24792 3.8983 6.29369 3.90859C6.33947 3.91887 6.38682 3.92 6.43303 3.91191C6.47924 3.90382 6.5234 3.88668 6.56296 3.86146C6.60252 3.83625 6.63671 3.80346 6.66355 3.76498C6.69039 3.72651 6.70936 3.68311 6.71937 3.63727C6.72938 3.59144 6.73022 3.54408 6.72186 3.49792C6.71349 3.45175 6.69608 3.4077 6.67063 3.36829C6.64518 3.32888 6.61219 3.2949 6.57355 3.26828C6.22357 3.02379 5.81318 2.88009 5.38712 2.85287C5.43741 2.46017 5.62829 2.099 5.92442 1.83624C6.22056 1.57348 6.60188 1.42693 6.99777 1.42374C7.39366 1.42055 7.77729 1.56093 8.07763 1.81888C8.37796 2.07683 8.57464 2.43488 8.63125 2.82671C8.63793 2.87297 8.65367 2.91745 8.67754 2.95762C8.70142 2.9978 8.73298 3.03288 8.77041 3.06086C8.80785 3.08884 8.85042 3.10917 8.89572 3.12069C8.94101 3.13222 8.98813 3.13471 9.03438 3.12802C9.08063 3.12134 9.12512 3.1056 9.16529 3.08173C9.20547 3.05785 9.24055 3.02629 9.26853 2.98886C9.2965 2.95142 9.31684 2.90885 9.32836 2.86355C9.33988 2.81826 9.34238 2.77114 9.33569 2.72489C9.26368 2.22147 9.02934 1.7553 8.66826 1.3972C8.81994 1.18476 9.02024 1.01169 9.25245 0.892453C9.48466 0.773212 9.74202 0.71126 10.0031 0.71177C10.2641 0.71228 10.5212 0.775237 10.7529 0.895384C10.9847 1.01553 11.1843 1.18938 11.3352 1.40241C10.9771 1.7599 10.7448 2.224 10.6732 2.72489C10.666 2.7714 10.668 2.81888 10.6792 2.8646C10.6905 2.91031 10.7106 2.95334 10.7386 2.99121C10.7666 3.02907 10.8018 3.06101 10.8422 3.08517C10.8826 3.10933 10.9274 3.12524 10.9739 3.13198C11.0205 3.13871 11.068 3.13614 11.1136 3.1244C11.1592 3.11267 11.202 3.09201 11.2395 3.06361C11.277 3.03522 11.3086 2.99966 11.3323 2.959C11.356 2.91833 11.3714 2.87337 11.3776 2.82671C11.4342 2.43484 11.6308 2.07675 11.9312 1.81876C12.2315 1.56077 12.6152 1.42036 13.0111 1.42356C13.407 1.42675 13.7884 1.57332 14.0845 1.83612C14.3806 2.09892 14.5715 2.46014 14.6217 2.85287C14.1957 2.8801 13.7853 3.02379 13.4353 3.26825C13.3579 3.32224 13.3051 3.40478 13.2886 3.4977C13.272 3.59062 13.293 3.68631 13.347 3.76373C13.401 3.84114 13.4836 3.89394 13.5765 3.9105C13.6694 3.92706 13.7651 3.90603 13.8425 3.85204C14.0762 3.68941 14.3482 3.59053 14.6318 3.56514C14.9154 3.53976 15.2007 3.58874 15.4595 3.70727C15.7184 3.8258 15.9418 4.00978 16.1079 4.24104C16.2739 4.4723 16.3768 4.74287 16.4064 5.02603L16.4065 5.02799V5.02825C16.412 5.08604 16.4147 5.14087 16.4147 5.19573C16.4154 5.41363 16.3722 5.62944 16.2878 5.8303C16.2033 6.03117 16.0793 6.21298 15.9231 6.3649C15.8891 6.39745 15.8619 6.43641 15.8431 6.47954C15.8243 6.52267 15.8142 6.5691 15.8134 6.61615C15.8127 6.6632 15.8212 6.70993 15.8387 6.75364C15.8561 6.79735 15.882 6.83717 15.9149 6.8708C15.9478 6.90443 15.9871 6.9312 16.0304 6.94956C16.0737 6.96792 16.1203 6.9775 16.1673 6.97776C16.2144 6.97801 16.261 6.96893 16.3045 6.95104C16.3481 6.93315 16.3876 6.90681 16.4209 6.87354C16.8142 6.49113 17.0598 5.98204 17.1143 5.43615C17.4311 5.54989 17.7049 5.75886 17.8983 6.03438C18.0916 6.30991 18.1949 6.6385 18.1941 6.97509C18.1941 7.01791 18.1928 7.05552 18.1902 7.09016C18.1829 7.18426 18.2134 7.27738 18.2748 7.34904C18.3362 7.4207 18.4236 7.46503 18.5177 7.47227C18.527 7.47298 18.5362 7.47334 18.5453 7.47334C18.6349 7.47323 18.7212 7.43934 18.7869 7.37842C18.8526 7.3175 18.8929 7.23405 18.8998 7.14472C18.9039 7.09179 18.9058 7.03629 18.9058 6.97509C18.9073 6.44084 18.726 5.92215 18.3921 5.50515C18.0581 5.08815 17.5915 4.79794 17.0698 4.6827C16.9732 4.25733 16.7607 3.86704 16.4557 3.55515C16.1507 3.24327 15.7653 3.02198 15.3422 2.91586C15.318 2.52473 15.1963 2.14588 14.9883 1.81379C14.7802 1.4817 14.4924 1.20693 14.151 1.0145C13.8097 0.822069 13.4256 0.718087 13.0338 0.712023C12.6419 0.705958 12.2548 0.798004 11.9076 0.979779C11.6906 0.676925 11.4045 0.430104 11.0731 0.25973C10.7417 0.0893567 10.3745 0.000325694 10.0019 8.9191e-07C9.62927 -0.00032391 9.26192 0.0880667 8.93023 0.257862C8.59854 0.427658 8.31205 0.67398 8.09443 0.976455C7.74727 0.796019 7.36054 0.705155 6.96935 0.712115C6.57816 0.719076 6.1949 0.823639 5.85438 1.01631C5.51385 1.20898 5.22685 1.48366 5.01943 1.8154C4.812 2.14715 4.69073 2.52545 4.66661 2.91596C4.24359 3.02214 3.85825 3.24344 3.55334 3.55529C3.24844 3.86715 3.03588 4.25738 2.93925 4.68268C2.41753 4.79787 1.95091 5.08807 1.61689 5.50508C1.28287 5.92208 1.10155 6.4408 1.10304 6.97509C1.10304 7.03559 1.10498 7.09089 1.10902 7.1442C1.11576 7.23363 1.15602 7.31722 1.22175 7.37824C1.28747 7.43926 1.37381 7.47321 1.4635 7.47331Z"/>
</mask>
<path d="M1.4635 7.47331C1.4725 7.47331 1.48153 7.473 1.49064 7.4723C1.53724 7.46878 1.58269 7.45613 1.6244 7.43505C1.66611 7.41397 1.70326 7.38488 1.73373 7.34944C1.7642 7.314 1.78739 7.27291 1.80198 7.22851C1.81656 7.18411 1.82226 7.13728 1.81875 7.09067C1.81607 7.05533 1.81479 7.01752 1.81479 6.97509C1.81398 6.63851 1.91732 6.30993 2.11063 6.03441C2.30394 5.75889 2.57777 5.54992 2.89454 5.43618C2.94903 5.98204 3.19461 6.49111 3.58792 6.87354C3.62132 6.90623 3.66083 6.93202 3.7042 6.94944C3.74756 6.96686 3.79394 6.97557 3.84067 6.97507C3.8874 6.97457 3.93357 6.96487 3.97656 6.94653C4.01954 6.92818 4.05849 6.90155 4.09118 6.86815C4.12387 6.83475 4.14966 6.79524 4.16708 6.75188C4.18451 6.70851 4.19321 6.66214 4.19271 6.61541C4.19221 6.56868 4.18252 6.5225 4.16417 6.47952C4.14582 6.43654 4.11919 6.39759 4.0858 6.3649C3.92958 6.21298 3.80554 6.03118 3.72107 5.83031C3.6366 5.62944 3.59344 5.41363 3.59414 5.19573C3.59414 5.14028 3.59688 5.08499 3.60223 5.02879L3.60236 5.02763C3.64178 4.65405 3.80813 4.3053 4.07364 4.03956C4.33915 3.77382 4.68777 3.60718 5.06131 3.56744C5.45183 3.527 5.8439 3.62797 6.16632 3.852C6.20463 3.87907 6.24792 3.8983 6.29369 3.90859C6.33947 3.91887 6.38682 3.92 6.43303 3.91191C6.47924 3.90382 6.5234 3.88668 6.56296 3.86146C6.60252 3.83625 6.63671 3.80346 6.66355 3.76498C6.69039 3.72651 6.70936 3.68311 6.71937 3.63727C6.72938 3.59144 6.73022 3.54408 6.72186 3.49792C6.71349 3.45175 6.69608 3.4077 6.67063 3.36829C6.64518 3.32888 6.61219 3.2949 6.57355 3.26828C6.22357 3.02379 5.81318 2.88009 5.38712 2.85287C5.43741 2.46017 5.62829 2.099 5.92442 1.83624C6.22056 1.57348 6.60188 1.42693 6.99777 1.42374C7.39366 1.42055 7.77729 1.56093 8.07763 1.81888C8.37796 2.07683 8.57464 2.43488 8.63125 2.82671C8.63793 2.87297 8.65367 2.91745 8.67754 2.95762C8.70142 2.9978 8.73298 3.03288 8.77041 3.06086C8.80785 3.08884 8.85042 3.10917 8.89572 3.12069C8.94101 3.13222 8.98813 3.13471 9.03438 3.12802C9.08063 3.12134 9.12512 3.1056 9.16529 3.08173C9.20547 3.05785 9.24055 3.02629 9.26853 2.98886C9.2965 2.95142 9.31684 2.90885 9.32836 2.86355C9.33988 2.81826 9.34238 2.77114 9.33569 2.72489C9.26368 2.22147 9.02934 1.7553 8.66826 1.3972C8.81994 1.18476 9.02024 1.01169 9.25245 0.892453C9.48466 0.773212 9.74202 0.71126 10.0031 0.71177C10.2641 0.71228 10.5212 0.775237 10.7529 0.895384C10.9847 1.01553 11.1843 1.18938 11.3352 1.40241C10.9771 1.7599 10.7448 2.224 10.6732 2.72489C10.666 2.7714 10.668 2.81888 10.6792 2.8646C10.6905 2.91031 10.7106 2.95334 10.7386 2.99121C10.7666 3.02907 10.8018 3.06101 10.8422 3.08517C10.8826 3.10933 10.9274 3.12524 10.9739 3.13198C11.0205 3.13871 11.068 3.13614 11.1136 3.1244C11.1592 3.11267 11.202 3.09201 11.2395 3.06361C11.277 3.03522 11.3086 2.99966 11.3323 2.959C11.356 2.91833 11.3714 2.87337 11.3776 2.82671C11.4342 2.43484 11.6308 2.07675 11.9312 1.81876C12.2315 1.56077 12.6152 1.42036 13.0111 1.42356C13.407 1.42675 13.7884 1.57332 14.0845 1.83612C14.3806 2.09892 14.5715 2.46014 14.6217 2.85287C14.1957 2.8801 13.7853 3.02379 13.4353 3.26825C13.3579 3.32224 13.3051 3.40478 13.2886 3.4977C13.272 3.59062 13.293 3.68631 13.347 3.76373C13.401 3.84114 13.4836 3.89394 13.5765 3.9105C13.6694 3.92706 13.7651 3.90603 13.8425 3.85204C14.0762 3.68941 14.3482 3.59053 14.6318 3.56514C14.9154 3.53976 15.2007 3.58874 15.4595 3.70727C15.7184 3.8258 15.9418 4.00978 16.1079 4.24104C16.2739 4.4723 16.3768 4.74287 16.4064 5.02603L16.4065 5.02799V5.02825C16.412 5.08604 16.4147 5.14087 16.4147 5.19573C16.4154 5.41363 16.3722 5.62944 16.2878 5.8303C16.2033 6.03117 16.0793 6.21298 15.9231 6.3649C15.8891 6.39745 15.8619 6.43641 15.8431 6.47954C15.8243 6.52267 15.8142 6.5691 15.8134 6.61615C15.8127 6.6632 15.8212 6.70993 15.8387 6.75364C15.8561 6.79735 15.882 6.83717 15.9149 6.8708C15.9478 6.90443 15.9871 6.9312 16.0304 6.94956C16.0737 6.96792 16.1203 6.9775 16.1673 6.97776C16.2144 6.97801 16.261 6.96893 16.3045 6.95104C16.3481 6.93315 16.3876 6.90681 16.4209 6.87354C16.8142 6.49113 17.0598 5.98204 17.1143 5.43615C17.4311 5.54989 17.7049 5.75886 17.8983 6.03438C18.0916 6.30991 18.1949 6.6385 18.1941 6.97509C18.1941 7.01791 18.1928 7.05552 18.1902 7.09016C18.1829 7.18426 18.2134 7.27738 18.2748 7.34904C18.3362 7.4207 18.4236 7.46503 18.5177 7.47227C18.527 7.47298 18.5362 7.47334 18.5453 7.47334C18.6349 7.47323 18.7212 7.43934 18.7869 7.37842C18.8526 7.3175 18.8929 7.23405 18.8998 7.14472C18.9039 7.09179 18.9058 7.03629 18.9058 6.97509C18.9073 6.44084 18.726 5.92215 18.3921 5.50515C18.0581 5.08815 17.5915 4.79794 17.0698 4.6827C16.9732 4.25733 16.7607 3.86704 16.4557 3.55515C16.1507 3.24327 15.7653 3.02198 15.3422 2.91586C15.318 2.52473 15.1963 2.14588 14.9883 1.81379C14.7802 1.4817 14.4924 1.20693 14.151 1.0145C13.8097 0.822069 13.4256 0.718087 13.0338 0.712023C12.6419 0.705958 12.2548 0.798004 11.9076 0.979779C11.6906 0.676925 11.4045 0.430104 11.0731 0.25973C10.7417 0.0893567 10.3745 0.000325694 10.0019 8.9191e-07C9.62927 -0.00032391 9.26192 0.0880667 8.93023 0.257862C8.59854 0.427658 8.31205 0.67398 8.09443 0.976455C7.74727 0.796019 7.36054 0.705155 6.96935 0.712115C6.57816 0.719076 6.1949 0.823639 5.85438 1.01631C5.51385 1.20898 5.22685 1.48366 5.01943 1.8154C4.812 2.14715 4.69073 2.52545 4.66661 2.91596C4.24359 3.02214 3.85825 3.24344 3.55334 3.55529C3.24844 3.86715 3.03588 4.25738 2.93925 4.68268C2.41753 4.79787 1.95091 5.08807 1.61689 5.50508C1.28287 5.92208 1.10155 6.4408 1.10304 6.97509C1.10304 7.03559 1.10498 7.09089 1.10902 7.1442C1.11576 7.23363 1.15602 7.31722 1.22175 7.37824C1.28747 7.43926 1.37381 7.47321 1.4635 7.47331Z" fill="white" stroke="white" stroke-width="2" mask="url(#path-7-inside-4_67_4300)"/>
<mask id="path-8-inside-5_67_4300" fill="white">
<path d="M11.8422 7.46233C11.8875 7.47392 11.9347 7.47645 11.9809 7.4698C12.0272 7.46315 12.0717 7.44743 12.1119 7.42355C12.1521 7.39967 12.1872 7.3681 12.2151 7.33064C12.2431 7.29319 12.2634 7.25058 12.2749 7.20526C12.3237 7.01375 12.3484 6.81689 12.3485 6.61925C12.3489 6.17313 12.2216 5.73622 11.9816 5.36017C11.9564 5.32078 11.9238 5.28672 11.8855 5.25994C11.8472 5.23317 11.804 5.2142 11.7583 5.20412C11.7127 5.19405 11.6655 5.19306 11.6195 5.20122C11.5735 5.20937 11.5295 5.22651 11.4901 5.25166C11.4507 5.27681 11.4166 5.30947 11.3899 5.34777C11.3631 5.38608 11.3441 5.42929 11.3341 5.47493C11.324 5.52057 11.323 5.56775 11.3311 5.61377C11.3393 5.65979 11.3564 5.70375 11.3816 5.74315C11.5486 6.00481 11.6371 6.30884 11.6368 6.61925C11.6367 6.75768 11.6193 6.89556 11.5851 7.02969C11.5619 7.12115 11.5759 7.21811 11.6241 7.29925C11.6723 7.38038 11.7508 7.43904 11.8422 7.46233Z"/>
</mask>
<path d="M11.8422 7.46233C11.8875 7.47392 11.9347 7.47645 11.9809 7.4698C12.0272 7.46315 12.0717 7.44743 12.1119 7.42355C12.1521 7.39967 12.1872 7.3681 12.2151 7.33064C12.2431 7.29319 12.2634 7.25058 12.2749 7.20526C12.3237 7.01375 12.3484 6.81689 12.3485 6.61925C12.3489 6.17313 12.2216 5.73622 11.9816 5.36017C11.9564 5.32078 11.9238 5.28672 11.8855 5.25994C11.8472 5.23317 11.804 5.2142 11.7583 5.20412C11.7127 5.19405 11.6655 5.19306 11.6195 5.20122C11.5735 5.20937 11.5295 5.22651 11.4901 5.25166C11.4507 5.27681 11.4166 5.30947 11.3899 5.34777C11.3631 5.38608 11.3441 5.42929 11.3341 5.47493C11.324 5.52057 11.323 5.56775 11.3311 5.61377C11.3393 5.65979 11.3564 5.70375 11.3816 5.74315C11.5486 6.00481 11.6371 6.30884 11.6368 6.61925C11.6367 6.75768 11.6193 6.89556 11.5851 7.02969C11.5619 7.12115 11.5759 7.21811 11.6241 7.29925C11.6723 7.38038 11.7508 7.43904 11.8422 7.46233Z" fill="white"/>
<path d="M12.2749 7.20526L11.3059 6.95832L11.3056 6.95963L12.2749 7.20526ZM12.3485 6.61925L11.3485 6.6183L11.3485 6.61886L12.3485 6.61925ZM11.9816 5.36017L12.8245 4.82214L12.8245 4.82214L11.9816 5.36017ZM11.3816 5.74315L12.2245 5.20514L12.2245 5.20511L11.3816 5.74315ZM11.6368 6.61925L10.6368 6.61804L10.6368 6.61866L11.6368 6.61925ZM11.5851 7.02969L10.6162 6.78253L10.616 6.78319L11.5851 7.02969ZM11.5944 8.43114C11.7671 8.47531 11.9468 8.48499 12.1233 8.45962L11.8386 6.47998C11.9225 6.46792 12.0079 6.47252 12.0901 6.49353L11.5944 8.43114ZM12.1233 8.45962C12.2997 8.43424 12.4694 8.37431 12.6227 8.28326L11.6011 6.56384C11.674 6.52055 11.7547 6.49205 11.8386 6.47998L12.1233 8.45962ZM12.6227 8.28326C12.7759 8.19221 12.9097 8.07182 13.0164 7.92899L11.4139 6.73229C11.4646 6.66438 11.5282 6.60713 11.6011 6.56384L12.6227 8.28326ZM13.0164 7.92899C13.123 7.78616 13.2005 7.6237 13.2443 7.4509L11.3056 6.95963C11.3264 6.87746 11.3632 6.80021 11.4139 6.73229L13.0164 7.92899ZM13.2439 7.4522C13.3133 7.18011 13.3484 6.90044 13.3485 6.61965L11.3485 6.61886C11.3485 6.73334 11.3342 6.84738 11.3059 6.95833L13.2439 7.4522ZM13.3485 6.62021C13.3491 5.98311 13.1673 5.35917 12.8245 4.82214L11.1387 5.8982C11.2759 6.11327 11.3488 6.36315 11.3485 6.6183L13.3485 6.62021ZM12.8245 4.82214C12.7287 4.67206 12.6043 4.5423 12.4583 4.44029L11.3126 6.07959C11.2433 6.03113 11.1842 5.96949 11.1387 5.89821L12.8245 4.82214ZM12.4583 4.44029C12.3124 4.33829 12.1478 4.26603 11.9739 4.22764L11.5427 6.18061C11.4601 6.16237 11.3819 6.12805 11.3126 6.07959L12.4583 4.44029ZM11.9739 4.22764C11.8 4.18925 11.6203 4.18549 11.445 4.21656L11.794 6.18587C11.7107 6.20063 11.6253 6.19884 11.5427 6.18061L11.9739 4.22764ZM11.445 4.21656C11.2697 4.24763 11.1022 4.31293 10.9521 4.40873L12.0281 6.09459C11.9568 6.14009 11.8773 6.17111 11.794 6.18587L11.445 4.21656ZM10.9521 4.40873C10.802 4.50454 10.6722 4.62897 10.5702 4.77491L12.2095 5.92064C12.1611 5.98996 12.0994 6.04907 12.0281 6.09459L10.9521 4.40873ZM10.5702 4.77491C10.4682 4.92085 10.396 5.08546 10.3576 5.25934L12.3105 5.69052C12.2923 5.77312 12.258 5.85131 12.2095 5.92064L10.5702 4.77491ZM10.3576 5.25934C10.3192 5.43319 10.3154 5.61292 10.3465 5.78827L12.3158 5.43926C12.3306 5.52258 12.3288 5.60795 12.3105 5.69052L10.3576 5.25934ZM10.3465 5.78827C10.3776 5.96362 10.4429 6.13111 10.5387 6.28118L12.2245 5.20511C12.27 5.2764 12.301 5.35596 12.3158 5.43926L10.3465 5.78827ZM10.5386 6.28116C10.6029 6.38177 10.6369 6.49868 10.6368 6.61804L12.6368 6.62047C12.6374 6.119 12.4943 5.62785 12.2245 5.20514L10.5386 6.28116ZM10.6368 6.61866C10.6367 6.67393 10.6298 6.72898 10.6162 6.78253L12.5541 7.27685C12.6089 7.06213 12.6366 6.84143 12.6368 6.61984L10.6368 6.61866ZM10.616 6.78319C10.5274 7.13163 10.5807 7.50102 10.7644 7.81012L12.4838 6.78838C12.571 6.93521 12.5964 7.11068 12.5543 7.27619L10.616 6.78319ZM10.7644 7.81012C10.9481 8.1192 11.247 8.34268 11.5955 8.43141L12.089 6.49326C12.2545 6.5354 12.3965 6.64156 12.4838 6.78838L10.7644 7.81012Z" fill="white" mask="url(#path-8-inside-5_67_4300)"/>
<mask id="path-10-inside-6_67_4300" fill="white">
<path d="M8.50949 5.25162C8.42992 5.20086 8.33345 5.18378 8.24129 5.20413C8.14913 5.22448 8.06883 5.2806 8.01804 5.36015C7.77801 5.73619 7.65069 6.1731 7.65112 6.61922C7.65123 6.81683 7.67596 7.01365 7.72473 7.20515C7.7361 7.2506 7.75634 7.29336 7.78427 7.33097C7.81221 7.36858 7.84729 7.40031 7.88752 7.42433C7.92774 7.44835 7.97231 7.46419 8.01868 7.47094C8.06504 7.47769 8.11228 7.47522 8.15768 7.46368C8.20309 7.45213 8.24576 7.43173 8.28327 7.40365C8.32077 7.37557 8.35236 7.34035 8.37622 7.30004C8.40008 7.25972 8.41575 7.21508 8.42232 7.1687C8.42889 7.12231 8.42624 7.07508 8.41451 7.02972C8.38032 6.89556 8.36297 6.75767 8.36287 6.61922C8.36251 6.30879 8.45105 6.00476 8.61803 5.74306C8.64317 5.70367 8.66031 5.65971 8.66846 5.61369C8.67661 5.56767 8.67562 5.5205 8.66554 5.47486C8.65546 5.42923 8.63649 5.38602 8.60972 5.34772C8.58294 5.30942 8.54888 5.27676 8.50949 5.25162Z"/>
</mask>
<path d="M8.50949 5.25162C8.42992 5.20086 8.33345 5.18378 8.24129 5.20413C8.14913 5.22448 8.06883 5.2806 8.01804 5.36015C7.77801 5.73619 7.65069 6.1731 7.65112 6.61922C7.65123 6.81683 7.67596 7.01365 7.72473 7.20515C7.7361 7.2506 7.75634 7.29336 7.78427 7.33097C7.81221 7.36858 7.84729 7.40031 7.88752 7.42433C7.92774 7.44835 7.97231 7.46419 8.01868 7.47094C8.06504 7.47769 8.11228 7.47522 8.15768 7.46368C8.20309 7.45213 8.24576 7.43173 8.28327 7.40365C8.32077 7.37557 8.35236 7.34035 8.37622 7.30004C8.40008 7.25972 8.41575 7.21508 8.42232 7.1687C8.42889 7.12231 8.42624 7.07508 8.41451 7.02972C8.38032 6.89556 8.36297 6.75767 8.36287 6.61922C8.36251 6.30879 8.45105 6.00476 8.61803 5.74306C8.64317 5.70367 8.66031 5.65971 8.66846 5.61369C8.67661 5.56767 8.67562 5.5205 8.66554 5.47486C8.65546 5.42923 8.63649 5.38602 8.60972 5.34772C8.58294 5.30942 8.54888 5.27676 8.50949 5.25162Z" fill="white"/>
<path d="M8.50949 5.25162L9.04744 4.40864L9.04731 4.40856L8.50949 5.25162ZM8.01804 5.36015L7.17519 4.82202L7.17513 4.82211L8.01804 5.36015ZM7.65112 6.61922L8.65112 6.61866L8.65112 6.61824L7.65112 6.61922ZM7.72473 7.20515L8.69484 6.96246L8.6938 6.95834L7.72473 7.20515ZM8.41451 7.02972L7.44549 7.27672L7.44634 7.27999L8.41451 7.02972ZM8.36287 6.61922L9.36287 6.6185L9.36287 6.61806L8.36287 6.61922ZM8.61803 5.74306L7.77508 5.20508L7.77501 5.20517L8.61803 5.74306ZM9.04731 4.40856C8.74421 4.2152 8.37671 4.15013 8.02564 4.22766L8.45694 6.1806C8.29019 6.21743 8.11563 6.18652 7.97166 6.09468L9.04731 4.40856ZM8.02564 4.22766C7.67457 4.30519 7.36866 4.51898 7.17519 4.82202L8.8609 5.89829C8.769 6.04223 8.62369 6.14378 8.45694 6.1806L8.02564 4.22766ZM7.17513 4.82211C6.83234 5.35914 6.6505 5.98309 6.65112 6.6202L8.65112 6.61824C8.65087 6.36311 8.72369 6.11325 8.86096 5.8982L7.17513 4.82211ZM6.65112 6.61977C6.65128 6.90043 6.6864 7.17998 6.75567 7.45196L8.6938 6.95834C8.66552 6.84733 8.65119 6.73322 8.65112 6.61866L6.65112 6.61977ZM6.75463 7.44785C6.79795 7.62102 6.87505 7.78393 6.98147 7.92722L8.58707 6.73472C8.63763 6.80279 8.67425 6.88018 8.69484 6.96246L6.75463 7.44785ZM6.98147 7.92722C7.0879 8.07052 7.22159 8.1914 7.37484 8.28291L8.4002 6.56575C8.473 6.60922 8.53651 6.66664 8.58707 6.73472L6.98147 7.92722ZM7.37484 8.28291C7.52809 8.37442 7.6979 8.43477 7.87455 8.4605L8.1628 6.48138C8.24672 6.4936 8.3274 6.52228 8.4002 6.56575L7.37484 8.28291ZM7.87455 8.4605C8.05119 8.48623 8.23117 8.47682 8.40416 8.43282L7.9112 6.49453C7.99338 6.47363 8.07888 6.46916 8.1628 6.48138L7.87455 8.4605ZM8.40416 8.43282C8.57715 8.38883 8.73975 8.31111 8.88264 8.20411L7.68389 6.60318C7.75178 6.55235 7.82902 6.51543 7.9112 6.49453L8.40416 8.43282ZM8.88264 8.20411C9.02554 8.09712 9.14589 7.96296 9.2368 7.80936L7.51564 6.79071C7.55883 6.71775 7.616 6.65401 7.68389 6.60318L8.88264 8.20411ZM9.2368 7.80936C9.3277 7.65576 9.3874 7.4857 9.41244 7.30895L7.4322 7.02844C7.4441 6.94447 7.47246 6.86368 7.51564 6.79071L9.2368 7.80936ZM9.41244 7.30895C9.43747 7.13221 9.42736 6.95227 9.38269 6.77945L7.44634 7.27999C7.42511 7.19789 7.42031 7.11241 7.4322 7.02844L9.41244 7.30895ZM9.38353 6.78272C9.36985 6.72905 9.36291 6.67389 9.36287 6.6185L7.36287 6.61993C7.36303 6.84144 7.39078 7.06207 7.4455 7.27672L9.38353 6.78272ZM9.36287 6.61806C9.36273 6.49862 9.3968 6.38164 9.46104 6.28095L7.77501 5.20517C7.50531 5.62787 7.36229 6.11896 7.36287 6.62037L9.36287 6.61806ZM9.46098 6.28105C9.55678 6.13094 9.62207 5.96344 9.65313 5.78813L7.68379 5.43925C7.69855 5.35597 7.72956 5.27639 7.77508 5.20508L9.46098 6.28105ZM9.65313 5.78813C9.68419 5.6128 9.68041 5.43307 9.64201 5.2592L7.68907 5.69052C7.67083 5.60793 7.66904 5.52254 7.68379 5.43925L9.65313 5.78813ZM9.64201 5.2592C9.60361 5.08534 9.53134 4.92073 9.42932 4.77478L7.79012 5.92065C7.74165 5.85131 7.70732 5.77312 7.68907 5.69052L9.64201 5.2592ZM9.42932 4.77478C9.3273 4.62884 9.19753 4.50443 9.04744 4.40864L7.97153 6.09459C7.90023 6.04909 7.83859 5.98999 7.79012 5.92065L9.42932 4.77478Z" fill="white" mask="url(#path-10-inside-6_67_4300)"/>
<mask id="path-12-inside-7_67_4300" fill="white">
<path d="M9.99996 14.9382C6.92681 14.9382 4.51953 16.2863 4.51953 18.0071C4.51953 19.7279 6.92681 21.076 9.99996 21.076C13.0731 21.076 15.4804 19.7279 15.4804 18.0071C15.4804 16.2863 13.0731 14.9382 9.99996 14.9382ZM9.99996 20.3642C7.41505 20.3642 5.23128 19.2848 5.23128 18.0071C5.23128 16.7294 7.41505 15.65 9.99996 15.65C12.5849 15.65 14.7686 16.7294 14.7686 18.0071C14.7686 19.2848 12.5848 20.3642 9.99996 20.3642Z"/>
</mask>
<path d="M9.99996 14.9382C6.92681 14.9382 4.51953 16.2863 4.51953 18.0071C4.51953 19.7279 6.92681 21.076 9.99996 21.076C13.0731 21.076 15.4804 19.7279 15.4804 18.0071C15.4804 16.2863 13.0731 14.9382 9.99996 14.9382ZM9.99996 20.3642C7.41505 20.3642 5.23128 19.2848 5.23128 18.0071C5.23128 16.7294 7.41505 15.65 9.99996 15.65C12.5849 15.65 14.7686 16.7294 14.7686 18.0071C14.7686 19.2848 12.5848 20.3642 9.99996 20.3642Z" fill="white"/>
<path d="M9.99996 13.9382C8.33041 13.9382 6.78403 14.3023 5.61873 14.9548C4.47705 15.5942 3.51953 16.6324 3.51953 18.0071H5.51953C5.51953 17.6609 5.76566 17.1648 6.5959 16.6999C7.40253 16.2482 8.59636 15.9382 9.99996 15.9382V13.9382ZM3.51953 18.0071C3.51953 19.3818 4.47705 20.4201 5.61873 21.0594C6.78403 21.7119 8.33041 22.076 9.99996 22.076V20.076C8.59636 20.076 7.40253 19.766 6.5959 19.3143C5.76566 18.8494 5.51953 18.3533 5.51953 18.0071H3.51953ZM9.99996 22.076C11.6695 22.076 13.2159 21.7119 14.3812 21.0594C15.5229 20.4201 16.4804 19.3818 16.4804 18.0071H14.4804C14.4804 18.3533 14.2343 18.8494 13.404 19.3143C12.5974 19.766 11.4036 20.076 9.99996 20.076V22.076ZM16.4804 18.0071C16.4804 16.6324 15.5229 15.5942 14.3812 14.9548C13.2159 14.3023 11.6695 13.9382 9.99996 13.9382V15.9382C11.4036 15.9382 12.5974 16.2482 13.404 16.6999C14.2343 17.1648 14.4804 17.6609 14.4804 18.0071H16.4804ZM9.99996 19.3642C8.83346 19.3642 7.79778 19.1185 7.08939 18.7683C6.30534 18.3808 6.23128 18.0458 6.23128 18.0071H4.23128C4.23128 19.2461 5.2491 20.0897 6.20316 20.5613C7.23289 21.0703 8.58156 21.3642 9.99996 21.3642V19.3642ZM6.23128 18.0071C6.23128 17.9684 6.30534 17.6334 7.08939 17.2459C7.79778 16.8957 8.83346 16.65 9.99996 16.65V14.65C8.58156 14.65 7.23289 14.9439 6.20316 15.4529C5.2491 15.9245 4.23128 16.7681 4.23128 18.0071H6.23128ZM9.99996 16.65C11.1665 16.65 12.2021 16.8957 12.9105 17.2459C13.6946 17.6334 13.7686 17.9684 13.7686 18.0071H15.7686C15.7686 16.7681 14.7508 15.9245 13.7968 15.4529C12.767 14.9439 11.4184 14.65 9.99996 14.65V16.65ZM13.7686 18.0071C13.7686 18.0458 13.6946 18.3808 12.9105 18.7683C12.2021 19.1185 11.1664 19.3642 9.99996 19.3642V21.3642C11.4183 21.3642 12.767 21.0703 13.7967 20.5613C14.7508 20.0897 15.7686 19.2461 15.7686 18.0071H13.7686Z" fill="white" mask="url(#path-12-inside-7_67_4300)"/>
</svg>
